<svg id="Layer_1" data-name="Layer 1" xmlns="http://www.w3.org/2000/svg" viewBox="0 0 579.5 352.5"><defs><style>.cls-1,.cls-32{fill:#99c21c;}.cls-1,.cls-10,.cls-11,.cls-12,.cls-13,.cls-16,.cls-2,.cls-22,.cls-23,.cls-24,.cls-27,.cls-28,.cls-3,.cls-4,.cls-5,.cls-7,.cls-8,.cls-9{fill-rule:evenodd;}.cls-2{fill:#b8d586;}.cls-3{fill:#dadada;}.cls-4{fill:#c6c6c6;}.cls-5{fill:#ededed;}.cls-11,.cls-6{fill:none;stroke:#3576bb;}.cls-6{stroke-miterlimit:22.93;stroke-width:2.13px;stroke-dasharray:2.13 2.13;}.cls-18,.cls-7{fill:#9d9d9c;}.cls-21,.cls-8{fill:#878787;}.cls-9{fill:#677d51;}.cls-10{fill:#5d9b27;}.cls-11{stroke-linecap:round;stroke-linejoin:round;stroke-width:14.17px;}.cls-12{fill:#afdef6;}.cls-13,.cls-14{fill:#3576bb;}.cls-15,.cls-24{fill:#53c0d8;}.cls-16{fill:#eeeded;}.cls-17{fill:#d2d0cd;}.cls-19,.cls-22{fill:#fff;}.cls-20,.cls-23{fill:#055c79;}.cls-25,.cls-28{fill:#ed6950;}.cls-26,.cls-27{fill:#b53517;}.cls-29{fill:#f6af95;}.cls-30{fill:#60b3db;}.cls-31{fill:#b7d276;}</style></defs><path class="cls-1" d="M24,128.25C12.91,139,5.62,152.3,12.63,166.31c17.18,34.37,30.75,27.13,21.7,66.92S61.46,273.92,105.77,302s82.78,37.45,235.1,28.94,94-32.09,144.24-59.79,32.09-86.7,54.7-106.59c12.31-10.84,24.41-21.07,9.37-36.26Z"/><path class="cls-2" d="M130,74.88l42.78,53.33H77.37l42.77-53.33A6.05,6.05,0,0,1,130,74.88Z"/><path class="cls-3" d="M302,62.24a15.11,15.11,0,0,0,2.35.19,14.46,14.46,0,0,0,4.29-.64,9.79,9.79,0,1,0,10.31-15.66,14.69,14.69,0,0,0-10.3-12.44,12.39,12.39,0,0,0-24.06-3.28,12.38,12.38,0,0,0-16.2,15.43,9.79,9.79,0,0,0,10.28,16.61A15.56,15.56,0,0,0,302,62.24Z"/><path class="cls-4" d="M252.41,70.85a13,13,0,0,1-2.08.17,12.81,12.81,0,0,1-3.78-.57,8.63,8.63,0,1,1-9.09-13.81,13,13,0,0,1,9.09-11,10.92,10.92,0,0,1,21.21-2.89,10.76,10.76,0,0,1,3.9-.72A10.93,10.93,0,0,1,282,56.39,8.63,8.63,0,0,1,273,71a13.71,13.71,0,0,1-20.57-.19Z"/><path class="cls-3" d="M461.24,104.14a8.58,8.58,0,0,1-1.35.1,8.32,8.32,0,0,1-2.46-.36,5.63,5.63,0,1,1-5.92-9,8.43,8.43,0,0,1,5.92-7.14,7.11,7.11,0,0,1,13.81-1.89,7.13,7.13,0,0,1,9.31,8.87,5.62,5.62,0,0,1-3.29,10.19,5.68,5.68,0,0,1-2.62-.65,8.94,8.94,0,0,1-13.4-.12Z"/><path class="cls-5" d="M428.92,103a10.42,10.42,0,0,1-1.69.13,10.7,10.7,0,0,1-3.07-.45,7,7,0,1,1-7.37-11.21,10.52,10.52,0,0,1,7.37-8.9,8.86,8.86,0,0,1,17.21-2.34,8.75,8.75,0,0,1,3.17-.59,8.86,8.86,0,0,1,8.86,8.86,8.73,8.73,0,0,1-.44,2.77,7,7,0,0,1-7.36,11.88,11.12,11.12,0,0,1-16.68-.15Z"/><line class="cls-6" x1="95.92" y1="52.69" x2="77.48" y2="107.87"/><line class="cls-6" x1="101.86" y1="64.4" x2="83.42" y2="119.58"/><line class="cls-6" x1="113.97" y1="60.01" x2="95.53" y2="115.19"/><line class="cls-6" x1="125.79" y1="57.08" x2="107.36" y2="112.26"/><line class="cls-6" x1="142.3" y1="52.69" x2="123.87" y2="107.87"/><line class="cls-6" x1="148.24" y1="64.4" x2="129.81" y2="119.58"/><line class="cls-6" x1="160.35" y1="60.01" x2="141.92" y2="115.19"/><line class="cls-6" x1="172.18" y1="57.08" x2="153.74" y2="112.26"/><path class="cls-7" d="M158.46,59a16.65,16.65,0,0,0,7.48-.51,11,11,0,1,0,11.61-17.64,16.54,16.54,0,0,0-11.6-14,13.95,13.95,0,0,0-27.09-3.69,14,14,0,0,0-18.25,17.37,11,11,0,0,0,11.58,18.71A17.51,17.51,0,0,0,158.46,59Z"/><path class="cls-8" d="M116.51,61.18a12.6,12.6,0,0,0,2,.16,12.82,12.82,0,0,0,3.74-.55,8.53,8.53,0,1,0,9-13.64,12.8,12.8,0,0,0-9-10.84,10.79,10.79,0,0,0-21-2.85A10.78,10.78,0,0,0,86.7,43.53a11,11,0,0,0,.53,3.37,8.53,8.53,0,0,0,9,14.47,13.55,13.55,0,0,0,20.32-.19Z"/><path class="cls-9" d="M92.8,96.07l36.72,32.14H47.63L84.35,96.07A6.62,6.62,0,0,1,92.8,96.07Z"/><path class="cls-10" d="M119.61,106.81l30.53,21.68H82.06l30.52-21.68A6.53,6.53,0,0,1,119.61,106.81Z"/><path class="cls-11" d="M423.84,223.73v32.6a30.52,30.52,0,0,1-30.43,30.43H159.74a30.52,30.52,0,0,1-30.43-30.43v-32.6"/><polygon class="cls-12" points="142.43 277.23 138.44 273.24 133.46 273.04 133.66 278.02 137.65 282.01 137.45 277.03 142.43 277.23"/><polygon class="cls-12" points="172.39 283.29 166.75 283.29 163.09 286.67 166.75 290.05 172.39 290.05 168.73 286.67 172.39 283.29"/><polygon class="cls-12" points="208.82 283.29 203.18 283.29 199.51 286.67 203.18 290.05 208.82 290.05 205.15 286.67 208.82 283.29"/><polygon class="cls-12" points="245.24 283.29 239.6 283.29 235.94 286.67 239.6 290.05 245.24 290.05 241.58 286.67 245.24 283.29"/><polygon class="cls-12" points="281.67 283.29 276.03 283.29 272.36 286.67 276.03 290.05 281.67 290.05 278 286.67 281.67 283.29"/><polygon class="cls-12" points="318.1 283.29 312.45 283.29 308.79 286.67 312.45 290.05 318.1 290.05 314.43 286.67 318.1 283.29"/><polygon class="cls-12" points="354.52 283.29 348.88 283.29 345.21 286.67 348.88 290.05 354.52 290.05 350.86 286.67 354.52 283.29"/><polygon class="cls-12" points="390.95 283.29 385.31 283.29 381.64 286.67 385.31 290.05 390.95 290.05 387.28 286.67 390.95 283.29"/><polygon class="cls-12" points="414.68 273.13 410.7 277.12 410.5 282.11 415.48 281.91 419.47 277.92 414.49 278.12 414.68 273.13"/><polygon class="cls-12" points="420.32 250.94 420.32 256.58 423.71 260.25 427.09 256.58 427.09 250.94 423.71 254.61 420.32 250.94"/><polygon class="cls-12" points="125.89 260.25 125.89 254.61 129.27 250.94 132.66 254.61 132.66 260.25 129.27 256.58 125.89 260.25"/><path class="cls-13" d="M461.44,128.43c15.24,6.38,23.88,4.81,23.88,21.36s-32.52,53.92-208.83,53.92S67.66,166.33,67.66,149.79s13.2-19,23.88-21.36h49.94c-27.2,6.64-43.66,15.29-43.66,24.77,0,20.88,80,37.8,178.67,37.8s178.68-16.92,178.68-37.8c0-9.48-16.47-18.13-43.67-24.77Z"/><path class="cls-13" d="M356.59,128.22H504.75s25.77,8.29,3.76,12.84-23.62,14.92-71.93,14.5-36-14.08-56.37-17.4S356.59,128.22,356.59,128.22Z"/><rect class="cls-14" x="129.45" y="179.96" width="7.4" height="28.49"/><rect class="cls-14" x="423.71" y="179.96" width="7.4" height="28.49"/><path class="cls-8" d="M105.32,244.12h1.89V205.83a2.63,2.63,0,0,1,2.81-2.39h18.67a2.64,2.64,0,0,1,2.82,2.39v.29h1.88v-.29c0-2.2-2.11-4-4.7-4H110c-2.59,0-4.7,1.8-4.7,4Z"/><path class="cls-8" d="M132.45,202.86c12.59,0,22.8,3.6,22.8,8H109.64C109.64,206.46,119.85,202.86,132.45,202.86Z"/><rect class="cls-15" x="109.64" y="210.9" width="45.61" height="33.22"/><path class="cls-16" d="M133,198.39c3.41,0,6.17,1,6.17,2.18H126.85C126.85,199.36,129.61,198.39,133,198.39Z"/><rect class="cls-17" x="74.89" y="235.03" width="27.26" height="9.09"/><rect class="cls-18" x="89" y="235.03" width="13.14" height="9.09"/><rect class="cls-19" x="82.69" y="237.71" width="3.43" height="3.43"/><rect class="cls-19" x="77.62" y="237.71" width="3.43" height="3.43"/><rect class="cls-20" x="93.95" y="237.71" width="4.33" height="6.41"/><rect class="cls-21" x="126.85" y="200.57" width="12.36" height="2.65"/><path class="cls-22" d="M151.18,241.6v-3H145.7v3Zm0-23.38v-3H145.7v3Zm0,3.89v-3H145.7v3Zm0,3.9v-2.95H145.7V226Zm0,3.9v-3H145.7v3Zm-5.48,4.84v2.95h5.48v-2.95Zm5.48-.94v-3H145.7v3Zm-5.48-22.44v2.95h5.48v-2.95Zm0-2.53v1.59h5.48v-1.59h.94v35.28h-.94v-1.58H145.7v1.58h-.94V208.84Z"/><path class="cls-23" d="M74.25,232.37a7.49,7.49,0,0,1,7.49-7.49H95.35v7.45H89.22v0Z"/><path class="cls-24" d="M87.86,232.37a7.49,7.49,0,0,1,15,0v3.5H74.25v-3.5Z"/><path class="cls-8" d="M399.87,244.12h1.88V205.83a2.63,2.63,0,0,1,2.81-2.39h18.68a2.63,2.63,0,0,1,2.81,2.39v.29h1.88v-.29c0-2.2-2.11-4-4.69-4H404.56c-2.58,0-4.69,1.8-4.69,4Z"/><path class="cls-8" d="M427,202.86c12.6,0,22.81,3.6,22.81,8H404.18C404.18,206.46,414.4,202.86,427,202.86Z"/><rect class="cls-25" x="404.18" y="210.9" width="45.61" height="33.22"/><path class="cls-16" d="M427.57,198.39c3.41,0,6.18,1,6.18,2.18H421.39C421.39,199.36,424.16,198.39,427.57,198.39Z"/><rect class="cls-17" x="369.44" y="235.03" width="27.26" height="9.09"/><rect class="cls-18" x="383.55" y="235.03" width="13.14" height="9.09"/><rect class="cls-19" x="377.23" y="237.71" width="3.43" height="3.43"/><rect class="cls-19" x="372.17" y="237.71" width="3.43" height="3.43"/><rect class="cls-26" x="388.49" y="237.71" width="4.33" height="6.41"/><rect class="cls-21" x="421.39" y="200.57" width="12.36" height="2.65"/><path class="cls-22" d="M445.72,241.6v-3h-5.48v3Zm0-23.38v-3h-5.48v3Zm0,3.89v-3h-5.48v3Zm0,3.9v-2.95h-5.48V226Zm0,3.9v-3h-5.48v3Zm-5.48,4.84v2.95h5.48v-2.95Zm5.48-.94v-3h-5.48v3Zm-5.48-22.44v2.95h5.48v-2.95Zm0-2.53v1.59h5.48v-1.59h.94v35.28h-.94v-1.58h-5.48v1.58h-.94V208.84Z"/><path class="cls-27" d="M368.79,232.37a7.49,7.49,0,0,1,7.49-7.49H389.9v7.45h-6.13v0Z"/><path class="cls-28" d="M382.41,232.37a7.49,7.49,0,0,1,15,0v3.5h-28.6v-3.5Z"/><polygon class="cls-12" points="79.38 154.14 82.43 158.88 87.26 160.13 88.12 155.21 85.06 150.47 84.21 155.39 79.38 154.14"/><polygon class="cls-12" points="445.09 178.74 449.99 175.95 451.5 171.19 446.64 170.07 441.74 172.86 446.6 173.99 445.09 178.74"/><polygon class="cls-12" points="181.81 189.42 187.44 189.42 191.11 192.8 187.44 196.19 181.81 196.19 185.47 192.8 181.81 189.42"/><polygon class="cls-12" points="226.82 192.82 232.46 192.82 236.13 196.2 232.46 199.59 226.82 199.59 230.49 196.2 226.82 192.82"/><polygon class="cls-12" points="271.84 193.95 277.48 193.95 281.14 197.34 277.48 200.72 271.84 200.72 275.5 197.34 271.84 193.95"/><polygon class="cls-12" points="316.85 192.82 322.49 192.82 326.16 196.2 322.49 199.59 316.85 199.59 320.52 196.2 316.85 192.82"/><polygon class="cls-12" points="361.87 189.42 367.51 189.42 371.18 192.8 367.51 196.19 361.87 196.19 365.54 192.8 361.87 189.42"/><polygon class="cls-12" points="403.5 183.49 409.04 182.46 413.26 185.11 410.28 189.11 404.73 190.14 407.72 186.14 403.5 183.49"/><polygon class="cls-12" points="141.38 189.11 146.92 190.14 151.15 187.49 148.16 183.49 142.62 182.46 145.6 186.46 141.38 189.11"/><polygon class="cls-12" points="107.75 170.64 112.65 173.43 114.16 178.19 109.3 179.31 104.4 176.52 109.26 175.4 107.75 170.64"/><polygon class="cls-12" points="97.7 130.75 92.81 133.54 91.3 138.3 96.16 139.42 101.06 136.63 96.2 135.51 97.7 130.75"/><polygon class="cls-12" points="464.96 160.34 465.47 154.72 469.17 151.37 472.21 155.33 471.7 160.95 468.66 156.99 464.96 160.34"/><rect class="cls-29" x="254.89" y="86.33" width="31.82" height="89.01"/><rect class="cls-25" x="258.28" y="133.13" width="5.62" height="8.99"/><rect class="cls-25" x="277.7" y="133.13" width="5.62" height="8.99"/><rect class="cls-25" x="258.28" y="146.27" width="5.62" height="8.98"/><rect class="cls-25" x="277.7" y="146.27" width="5.62" height="8.98"/><rect class="cls-25" x="258.28" y="159.71" width="5.62" height="8.98"/><rect class="cls-25" x="277.7" y="159.4" width="5.62" height="8.98"/><rect class="cls-25" x="267.99" y="133.13" width="5.62" height="8.99"/><rect class="cls-25" x="267.99" y="146.27" width="5.62" height="8.98"/><rect class="cls-25" x="267.99" y="159.4" width="5.62" height="8.98"/><rect class="cls-25" x="258.28" y="93.25" width="5.62" height="8.99"/><rect class="cls-25" x="277.7" y="93.25" width="5.62" height="8.99"/><rect class="cls-25" x="258.28" y="106.39" width="5.62" height="8.98"/><rect class="cls-25" x="277.7" y="106.39" width="5.62" height="8.98"/><rect class="cls-25" x="258.28" y="119.83" width="5.62" height="8.98"/><rect class="cls-25" x="277.7" y="119.52" width="5.62" height="8.98"/><rect class="cls-25" x="267.99" y="93.25" width="5.62" height="8.99"/><rect class="cls-25" x="267.99" y="106.39" width="5.62" height="8.98"/><rect class="cls-25" x="267.99" y="119.52" width="5.62" height="8.98"/><rect class="cls-30" x="222.36" y="97.22" width="19.44" height="75.68"/><rect class="cls-14" x="224.43" y="137.01" width="3.43" height="7.64"/><rect class="cls-14" x="236.3" y="137.01" width="3.43" height="7.64"/><rect class="cls-14" x="224.43" y="148.18" width="3.43" height="7.64"/><rect class="cls-14" x="236.3" y="148.18" width="3.43" height="7.64"/><rect class="cls-14" x="224.43" y="159.61" width="3.43" height="7.64"/><rect class="cls-14" x="236.3" y="159.35" width="3.43" height="7.64"/><rect class="cls-14" x="230.37" y="137.01" width="3.43" height="7.64"/><rect class="cls-14" x="230.37" y="148.18" width="3.43" height="7.64"/><rect class="cls-14" x="230.37" y="159.35" width="3.43" height="7.64"/><rect class="cls-14" x="224.43" y="103.1" width="3.43" height="7.64"/><rect class="cls-14" x="236.3" y="103.1" width="3.43" height="7.64"/><rect class="cls-14" x="224.43" y="114.28" width="3.43" height="7.64"/><rect class="cls-14" x="236.3" y="114.28" width="3.43" height="7.64"/><rect class="cls-14" x="224.43" y="125.7" width="3.43" height="7.64"/><rect class="cls-14" x="236.3" y="125.44" width="3.43" height="7.64"/><rect class="cls-14" x="230.37" y="103.1" width="3.43" height="7.64"/><rect class="cls-14" x="230.37" y="114.28" width="3.43" height="7.64"/><rect class="cls-14" x="230.37" y="125.44" width="3.43" height="7.64"/><rect class="cls-31" x="297.55" y="100.54" width="23.82" height="71.67"/><rect class="cls-32" x="300.09" y="138.23" width="4.21" height="7.24"/><rect class="cls-32" x="314.62" y="138.23" width="4.21" height="7.24"/><rect class="cls-32" x="300.09" y="148.81" width="4.21" height="7.23"/><rect class="cls-32" x="314.62" y="148.81" width="4.21" height="7.23"/><rect class="cls-32" x="300.09" y="159.63" width="4.21" height="7.23"/><rect class="cls-32" x="314.62" y="159.39" width="4.21" height="7.23"/><rect class="cls-32" x="307.35" y="138.23" width="4.21" height="7.24"/><rect class="cls-32" x="307.35" y="148.81" width="4.21" height="7.23"/><rect class="cls-32" x="307.35" y="159.39" width="4.21" height="7.23"/><rect class="cls-32" x="300.09" y="106.11" width="4.21" height="7.24"/><rect class="cls-32" x="314.62" y="106.11" width="4.21" height="7.24"/><rect class="cls-32" x="300.09" y="116.7" width="4.21" height="7.23"/><rect class="cls-32" x="314.62" y="116.7" width="4.21" height="7.23"/><rect class="cls-32" x="300.09" y="127.52" width="4.21" height="7.23"/><rect class="cls-32" x="314.62" y="127.27" width="4.21" height="7.23"/><rect class="cls-32" x="307.35" y="106.11" width="4.21" height="7.24"/><rect class="cls-32" x="307.35" y="116.7" width="4.21" height="7.23"/><rect class="cls-32" x="307.35" y="127.27" width="4.21" height="7.23"/><path class="cls-12" d="M235.11,173.29c0-21.73,0-43.92,0-44.14a.37.37,0,0,0,0-.08,1.54,1.54,0,0,1,.13-.61,2.32,2.32,0,0,1,.91-.89,2.67,2.67,0,0,1,.34-.17h17.39a2.56,2.56,0,0,1,.72.07,2.27,2.27,0,0,1,1.06.57,1.71,1.71,0,0,1,.4.62v48.85H235V173.7h.15Z"/><path class="cls-12" d="M311.28,169c0-21.72,0-43.91,0-44.13a.44.44,0,0,0,0-.09,1.5,1.5,0,0,1,.13-.6,2.25,2.25,0,0,1,.91-.89,2.94,2.94,0,0,1,.34-.18H330a2.56,2.56,0,0,1,.72.07,2.27,2.27,0,0,1,1.06.57,1.65,1.65,0,0,1,.4.63v48.84h-21.1v-3.8h.16Z"/><rect class="cls-14" x="238.27" y="154.37" width="3.25" height="5.32"/><rect class="cls-14" x="249.49" y="154.37" width="3.25" height="5.32"/><rect class="cls-14" x="238.27" y="162.15" width="3.25" height="5.32"/><rect class="cls-14" x="249.49" y="162.15" width="3.25" height="5.32"/><rect class="cls-14" x="238.27" y="170.1" width="3.25" height="5.32"/><rect class="cls-14" x="249.49" y="169.92" width="3.25" height="5.32"/><rect class="cls-14" x="243.88" y="154.37" width="3.24" height="5.32"/><rect class="cls-14" x="243.88" y="162.15" width="3.24" height="5.32"/><rect class="cls-14" x="243.88" y="169.92" width="3.24" height="5.32"/><rect class="cls-14" x="238.27" y="130.76" width="3.25" height="5.32"/><rect class="cls-14" x="249.49" y="130.76" width="3.25" height="5.32"/><rect class="cls-14" x="238.27" y="138.54" width="3.25" height="5.32"/><rect class="cls-14" x="249.49" y="138.54" width="3.25" height="5.32"/><rect class="cls-14" x="238.27" y="146.49" width="3.25" height="5.32"/><rect class="cls-14" x="249.49" y="146.31" width="3.25" height="5.32"/><rect class="cls-14" x="243.88" y="130.76" width="3.24" height="5.32"/><rect class="cls-14" x="243.88" y="138.54" width="3.24" height="5.32"/><rect class="cls-14" x="243.88" y="146.31" width="3.24" height="5.32"/><rect class="cls-14" x="314.52" y="150.1" width="3.25" height="5.32"/><rect class="cls-14" x="325.73" y="150.1" width="3.25" height="5.32"/><rect class="cls-14" x="314.52" y="157.88" width="3.25" height="5.32"/><rect class="cls-14" x="325.73" y="157.88" width="3.25" height="5.32"/><rect class="cls-14" x="314.52" y="165.84" width="3.25" height="5.32"/><rect class="cls-14" x="325.73" y="165.65" width="3.25" height="5.32"/><rect class="cls-14" x="320.12" y="150.1" width="3.24" height="5.32"/><rect class="cls-14" x="320.12" y="157.88" width="3.24" height="5.32"/><rect class="cls-14" x="320.12" y="165.65" width="3.24" height="5.32"/><rect class="cls-14" x="314.52" y="126.49" width="3.25" height="5.32"/><rect class="cls-14" x="325.73" y="126.49" width="3.25" height="5.32"/><rect class="cls-14" x="314.52" y="134.27" width="3.25" height="5.32"/><rect class="cls-14" x="325.73" y="134.27" width="3.25" height="5.32"/><rect class="cls-14" x="314.52" y="142.23" width="3.25" height="5.32"/><rect class="cls-14" x="325.73" y="142.05" width="3.25" height="5.32"/><rect class="cls-14" x="320.12" y="126.49" width="3.24" height="5.32"/><rect class="cls-14" x="320.12" y="134.27" width="3.24" height="5.32"/><rect class="cls-14" x="320.12" y="142.05" width="3.24" height="5.32"/><path class="cls-13" d="M205.5,172.64c0-25,0-35.28,0-35.54V137a1.93,1.93,0,0,1,.12-.69,2.44,2.44,0,0,1,.92-1,2.9,2.9,0,0,1,.33-.2h17.39a2.27,2.27,0,0,1,.72.08,2.11,2.11,0,0,1,1.06.66,2,2,0,0,1,.4.72v41H205.35v-4.39h.15Z"/><path class="cls-28" d="M226.4,160.38h19.12v19.24l-19.12,0Z"/><path class="cls-27" d="M226.44,157.5v3h19.08l.34-.75a2,2,0,0,0-.07-1.52,2.06,2.06,0,0,0-.54-.69Z"/><path class="cls-10" d="M249.25,178.79c0-19.19,0-28.46,0-28.48h0v-.07a1.18,1.18,0,0,1,.13-.56,2.13,2.13,0,0,1,.91-.82,3.57,3.57,0,0,1,.33-.17H268a2.93,2.93,0,0,1,.71.07,2.16,2.16,0,0,1,1.06.53,1.32,1.32,0,0,1,.4.57v32.84l-20.9,0C249.28,181.37,249.27,180.08,249.25,178.79Z"/><path class="cls-13" d="M281.67,175.17c0-38.7,0-54.54,0-54.93v-.16a4,4,0,0,1,.12-1.07,3.68,3.68,0,0,1,.92-1.59,2.85,2.85,0,0,1,.33-.31h17.39a1.54,1.54,0,0,1,.72.13,2.32,2.32,0,0,1,1.06,1,3.72,3.72,0,0,1,.4,1.1v63.33H281.52v-6.78h.15Z"/><path class="cls-28" d="M302.57,160.38h19.12v19.24l-19.12,0Z"/><path class="cls-27" d="M302.61,157.5v3h19.08c.11-.25.22-.5.34-.75a2,2,0,0,0-.07-1.52,2.17,2.17,0,0,0-.54-.69Z"/><path class="cls-10" d="M325.42,177c0-19.19,0-28.46,0-28.48h0v-.08a1.27,1.27,0,0,1,.12-.56,2.21,2.21,0,0,1,.92-.82,1.9,1.9,0,0,1,.33-.16h17.4a2.83,2.83,0,0,1,.71.06,2.25,2.25,0,0,1,1.06.53,1.53,1.53,0,0,1,.4.57v32.84l-20.9,0C325.45,179.55,325.43,178.25,325.42,177Z"/><rect class="cls-19" x="329.83" y="150.92" width="2.66" height="6.29"/><rect class="cls-19" x="339" y="150.92" width="2.66" height="6.29"/><rect class="cls-19" x="329.83" y="160.11" width="2.66" height="6.28"/><rect class="cls-19" x="339" y="160.11" width="2.66" height="6.28"/><rect class="cls-19" x="329.83" y="169.51" width="2.66" height="6.28"/><rect class="cls-19" x="339" y="169.3" width="2.66" height="6.28"/><rect class="cls-19" x="334.41" y="150.92" width="2.65" height="6.29"/><rect class="cls-19" x="334.41" y="160.11" width="2.65" height="6.28"/><rect class="cls-19" x="334.41" y="169.3" width="2.65" height="6.28"/><rect class="cls-19" x="253.84" y="152.75" width="2.66" height="6.29"/><rect class="cls-19" x="263.02" y="152.75" width="2.66" height="6.29"/><rect class="cls-19" x="253.84" y="161.94" width="2.66" height="6.28"/><rect class="cls-19" x="263.02" y="161.94" width="2.66" height="6.28"/><rect class="cls-19" x="253.84" y="171.34" width="2.66" height="6.28"/><rect class="cls-19" x="263.02" y="171.13" width="2.66" height="6.28"/><rect class="cls-19" x="258.43" y="152.75" width="2.65" height="6.29"/><rect class="cls-19" x="258.43" y="161.94" width="2.65" height="6.28"/><rect class="cls-19" x="258.43" y="171.13" width="2.65" height="6.28"/><rect class="cls-19" x="286.45" y="151.18" width="2.66" height="6.59"/><rect class="cls-19" x="295.62" y="151.18" width="2.66" height="6.59"/><rect class="cls-19" x="286.45" y="160.82" width="2.66" height="6.59"/><rect class="cls-19" x="295.62" y="160.82" width="2.66" height="6.59"/><rect class="cls-19" x="286.45" y="170.68" width="2.66" height="6.59"/><rect class="cls-19" x="295.62" y="170.45" width="2.66" height="6.59"/><rect class="cls-19" x="291.03" y="151.18" width="2.65" height="6.59"/><rect class="cls-19" x="291.03" y="160.82" width="2.65" height="6.59"/><rect class="cls-19" x="291.03" y="170.45" width="2.65" height="6.59"/><rect class="cls-19" x="286.45" y="122.43" width="2.66" height="6.59"/><rect class="cls-19" x="295.62" y="122.43" width="2.66" height="6.59"/><rect class="cls-19" x="286.45" y="132.07" width="2.66" height="6.59"/><rect class="cls-19" x="295.62" y="132.07" width="2.66" height="6.59"/><rect class="cls-19" x="286.45" y="141.93" width="2.66" height="6.59"/><rect class="cls-19" x="295.62" y="141.7" width="2.66" height="6.59"/><rect class="cls-19" x="291.03" y="122.43" width="2.65" height="6.59"/><rect class="cls-19" x="291.03" y="132.07" width="2.65" height="6.59"/><rect class="cls-19" x="291.03" y="141.7" width="2.65" height="6.59"/><rect class="cls-19" x="210.21" y="157.12" width="2.66" height="4.26"/><rect class="cls-19" x="219.38" y="157.12" width="2.66" height="4.26"/><rect class="cls-19" x="210.21" y="163.36" width="2.66" height="4.26"/><rect class="cls-19" x="219.38" y="163.36" width="2.66" height="4.26"/><rect class="cls-19" x="210.21" y="169.74" width="2.66" height="4.26"/><rect class="cls-19" x="219.38" y="169.59" width="2.66" height="4.26"/><rect class="cls-19" x="214.79" y="157.12" width="2.65" height="4.26"/><rect class="cls-19" x="214.79" y="163.36" width="2.65" height="4.26"/><rect class="cls-19" x="214.79" y="169.59" width="2.65" height="4.26"/><rect class="cls-19" x="210.21" y="138.52" width="2.66" height="4.26"/><rect class="cls-19" x="219.38" y="138.52" width="2.66" height="4.26"/><rect class="cls-19" x="210.21" y="144.76" width="2.66" height="4.26"/><rect class="cls-19" x="219.38" y="144.76" width="2.66" height="4.26"/><rect class="cls-19" x="210.21" y="151.13" width="2.66" height="4.26"/><rect class="cls-19" x="219.38" y="150.99" width="2.66" height="4.26"/><rect class="cls-19" x="214.79" y="138.52" width="2.65" height="4.26"/><rect class="cls-19" x="214.79" y="144.76" width="2.65" height="4.26"/><rect class="cls-19" x="214.79" y="150.99" width="2.65" height="4.26"/><rect class="cls-19" x="306.16" y="162.84" width="2.66" height="3.56"/><rect class="cls-19" x="315.34" y="162.84" width="2.66" height="3.56"/><rect class="cls-19" x="306.16" y="168.04" width="2.66" height="3.55"/><rect class="cls-19" x="315.34" y="168.04" width="2.66" height="3.55"/><rect class="cls-19" x="306.16" y="173.36" width="2.66" height="3.56"/><rect class="cls-19" x="315.34" y="173.24" width="2.66" height="3.56"/><rect class="cls-19" x="310.75" y="162.84" width="2.65" height="3.56"/><rect class="cls-19" x="310.75" y="168.04" width="2.65" height="3.55"/><rect class="cls-19" x="310.75" y="173.24" width="2.65" height="3.56"/><rect class="cls-19" x="229.92" y="162.84" width="2.66" height="3.56"/><rect class="cls-19" x="239.1" y="162.84" width="2.66" height="3.56"/><rect class="cls-19" x="229.92" y="168.04" width="2.66" height="3.55"/><rect class="cls-19" x="239.1" y="168.04" width="2.66" height="3.55"/><rect class="cls-19" x="229.92" y="173.36" width="2.66" height="3.56"/><rect class="cls-19" x="239.1" y="173.23" width="2.66" height="3.56"/><rect class="cls-19" x="234.51" y="162.84" width="2.65" height="3.56"/><rect class="cls-19" x="234.51" y="168.04" width="2.65" height="3.55"/><rect class="cls-19" x="234.51" y="173.23" width="2.65" height="3.56"/></svg>