<?xml version="1.0" encoding="UTF-8" standalone="no"?>
<!DOCTYPE svg PUBLIC "-//W3C//DTD SVG 1.1//EN"
 "http://www.w3.org/Graphics/SVG/1.1/DTD/svg11.dtd">
<!-- Generated by graphviz version 2.43.0 (0)
 -->
<!-- Title: MyGraph Pages: 1 -->
<svg width="2029pt" height="506pt"
 viewBox="0.00 0.00 2029.26 505.69" xmlns="http://www.w3.org/2000/svg" xmlns:xlink="http://www.w3.org/1999/xlink">
<g id="graph0" class="graph" transform="scale(1 1) rotate(0) translate(4 501.69)">
<title>MyGraph</title>
<polygon fill="white" stroke="transparent" points="-4,4 -4,-501.69 2025.26,-501.69 2025.26,4 -4,4"/>
<g id="clust1" class="cluster">
<title>cluster_ws</title>
<polygon fill="none" stroke="black" points="8,-129.69 8,-204.69 621.17,-204.69 621.17,-129.69 8,-129.69"/>
<text text-anchor="middle" x="314.58" y="-189.49" font-family="Times,serif" font-size="14.00">Water Supply</text>
</g>
<g id="clust2" class="cluster">
<title>cluster_ww</title>
<polygon fill="none" stroke="black" points="798.76,-129.69 798.76,-258.69 1316.42,-258.69 1316.42,-129.69 798.76,-129.69"/>
<text text-anchor="middle" x="1057.59" y="-243.49" font-family="Times,serif" font-size="14.00">Wastewater</text>
</g>
<g id="clust4" class="cluster">
<title>cluster_dis</title>
<polygon fill="none" stroke="black" points="1342.62,-29.69 1342.62,-176.69 1858.38,-176.69 1858.38,-29.69 1342.62,-29.69"/>
<text text-anchor="middle" x="1600.5" y="-161.49" font-family="Times,serif" font-size="14.00">Discharge</text>
</g>
<g id="clust5" class="cluster">
<title>cluster_sm</title>
<polygon fill="none" stroke="black" points="1337.42,-252.69 1337.42,-489.69 1776.48,-489.69 1776.48,-252.69 1337.42,-252.69"/>
<text text-anchor="middle" x="1556.95" y="-474.49" font-family="Times,serif" font-size="14.00">Sludge Management</text>
</g>
<g id="clust8" class="cluster">
<title>cluster_legend</title>
<polygon fill="none" stroke="black" points="45.34,-233.69 45.34,-470.69 417.48,-470.69 417.48,-233.69 45.34,-233.69"/>
<text text-anchor="middle" x="231.41" y="-455.49" font-family="Times,serif" font-size="14.00">Legend</text>
</g>
<!-- wsa -->
<g id="node1" class="node">
<title>wsa</title>
<ellipse fill="none" stroke="black" cx="80.34" cy="-155.69" rx="64.19" ry="18"/>
<text text-anchor="middle" x="80.34" y="-151.99" font-family="Times,serif" font-size="14.00">Abstraction</text>
</g>
<!-- wst -->
<g id="node2" class="node">
<title>wst</title>
<ellipse fill="none" stroke="black" cx="382.48" cy="-155.69" rx="59.59" ry="18"/>
<text text-anchor="middle" x="382.48" y="-151.99" font-family="Times,serif" font-size="14.00">Treatment</text>
</g>
<!-- wsa&#45;&gt;wst -->
<g id="edge1" class="edge">
<title>wsa&#45;&gt;wst</title>
<path fill="none" stroke="blue" d="M145,-155.69C194.1,-155.69 261.92,-155.69 312.35,-155.69"/>
<polygon fill="blue" stroke="blue" points="312.51,-159.19 322.51,-155.69 312.51,-152.19 312.51,-159.19"/>
</g>
<!-- wsd -->
<g id="node3" class="node">
<title>wsd</title>
<ellipse fill="none" stroke="black" cx="546.22" cy="-155.69" rx="66.89" ry="18"/>
<text text-anchor="middle" x="546.22" y="-151.99" font-family="Times,serif" font-size="14.00">Distribution</text>
</g>
<!-- wst&#45;&gt;wsd -->
<g id="edge2" class="edge">
<title>wst&#45;&gt;wsd</title>
<path fill="none" stroke="blue" d="M442.33,-155.69C450.99,-155.69 460.02,-155.69 468.97,-155.69"/>
<polygon fill="blue" stroke="blue" points="469.02,-159.19 479.02,-155.69 469.02,-152.19 469.02,-159.19"/>
</g>
<!-- pop -->
<g id="node4" class="node">
<title>pop</title>
<ellipse fill="none" stroke="black" cx="709.96" cy="-155.69" rx="59.59" ry="18"/>
<text text-anchor="middle" x="709.96" y="-151.99" font-family="Times,serif" font-size="14.00">Population</text>
</g>
<!-- wsd&#45;&gt;pop -->
<g id="edge3" class="edge">
<title>wsd&#45;&gt;pop</title>
<path fill="none" stroke="blue" d="M613.47,-155.69C622.19,-155.69 631.14,-155.69 639.9,-155.69"/>
<polygon fill="blue" stroke="blue" points="640.07,-159.19 650.07,-155.69 640.07,-152.19 640.07,-159.19"/>
</g>
<!-- ww -->
<g id="node5" class="node">
<title>ww</title>
<ellipse fill="none" stroke="black" cx="872.4" cy="-155.69" rx="65.79" ry="18"/>
<text text-anchor="middle" x="872.4" y="-151.99" font-family="Times,serif" font-size="14.00">Wastewater</text>
</g>
<!-- pop&#45;&gt;ww -->
<g id="edge4" class="edge">
<title>pop&#45;&gt;ww</title>
<path fill="none" stroke="blue" d="M769.79,-154.69C778.5,-154.69 787.57,-154.69 796.55,-154.69"/>
<path fill="none" stroke="brown" d="M769.79,-156.69C778.5,-156.69 787.57,-156.69 796.55,-156.69"/>
<polygon fill="blue" stroke="blue" points="796.62,-159.19 806.62,-155.69 796.62,-152.19 796.62,-159.19"/>
</g>
<!-- tra -->
<g id="node6" class="node">
<title>tra</title>
<ellipse fill="none" stroke="black" cx="1031.59" cy="-155.69" rx="56.59" ry="18"/>
<text text-anchor="middle" x="1031.59" y="-151.99" font-family="Times,serif" font-size="14.00">Transport</text>
</g>
<!-- ww&#45;&gt;tra -->
<g id="edge5" class="edge">
<title>ww&#45;&gt;tra</title>
<path fill="none" stroke="blue" d="M938.24,-154.69C946.99,-154.69 955.98,-154.69 964.75,-154.69"/>
<path fill="none" stroke="brown" d="M938.24,-156.69C946.99,-156.69 955.98,-156.69 964.75,-156.69"/>
<polygon fill="blue" stroke="blue" points="964.92,-159.19 974.92,-155.69 964.92,-152.19 964.92,-159.19"/>
</g>
<!-- wwt -->
<g id="node7" class="node">
<title>wwt</title>
<ellipse fill="none" stroke="black" cx="1216.78" cy="-209.69" rx="87.18" ry="18"/>
<text text-anchor="middle" x="1216.78" y="-205.99" font-family="Times,serif" font-size="14.00">Treatment Plant</text>
</g>
<!-- tra&#45;&gt;wwt -->
<g id="edge6" class="edge">
<title>tra&#45;&gt;wwt</title>
<path fill="none" stroke="blue" d="M1073.98,-166.85C1098.32,-174.02 1129.56,-183.23 1156.55,-191.19"/>
<path fill="none" stroke="brown" d="M1073.42,-168.77C1097.75,-175.94 1129,-185.15 1155.99,-193.11"/>
<polygon fill="blue" stroke="blue" points="1155.42,-195.55 1166,-195.02 1157.4,-188.83 1155.42,-195.55"/>
</g>
<!-- ons -->
<g id="node8" class="node">
<title>ons</title>
<ellipse fill="none" stroke="black" cx="1216.78" cy="-155.69" rx="91.78" ry="18"/>
<text text-anchor="middle" x="1216.78" y="-151.99" font-family="Times,serif" font-size="14.00">Onsite Sanitation</text>
</g>
<!-- tra&#45;&gt;ons -->
<g id="edge7" class="edge">
<title>tra&#45;&gt;ons</title>
<path fill="none" stroke="blue" d="M1088.55,-154.69C1096.96,-154.69 1105.84,-154.69 1114.85,-154.69"/>
<path fill="none" stroke="brown" d="M1088.55,-156.69C1096.96,-156.69 1105.84,-156.69 1114.85,-156.69"/>
<polygon fill="blue" stroke="blue" points="1115.05,-159.19 1125.05,-155.69 1115.05,-152.19 1115.05,-159.19"/>
</g>
<!-- riv -->
<g id="node10" class="node">
<title>riv</title>
<ellipse fill="none" stroke="black" cx="1679.44" cy="-64.69" rx="126.64" ry="26.74"/>
<text text-anchor="middle" x="1679.44" y="-68.49" font-family="Times,serif" font-size="14.00">Freshwater, estuarine,</text>
<text text-anchor="middle" x="1679.44" y="-53.49" font-family="Times,serif" font-size="14.00">marine environments</text>
</g>
<!-- tra&#45;&gt;riv -->
<g id="edge8" class="edge">
<title>tra&#45;&gt;riv</title>
<path fill="none" stroke="blue" d="M1071.59,-141.83C1087.94,-136.84 1107.18,-131.45 1124.93,-127.71 1267.98,-97.6 1434.89,-80.74 1547.73,-71.97"/>
<path fill="none" stroke="brown" d="M1072.17,-143.74C1088.48,-138.76 1107.72,-133.38 1125.34,-129.67 1268.18,-99.59 1435.09,-82.73 1547.89,-73.96"/>
<polygon fill="blue" stroke="blue" points="1548.17,-76.45 1557.88,-72.19 1547.64,-69.47 1548.17,-76.45"/>
</g>
<!-- Atmosphere -->
<g id="node25" class="node">
<title>Atmosphere</title>
<ellipse fill="none" stroke="black" cx="1954.32" cy="-232.69" rx="66.89" ry="18"/>
<text text-anchor="middle" x="1954.32" y="-228.99" font-family="Times,serif" font-size="14.00">Atmosphere</text>
</g>
<!-- tra&#45;&gt;Atmosphere -->
<g id="edge23" class="edge">
<title>tra&#45;&gt;Atmosphere</title>
<path fill="none" stroke="grey" d="M1043.37,-137.79C1068.38,-98.8 1134.44,-9.69 1215.78,-9.69 1215.78,-9.69 1215.78,-9.69 1680.44,-9.69 1759.84,-9.69 1793.53,20.13 1858.38,-25.69 1918.59,-68.24 1941.46,-158.63 1949.44,-204.6"/>
<polygon fill="grey" stroke="grey" points="1945.99,-205.17 1951.04,-214.48 1952.9,-204.05 1945.99,-205.17"/>
</g>
<!-- dis -->
<g id="node9" class="node">
<title>dis</title>
<ellipse fill="none" stroke="black" cx="1408.46" cy="-127.69" rx="57.69" ry="18"/>
<text text-anchor="middle" x="1408.46" y="-123.99" font-family="Times,serif" font-size="14.00">Discharge</text>
</g>
<!-- wwt&#45;&gt;dis -->
<g id="edge10" class="edge">
<title>wwt&#45;&gt;dis</title>
<path fill="none" stroke="blue" d="M1276.33,-196.53C1289.74,-192.73 1303.77,-188.12 1316.42,-182.69 1337.08,-173.82 1358.69,-160.95 1375.66,-149.88"/>
<polygon fill="blue" stroke="blue" points="1377.69,-152.74 1384.09,-144.29 1373.82,-146.9 1377.69,-152.74"/>
</g>
<!-- slu -->
<g id="node12" class="node">
<title>slu</title>
<ellipse fill="none" stroke="black" cx="1408.46" cy="-305.69" rx="63.09" ry="18"/>
<text text-anchor="middle" x="1408.46" y="-301.99" font-family="Times,serif" font-size="14.00">Dry Sludge</text>
</g>
<!-- wwt&#45;&gt;slu -->
<g id="edge13" class="edge">
<title>wwt&#45;&gt;slu</title>
<path fill="none" stroke="brown" d="M1250.82,-226.41C1283.22,-242.81 1332.68,-267.84 1367.33,-285.38"/>
<polygon fill="brown" stroke="brown" points="1366.18,-288.72 1376.68,-290.11 1369.34,-282.47 1366.18,-288.72"/>
</g>
<!-- wwt&#45;&gt;Atmosphere -->
<g id="edge24" class="edge">
<title>wwt&#45;&gt;Atmosphere</title>
<path fill="none" stroke="grey" d="M1303.23,-212.36C1448.1,-216.89 1739.57,-226.01 1877.57,-230.32"/>
<polygon fill="grey" stroke="grey" points="1877.53,-233.82 1887.64,-230.64 1877.75,-226.83 1877.53,-233.82"/>
</g>
<!-- ons&#45;&gt;dis -->
<g id="edge9" class="edge">
<title>ons&#45;&gt;dis</title>
<path fill="none" stroke="blue" d="M1290.57,-144.95C1308.74,-142.26 1328.05,-139.41 1345.63,-136.82"/>
<polygon fill="blue" stroke="blue" points="1346.37,-140.25 1355.75,-135.32 1345.35,-133.32 1346.37,-140.25"/>
</g>
<!-- ons&#45;&gt;slu -->
<g id="edge14" class="edge">
<title>ons&#45;&gt;slu</title>
<path fill="none" stroke="brown" d="M1285.44,-167.73C1296.36,-171.45 1307.11,-176.32 1316.42,-182.69 1321.31,-186.04 1363.59,-244.44 1388.78,-279.55"/>
<polygon fill="brown" stroke="brown" points="1386.11,-281.84 1394.78,-287.93 1391.8,-277.76 1386.11,-281.84"/>
</g>
<!-- ons&#45;&gt;Atmosphere -->
<g id="edge25" class="edge">
<title>ons&#45;&gt;Atmosphere</title>
<path fill="none" stroke="grey" d="M1275.91,-169.55C1295.36,-173.73 1317.23,-177.94 1337.42,-180.69 1567.32,-212.05 1628.19,-185.47 1858.38,-214.69 1869.08,-216.05 1880.4,-217.86 1891.35,-219.81"/>
<polygon fill="grey" stroke="grey" points="1890.8,-223.27 1901.27,-221.64 1892.06,-216.39 1890.8,-223.27"/>
</g>
<!-- dis&#45;&gt;riv -->
<g id="edge11" class="edge">
<title>dis&#45;&gt;riv</title>
<path fill="none" stroke="blue" d="M1451.74,-115.59C1469.25,-110.73 1489.8,-105.22 1508.51,-100.69 1530.59,-95.35 1554.4,-90.03 1577,-85.19"/>
<polygon fill="blue" stroke="blue" points="1577.89,-88.57 1586.94,-83.07 1576.43,-81.73 1577.89,-88.57"/>
</g>
<!-- reu -->
<g id="node11" class="node">
<title>reu</title>
<ellipse fill="none" stroke="black" cx="1679.44" cy="-127.69" rx="170.87" ry="18"/>
<text text-anchor="middle" x="1679.44" y="-123.99" font-family="Times,serif" font-size="14.00">Reuse/recovery (agriculture, soils)</text>
</g>
<!-- dis&#45;&gt;reu -->
<g id="edge12" class="edge">
<title>dis&#45;&gt;reu</title>
<path fill="none" stroke="blue" d="M1466.51,-127.69C1476.31,-127.69 1486.94,-127.69 1498.04,-127.69"/>
<polygon fill="blue" stroke="blue" points="1498.37,-131.19 1508.37,-127.69 1498.37,-124.19 1498.37,-131.19"/>
</g>
<!-- riv&#45;&gt;Atmosphere -->
<g id="edge26" class="edge">
<title>riv&#45;&gt;Atmosphere</title>
<path fill="none" stroke="grey" d="M1796.39,-75.13C1818.14,-80.61 1839.84,-88.72 1858.38,-100.69 1897.96,-126.26 1926.29,-174.61 1941.21,-205.16"/>
<polygon fill="grey" stroke="grey" points="1938.15,-206.86 1945.59,-214.4 1944.47,-203.86 1938.15,-206.86"/>
</g>
<!-- reu&#45;&gt;Atmosphere -->
<g id="edge27" class="edge">
<title>reu&#45;&gt;Atmosphere</title>
<path fill="none" stroke="grey" d="M1756.61,-143.87C1791.74,-152.63 1833.51,-164.93 1869.38,-180.69 1887.48,-188.65 1906.31,-199.99 1921.54,-210.06"/>
<polygon fill="grey" stroke="grey" points="1919.81,-213.11 1930.06,-215.8 1923.73,-207.31 1919.81,-213.11"/>
</g>
<!-- inc -->
<g id="node13" class="node">
<title>inc</title>
<ellipse fill="none" stroke="black" cx="1679.44" cy="-332.69" rx="66.89" ry="18"/>
<text text-anchor="middle" x="1679.44" y="-328.99" font-family="Times,serif" font-size="14.00">Incineration</text>
</g>
<!-- slu&#45;&gt;inc -->
<g id="edge15" class="edge">
<title>slu&#45;&gt;inc</title>
<path fill="none" stroke="brown" d="M1468.16,-311.58C1508.8,-315.66 1563.15,-321.12 1606.42,-325.46"/>
<polygon fill="brown" stroke="brown" points="1606.3,-328.97 1616.6,-326.48 1607,-322 1606.3,-328.97"/>
</g>
<!-- laf -->
<g id="node14" class="node">
<title>laf</title>
<ellipse fill="none" stroke="black" cx="1679.44" cy="-278.69" rx="59.59" ry="18"/>
<text text-anchor="middle" x="1679.44" y="-274.99" font-family="Times,serif" font-size="14.00">Landfilling</text>
</g>
<!-- slu&#45;&gt;laf -->
<g id="edge16" class="edge">
<title>slu&#45;&gt;laf</title>
<path fill="none" stroke="brown" d="M1468.16,-299.8C1510.61,-295.54 1568.01,-289.78 1612.12,-285.35"/>
<polygon fill="brown" stroke="brown" points="1612.57,-288.82 1622.17,-284.34 1611.87,-281.86 1612.57,-288.82"/>
</g>
<!-- lap -->
<g id="node15" class="node">
<title>lap</title>
<ellipse fill="none" stroke="black" cx="1679.44" cy="-440.69" rx="89.08" ry="18"/>
<text text-anchor="middle" x="1679.44" y="-436.99" font-family="Times,serif" font-size="14.00">Land Application</text>
</g>
<!-- slu&#45;&gt;lap -->
<g id="edge17" class="edge">
<title>slu&#45;&gt;lap</title>
<path fill="none" stroke="brown" d="M1420.33,-323.69C1436.31,-348.41 1468.62,-392.25 1508.51,-413.69 1530.48,-425.5 1556.19,-432.47 1580.88,-436.52"/>
<polygon fill="brown" stroke="brown" points="1580.6,-440.01 1591.01,-438.03 1581.63,-433.09 1580.6,-440.01"/>
</g>
<!-- com -->
<g id="node16" class="node">
<title>com</title>
<ellipse fill="none" stroke="black" cx="1679.44" cy="-386.69" rx="66.09" ry="18"/>
<text text-anchor="middle" x="1679.44" y="-382.99" font-family="Times,serif" font-size="14.00">Composting</text>
</g>
<!-- slu&#45;&gt;com -->
<g id="edge18" class="edge">
<title>slu&#45;&gt;com</title>
<path fill="none" stroke="brown" d="M1434.02,-322.18C1453.42,-334.42 1481.63,-350.53 1508.51,-359.69 1539.37,-370.21 1574.81,-376.66 1605.32,-380.61"/>
<polygon fill="brown" stroke="brown" points="1605.11,-384.11 1615.46,-381.86 1605.96,-377.16 1605.11,-384.11"/>
</g>
<!-- inc&#45;&gt;Atmosphere -->
<g id="edge28" class="edge">
<title>inc&#45;&gt;Atmosphere</title>
<path fill="none" stroke="grey" d="M1745.99,-330.61C1780.57,-327.59 1823.02,-320.76 1858.38,-305.69 1884.91,-294.38 1910.58,-273.88 1928.51,-257.48"/>
<polygon fill="grey" stroke="grey" points="1931.29,-259.68 1936.19,-250.28 1926.5,-254.57 1931.29,-259.68"/>
</g>
<!-- laf&#45;&gt;Atmosphere -->
<g id="edge29" class="edge">
<title>laf&#45;&gt;Atmosphere</title>
<path fill="none" stroke="grey" d="M1732.09,-269.98C1776.09,-262.57 1839.57,-251.87 1887.26,-243.83"/>
<polygon fill="grey" stroke="grey" points="1887.91,-247.27 1897.18,-242.15 1886.74,-240.36 1887.91,-247.27"/>
</g>
<!-- lap&#45;&gt;Atmosphere -->
<g id="edge30" class="edge">
<title>lap&#45;&gt;Atmosphere</title>
<path fill="none" stroke="grey" d="M1767.97,-443.21C1798.9,-440.23 1832.42,-432.19 1858.38,-413.69 1910.61,-376.47 1936.42,-301.57 1947.07,-260.76"/>
<polygon fill="grey" stroke="grey" points="1950.5,-261.47 1949.52,-250.92 1943.71,-259.78 1950.5,-261.47"/>
</g>
<!-- com&#45;&gt;Atmosphere -->
<g id="edge31" class="edge">
<title>com&#45;&gt;Atmosphere</title>
<path fill="none" stroke="grey" d="M1745.79,-388.5C1781.32,-386.72 1824.74,-379.84 1858.38,-359.69 1897.8,-336.07 1926.18,-289.26 1941.16,-259.54"/>
<polygon fill="grey" stroke="grey" points="1944.31,-261.06 1945.54,-250.54 1938.01,-257.99 1944.31,-261.06"/>
</g>
<!-- legend_a -->
<g id="node17" class="node">
<title>legend_a</title>
</g>
<!-- legend_b -->
<g id="node18" class="node">
<title>legend_b</title>
</g>
<!-- legend_a&#45;&gt;legend_b -->
<g id="edge19" class="edge">
<title>legend_a&#45;&gt;legend_b</title>
<path fill="none" stroke="blue" d="M107.45,-421.69C161.11,-421.69 283.88,-421.69 345.22,-421.69"/>
<polygon fill="blue" stroke="blue" points="345.22,-425.19 355.22,-421.69 345.22,-418.19 345.22,-425.19"/>
<text text-anchor="middle" x="233.69" y="-425.49" font-family="Times,serif" font-size="14.00">water</text>
</g>
<!-- legend_c -->
<g id="node19" class="node">
<title>legend_c</title>
</g>
<!-- legend_d -->
<g id="node20" class="node">
<title>legend_d</title>
</g>
<!-- legend_c&#45;&gt;legend_d -->
<g id="edge20" class="edge">
<title>legend_c&#45;&gt;legend_d</title>
<path fill="none" stroke="brown" d="M107.45,-367.69C161.11,-367.69 283.88,-367.69 345.22,-367.69"/>
<polygon fill="brown" stroke="brown" points="345.22,-371.19 355.22,-367.69 345.22,-364.19 345.22,-371.19"/>
<text text-anchor="middle" x="233.69" y="-371.49" font-family="Times,serif" font-size="14.00">sludge</text>
</g>
<!-- legend_e -->
<g id="node21" class="node">
<title>legend_e</title>
</g>
<!-- legend_f -->
<g id="node22" class="node">
<title>legend_f</title>
</g>
<!-- legend_e&#45;&gt;legend_f -->
<g id="edge21" class="edge">
<title>legend_e&#45;&gt;legend_f</title>
<path fill="none" stroke="blue" d="M107.45,-312.69C161.11,-312.69 283.88,-312.69 345.22,-312.69"/>
<path fill="none" stroke="brown" d="M107.45,-314.69C161.11,-314.69 283.88,-314.69 345.22,-314.69"/>
<polygon fill="blue" stroke="blue" points="345.22,-317.19 355.22,-313.69 345.22,-310.19 345.22,-317.19"/>
<text text-anchor="middle" x="233.69" y="-317.49" font-family="Times,serif" font-size="14.00">wastewater</text>
</g>
<!-- legend_g -->
<g id="node23" class="node">
<title>legend_g</title>
</g>
<!-- legend_h -->
<g id="node24" class="node">
<title>legend_h</title>
</g>
<!-- legend_g&#45;&gt;legend_h -->
<g id="edge22" class="edge">
<title>legend_g&#45;&gt;legend_h</title>
<path fill="none" stroke="grey" d="M107.45,-259.69C161.11,-259.69 283.88,-259.69 345.22,-259.69"/>
<polygon fill="grey" stroke="grey" points="345.22,-263.19 355.22,-259.69 345.22,-256.19 345.22,-263.19"/>
<text text-anchor="middle" x="233.69" y="-263.49" font-family="Times,serif" font-size="14.00">direct ghg emission</text>
</g>
</g>
</svg>
