<?xml version="1.0" encoding="UTF-8" standalone="no"?>
<!DOCTYPE svg PUBLIC "-//W3C//DTD SVG 1.1//EN"
 "http://www.w3.org/Graphics/SVG/1.1/DTD/svg11.dtd">
<!-- Generated by graphviz version 2.43.0 (0)
 -->
<!-- Title: MyGraph Pages: 1 -->
<svg width="2050pt" height="520pt"
 viewBox="0.00 0.00 2049.86 520.33" xmlns="http://www.w3.org/2000/svg" xmlns:xlink="http://www.w3.org/1999/xlink">
<g id="graph0" class="graph" transform="scale(1 1) rotate(0) translate(4 516.33)">
<title>MyGraph</title>
<polygon fill="white" stroke="transparent" points="-4,4 -4,-516.33 2045.86,-516.33 2045.86,4 -4,4"/>
<g id="clust1" class="cluster">
<title>cluster_ws</title>
<polygon fill="none" stroke="black" points="8,-72.33 8,-147.33 574.17,-147.33 574.17,-72.33 8,-72.33"/>
<text text-anchor="middle" x="291.08" y="-132.13" font-family="Times,serif" font-size="14.00">Water Supply</text>
</g>
<g id="clust2" class="cluster">
<title>cluster_ww</title>
<polygon fill="none" stroke="black" points="751.76,-27.33 751.76,-210.33 1337.01,-210.33 1337.01,-27.33 751.76,-27.33"/>
<text text-anchor="middle" x="1044.38" y="-195.13" font-family="Times,serif" font-size="14.00">Wastewater</text>
</g>
<g id="clust6" class="cluster">
<title>cluster_dis</title>
<polygon fill="none" stroke="black" points="1363.21,-357.33 1363.21,-504.33 1878.97,-504.33 1878.97,-357.33 1363.21,-357.33"/>
<text text-anchor="middle" x="1621.09" y="-489.13" font-family="Times,serif" font-size="14.00">Discharge</text>
</g>
<g id="clust7" class="cluster">
<title>cluster_sm</title>
<polygon fill="none" stroke="black" points="1358.01,-112.33 1358.01,-349.33 1797.08,-349.33 1797.08,-112.33 1358.01,-112.33"/>
<text text-anchor="middle" x="1577.54" y="-334.13" font-family="Times,serif" font-size="14.00">Sludge Management</text>
</g>
<g id="clust10" class="cluster">
<title>cluster_legend</title>
<polygon fill="none" stroke="black" points="45.34,-239.33 45.34,-476.33 370.48,-476.33 370.48,-239.33 45.34,-239.33"/>
<text text-anchor="middle" x="207.91" y="-461.13" font-family="Times,serif" font-size="14.00">Legend</text>
</g>
<!-- wsa -->
<g id="node1" class="node">
<title>wsa</title>
<ellipse fill="none" stroke="black" cx="80.34" cy="-98.33" rx="64.19" ry="18"/>
<text text-anchor="middle" x="80.34" y="-94.63" font-family="Times,serif" font-size="14.00">Abstraction</text>
</g>
<!-- wst -->
<g id="node2" class="node">
<title>wst</title>
<ellipse fill="none" stroke="black" cx="335.48" cy="-98.33" rx="59.59" ry="18"/>
<text text-anchor="middle" x="335.48" y="-94.63" font-family="Times,serif" font-size="14.00">Treatment</text>
</g>
<!-- wsa&#45;&gt;wst -->
<g id="edge1" class="edge">
<title>wsa&#45;&gt;wst</title>
<path fill="none" stroke="blue" d="M144.9,-98.33C181.58,-98.33 227.74,-98.33 265.32,-98.33"/>
<polygon fill="blue" stroke="blue" points="265.68,-101.83 275.68,-98.33 265.68,-94.83 265.68,-101.83"/>
</g>
<!-- wsd -->
<g id="node3" class="node">
<title>wsd</title>
<ellipse fill="none" stroke="black" cx="499.22" cy="-98.33" rx="66.89" ry="18"/>
<text text-anchor="middle" x="499.22" y="-94.63" font-family="Times,serif" font-size="14.00">Distribution</text>
</g>
<!-- wst&#45;&gt;wsd -->
<g id="edge2" class="edge">
<title>wst&#45;&gt;wsd</title>
<path fill="none" stroke="blue" d="M395.33,-98.33C403.99,-98.33 413.02,-98.33 421.97,-98.33"/>
<polygon fill="blue" stroke="blue" points="422.02,-101.83 432.02,-98.33 422.02,-94.83 422.02,-101.83"/>
</g>
<!-- pop -->
<g id="node4" class="node">
<title>pop</title>
<ellipse fill="none" stroke="black" cx="662.96" cy="-98.33" rx="59.59" ry="18"/>
<text text-anchor="middle" x="662.96" y="-94.63" font-family="Times,serif" font-size="14.00">Population</text>
</g>
<!-- wsd&#45;&gt;pop -->
<g id="edge3" class="edge">
<title>wsd&#45;&gt;pop</title>
<path fill="none" stroke="blue" d="M566.47,-98.33C575.19,-98.33 584.14,-98.33 592.9,-98.33"/>
<polygon fill="blue" stroke="blue" points="593.07,-101.83 603.07,-98.33 593.07,-94.83 593.07,-101.83"/>
</g>
<!-- ww -->
<g id="node5" class="node">
<title>ww</title>
<ellipse fill="none" stroke="black" cx="825.4" cy="-98.33" rx="65.79" ry="18"/>
<text text-anchor="middle" x="825.4" y="-94.63" font-family="Times,serif" font-size="14.00">Wastewater</text>
</g>
<!-- pop&#45;&gt;ww -->
<g id="edge4" class="edge">
<title>pop&#45;&gt;ww</title>
<path fill="none" stroke="blue" d="M722.79,-97.33C731.5,-97.33 740.57,-97.33 749.55,-97.33"/>
<path fill="none" stroke="brown" d="M722.79,-99.33C731.5,-99.33 740.57,-99.33 749.55,-99.33"/>
<polygon fill="blue" stroke="blue" points="749.62,-101.83 759.62,-98.33 749.62,-94.83 749.62,-101.83"/>
</g>
<!-- unc -->
<g id="node6" class="node">
<title>unc</title>
<ellipse fill="none" stroke="black" cx="993.69" cy="-71.33" rx="65.79" ry="18"/>
<text text-anchor="middle" x="993.69" y="-67.63" font-family="Times,serif" font-size="14.00">Uncollected</text>
</g>
<!-- ww&#45;&gt;unc -->
<g id="edge5" class="edge">
<title>ww&#45;&gt;unc</title>
<path fill="none" stroke="blue" d="M882.07,-88.28C896.33,-85.96 911.8,-83.45 926.51,-81.06"/>
<path fill="none" stroke="brown" d="M882.39,-90.25C896.65,-87.94 912.12,-85.43 926.83,-83.04"/>
<polygon fill="blue" stroke="blue" points="927.41,-85.48 936.72,-80.42 926.29,-78.57 927.41,-85.48"/>
</g>
<!-- col -->
<g id="node7" class="node">
<title>col</title>
<ellipse fill="none" stroke="black" cx="993.69" cy="-125.33" rx="53.89" ry="18"/>
<text text-anchor="middle" x="993.69" y="-121.63" font-family="Times,serif" font-size="14.00">Collected</text>
</g>
<!-- ww&#45;&gt;col -->
<g id="edge6" class="edge">
<title>ww&#45;&gt;col</title>
<path fill="none" stroke="blue" d="M882.39,-106.41C899.19,-109.14 917.67,-112.14 934.62,-114.89"/>
<path fill="none" stroke="brown" d="M882.07,-108.38C898.87,-111.11 917.35,-114.11 934.3,-116.86"/>
<polygon fill="blue" stroke="blue" points="934.35,-119.4 944.78,-117.55 935.48,-112.5 934.35,-119.4"/>
</g>
<!-- unt -->
<g id="node8" class="node">
<title>unt</title>
<ellipse fill="none" stroke="black" cx="1212.67" cy="-107.33" rx="116.18" ry="18"/>
<text text-anchor="middle" x="1212.67" y="-103.63" font-family="Times,serif" font-size="14.00">Untreated Wastewater</text>
</g>
<!-- unc&#45;&gt;unt -->
<g id="edge7" class="edge">
<title>unc&#45;&gt;unt</title>
<path fill="none" stroke="blue" d="M1050.45,-79.57C1072.41,-83.21 1098.2,-87.49 1122.64,-91.55"/>
<path fill="none" stroke="brown" d="M1050.12,-81.54C1072.08,-85.19 1097.87,-89.46 1122.31,-93.52"/>
<polygon fill="blue" stroke="blue" points="1122.05,-96.01 1132.49,-94.19 1123.2,-89.1 1122.05,-96.01"/>
</g>
<!-- ons -->
<g id="node10" class="node">
<title>ons</title>
<ellipse fill="none" stroke="black" cx="1212.67" cy="-53.33" rx="91.78" ry="18"/>
<text text-anchor="middle" x="1212.67" y="-49.63" font-family="Times,serif" font-size="14.00">Onsite Sanitation</text>
</g>
<!-- unc&#45;&gt;ons -->
<g id="edge8" class="edge">
<title>unc&#45;&gt;ons</title>
<path fill="none" stroke="blue" d="M1056.78,-65.18C1075.83,-63.6 1097.23,-61.82 1117.89,-60.11"/>
<path fill="none" stroke="brown" d="M1056.95,-67.17C1076,-65.59 1097.39,-63.81 1118.06,-62.1"/>
<polygon fill="blue" stroke="blue" points="1118.37,-64.58 1128.05,-60.27 1117.79,-57.61 1118.37,-64.58"/>
</g>
<!-- col&#45;&gt;unt -->
<g id="edge9" class="edge">
<title>col&#45;&gt;unt</title>
<path fill="none" stroke="blue" d="M1046.03,-120.07C1062.28,-118.72 1080.92,-117.17 1099.7,-115.62"/>
<path fill="none" stroke="brown" d="M1046.19,-122.06C1062.45,-120.71 1081.09,-119.17 1099.87,-117.61"/>
<polygon fill="blue" stroke="blue" points="1100.23,-120.09 1109.91,-115.77 1099.65,-113.11 1100.23,-120.09"/>
</g>
<!-- wwt -->
<g id="node9" class="node">
<title>wwt</title>
<ellipse fill="none" stroke="black" cx="1212.67" cy="-161.33" rx="87.18" ry="18"/>
<text text-anchor="middle" x="1212.67" y="-157.63" font-family="Times,serif" font-size="14.00">Treatment Plant</text>
</g>
<!-- col&#45;&gt;wwt -->
<g id="edge10" class="edge">
<title>col&#45;&gt;wwt</title>
<path fill="none" stroke="blue" d="M1042.47,-132.24C1069.26,-136.69 1103.37,-142.35 1133.94,-147.42"/>
<path fill="none" stroke="brown" d="M1042.14,-134.22C1068.93,-138.66 1103.04,-144.32 1133.61,-149.39"/>
<polygon fill="blue" stroke="blue" points="1133.56,-151.92 1144,-150.1 1134.7,-145.01 1133.56,-151.92"/>
</g>
<!-- riv -->
<g id="node12" class="node">
<title>riv</title>
<ellipse fill="none" stroke="black" cx="1700.04" cy="-392.33" rx="126.64" ry="26.74"/>
<text text-anchor="middle" x="1700.04" y="-396.13" font-family="Times,serif" font-size="14.00">Freshwater, estuarine,</text>
<text text-anchor="middle" x="1700.04" y="-381.13" font-family="Times,serif" font-size="14.00">marine environments</text>
</g>
<!-- unt&#45;&gt;riv -->
<g id="edge11" class="edge">
<title>unt&#45;&gt;riv</title>
<path fill="none" stroke="blue" d="M1313.12,-115.75C1322.44,-120.13 1330.81,-125.88 1337.76,-133.67 1370.4,-171.21 1324.71,-318.74 1358.73,-352.63 1373.03,-367.53 1477.54,-377.91 1566.95,-384.12"/>
<path fill="none" stroke="brown" d="M1312.27,-117.57C1321.31,-121.78 1329.68,-127.53 1336.26,-134.99 1368.49,-170.61 1322.8,-318.15 1357.3,-354.03 1372.83,-369.52 1477.34,-379.9 1566.81,-386.11"/>
<polygon fill="blue" stroke="blue" points="1566.66,-388.61 1576.87,-385.8 1567.13,-381.62 1566.66,-388.61"/>
</g>
<!-- Atmosphere -->
<g id="node27" class="node">
<title>Atmosphere</title>
<ellipse fill="none" stroke="black" cx="1974.91" cy="-192.33" rx="66.89" ry="18"/>
<text text-anchor="middle" x="1974.91" y="-188.63" font-family="Times,serif" font-size="14.00">Atmosphere</text>
</g>
<!-- unt&#45;&gt;Atmosphere -->
<g id="edge26" class="edge">
<title>unt&#45;&gt;Atmosphere</title>
<path fill="none" stroke="grey" d="M1283,-92.96C1300.66,-89.07 1319.58,-84.72 1337.01,-80.33 1346.42,-77.96 1348.42,-75.82 1358.01,-74.33 1465.15,-57.73 1856.53,-58.3 1878.97,-69.33 1919.39,-89.19 1947.46,-135.45 1962.11,-165.24"/>
<polygon fill="grey" stroke="grey" points="1958.95,-166.74 1966.39,-174.27 1965.27,-163.74 1958.95,-166.74"/>
</g>
<!-- dis -->
<g id="node11" class="node">
<title>dis</title>
<ellipse fill="none" stroke="black" cx="1429.06" cy="-413.33" rx="57.69" ry="18"/>
<text text-anchor="middle" x="1429.06" y="-409.63" font-family="Times,serif" font-size="14.00">Discharge</text>
</g>
<!-- wwt&#45;&gt;dis -->
<g id="edge13" class="edge">
<title>wwt&#45;&gt;dis</title>
<path fill="none" stroke="blue" d="M1221.28,-179.46C1239.34,-220.51 1288.51,-321.67 1358.01,-381.33 1364.5,-386.9 1372.12,-391.69 1379.9,-395.73"/>
<polygon fill="blue" stroke="blue" points="1378.52,-398.95 1389.05,-400.14 1381.56,-392.64 1378.52,-398.95"/>
</g>
<!-- slu -->
<g id="node14" class="node">
<title>slu</title>
<ellipse fill="none" stroke="black" cx="1429.06" cy="-184.33" rx="63.09" ry="18"/>
<text text-anchor="middle" x="1429.06" y="-180.63" font-family="Times,serif" font-size="14.00">Dry Sludge</text>
</g>
<!-- wwt&#45;&gt;slu -->
<g id="edge16" class="edge">
<title>wwt&#45;&gt;slu</title>
<path fill="none" stroke="brown" d="M1290.46,-169.57C1312.97,-171.98 1337.43,-174.61 1359.39,-176.96"/>
<polygon fill="brown" stroke="brown" points="1359.31,-180.48 1369.63,-178.06 1360.06,-173.52 1359.31,-180.48"/>
</g>
<!-- wwt&#45;&gt;Atmosphere -->
<g id="edge27" class="edge">
<title>wwt&#45;&gt;Atmosphere</title>
<path fill="none" stroke="grey" d="M1290.16,-152.96C1306.43,-148.95 1322.93,-143.03 1337.01,-134.33 1349.65,-126.52 1344.61,-114.73 1358.01,-108.33 1462.47,-58.42 1770.71,-67.31 1878.97,-108.33 1909.54,-119.91 1936.6,-146.33 1953.93,-166.47"/>
<polygon fill="grey" stroke="grey" points="1951.43,-168.94 1960.52,-174.39 1956.81,-164.46 1951.43,-168.94"/>
</g>
<!-- ons&#45;&gt;dis -->
<g id="edge12" class="edge">
<title>ons&#45;&gt;dis</title>
<path fill="none" stroke="blue" d="M1301.26,-57.94C1314.91,-62.44 1327.59,-69.5 1337.01,-80.33 1376.95,-126.23 1330.48,-299.07 1358.01,-353.33 1365.74,-368.56 1379.18,-381.51 1392.24,-391.44"/>
<polygon fill="blue" stroke="blue" points="1390.54,-394.53 1400.7,-397.52 1394.62,-388.84 1390.54,-394.53"/>
</g>
<!-- ons&#45;&gt;slu -->
<g id="edge17" class="edge">
<title>ons&#45;&gt;slu</title>
<path fill="none" stroke="brown" d="M1283.02,-41.76C1305.01,-41.29 1328.63,-44.36 1348.01,-55.33 1386.34,-77.03 1408.74,-125.37 1419.67,-156.32"/>
<polygon fill="brown" stroke="brown" points="1416.45,-157.72 1422.94,-166.09 1423.08,-155.49 1416.45,-157.72"/>
</g>
<!-- ons&#45;&gt;Atmosphere -->
<g id="edge28" class="edge">
<title>ons&#45;&gt;Atmosphere</title>
<path fill="none" stroke="grey" d="M1268.34,-38.96C1386.5,-10.93 1671.78,40.19 1878.97,-57.33 1923.37,-78.23 1950.86,-131.6 1964.19,-164.63"/>
<polygon fill="grey" stroke="grey" points="1961.01,-166.1 1967.88,-174.17 1967.54,-163.58 1961.01,-166.1"/>
</g>
<!-- dis&#45;&gt;riv -->
<g id="edge14" class="edge">
<title>dis&#45;&gt;riv</title>
<path fill="none" stroke="blue" d="M1485.46,-409C1510.33,-407.06 1540.8,-404.68 1570.85,-402.34"/>
<polygon fill="blue" stroke="blue" points="1571.31,-405.81 1581.01,-401.55 1570.77,-398.83 1571.31,-405.81"/>
</g>
<!-- reu -->
<g id="node13" class="node">
<title>reu</title>
<ellipse fill="none" stroke="black" cx="1700.04" cy="-455.33" rx="170.87" ry="18"/>
<text text-anchor="middle" x="1700.04" y="-451.63" font-family="Times,serif" font-size="14.00">Reuse/recovery (agriculture, soils)</text>
</g>
<!-- dis&#45;&gt;reu -->
<g id="edge15" class="edge">
<title>dis&#45;&gt;reu</title>
<path fill="none" stroke="blue" d="M1480.97,-421.28C1512.7,-426.24 1554.73,-432.8 1593.41,-438.84"/>
<polygon fill="blue" stroke="blue" points="1593.27,-442.36 1603.69,-440.44 1594.35,-435.44 1593.27,-442.36"/>
</g>
<!-- riv&#45;&gt;Atmosphere -->
<g id="edge29" class="edge">
<title>riv&#45;&gt;Atmosphere</title>
<path fill="none" stroke="grey" d="M1816.08,-381.55C1838.39,-375.62 1860.53,-366.69 1878.97,-353.33 1925.21,-319.84 1952.74,-256.33 1965.43,-219.88"/>
<polygon fill="grey" stroke="grey" points="1968.76,-220.96 1968.62,-210.37 1962.13,-218.74 1968.76,-220.96"/>
</g>
<!-- reu&#45;&gt;Atmosphere -->
<g id="edge30" class="edge">
<title>reu&#45;&gt;Atmosphere</title>
<path fill="none" stroke="grey" d="M1847.68,-446.14C1858.92,-441.63 1869.54,-435.8 1878.97,-428.33 1944.95,-376.12 1965.31,-270.91 1971.41,-220.5"/>
<polygon fill="grey" stroke="grey" points="1974.91,-220.66 1972.53,-210.34 1967.95,-219.89 1974.91,-220.66"/>
</g>
<!-- inc -->
<g id="node15" class="node">
<title>inc</title>
<ellipse fill="none" stroke="black" cx="1700.04" cy="-192.33" rx="66.89" ry="18"/>
<text text-anchor="middle" x="1700.04" y="-188.63" font-family="Times,serif" font-size="14.00">Incineration</text>
</g>
<!-- slu&#45;&gt;inc -->
<g id="edge18" class="edge">
<title>slu&#45;&gt;inc</title>
<path fill="none" stroke="brown" d="M1492.1,-186.18C1531.09,-187.34 1581.65,-188.84 1623.04,-190.07"/>
<polygon fill="brown" stroke="brown" points="1622.97,-193.57 1633.07,-190.37 1623.18,-186.57 1622.97,-193.57"/>
</g>
<!-- laf -->
<g id="node16" class="node">
<title>laf</title>
<ellipse fill="none" stroke="black" cx="1700.04" cy="-138.33" rx="59.59" ry="18"/>
<text text-anchor="middle" x="1700.04" y="-134.63" font-family="Times,serif" font-size="14.00">Landfilling</text>
</g>
<!-- slu&#45;&gt;laf -->
<g id="edge19" class="edge">
<title>slu&#45;&gt;laf</title>
<path fill="none" stroke="brown" d="M1481.4,-174.16C1496.73,-171.21 1513.58,-168.05 1529.1,-165.33 1564.41,-159.14 1603.96,-152.82 1636.02,-147.85"/>
<polygon fill="brown" stroke="brown" points="1636.8,-151.27 1646.15,-146.29 1635.73,-144.36 1636.8,-151.27"/>
</g>
<!-- lap -->
<g id="node17" class="node">
<title>lap</title>
<ellipse fill="none" stroke="black" cx="1700.04" cy="-300.33" rx="89.08" ry="18"/>
<text text-anchor="middle" x="1700.04" y="-296.63" font-family="Times,serif" font-size="14.00">Land Application</text>
</g>
<!-- slu&#45;&gt;lap -->
<g id="edge20" class="edge">
<title>slu&#45;&gt;lap</title>
<path fill="none" stroke="brown" d="M1444.07,-201.99C1461.59,-222.72 1493.62,-256.42 1529.1,-273.33 1551.85,-284.18 1578.07,-290.81 1602.99,-294.82"/>
<polygon fill="brown" stroke="brown" points="1602.8,-298.33 1613.21,-296.33 1603.83,-291.41 1602.8,-298.33"/>
</g>
<!-- com -->
<g id="node18" class="node">
<title>com</title>
<ellipse fill="none" stroke="black" cx="1700.04" cy="-246.33" rx="66.09" ry="18"/>
<text text-anchor="middle" x="1700.04" y="-242.63" font-family="Times,serif" font-size="14.00">Composting</text>
</g>
<!-- slu&#45;&gt;com -->
<g id="edge21" class="edge">
<title>slu&#45;&gt;com</title>
<path fill="none" stroke="brown" d="M1466.26,-198.91C1484.8,-205.92 1507.89,-213.95 1529.1,-219.33 1561.36,-227.52 1597.72,-233.69 1628.51,-238.06"/>
<polygon fill="brown" stroke="brown" points="1628.34,-241.57 1638.72,-239.47 1629.3,-234.63 1628.34,-241.57"/>
</g>
<!-- inc&#45;&gt;Atmosphere -->
<g id="edge31" class="edge">
<title>inc&#45;&gt;Atmosphere</title>
<path fill="none" stroke="grey" d="M1767.09,-192.33C1806.35,-192.33 1856.32,-192.33 1897.31,-192.33"/>
<polygon fill="grey" stroke="grey" points="1897.52,-195.83 1907.52,-192.33 1897.52,-188.83 1897.52,-195.83"/>
</g>
<!-- laf&#45;&gt;Atmosphere -->
<g id="edge32" class="edge">
<title>laf&#45;&gt;Atmosphere</title>
<path fill="none" stroke="grey" d="M1755.87,-144.83C1791.22,-149.46 1838.06,-156.45 1878.97,-165.33 1892.72,-168.32 1907.41,-172.16 1921.02,-176.01"/>
<polygon fill="grey" stroke="grey" points="1920.14,-179.4 1930.72,-178.8 1922.08,-172.67 1920.14,-179.4"/>
</g>
<!-- lap&#45;&gt;Atmosphere -->
<g id="edge33" class="edge">
<title>lap&#45;&gt;Atmosphere</title>
<path fill="none" stroke="grey" d="M1787.52,-296.88C1817.51,-293.2 1850.69,-286.25 1878.97,-273.33 1907.42,-260.33 1933.98,-236.23 1951.73,-217.69"/>
<polygon fill="grey" stroke="grey" points="1954.52,-219.83 1958.78,-210.13 1949.4,-215.06 1954.52,-219.83"/>
</g>
<!-- com&#45;&gt;Atmosphere -->
<g id="edge34" class="edge">
<title>com&#45;&gt;Atmosphere</title>
<path fill="none" stroke="grey" d="M1761.1,-239.14C1795.75,-234.51 1840.04,-227.78 1878.97,-219.33 1892.72,-216.35 1907.41,-212.5 1921.02,-208.65"/>
<polygon fill="grey" stroke="grey" points="1922.08,-211.99 1930.72,-205.86 1920.14,-205.26 1922.08,-211.99"/>
</g>
<!-- legend_a -->
<g id="node19" class="node">
<title>legend_a</title>
</g>
<!-- legend_b -->
<g id="node20" class="node">
<title>legend_b</title>
</g>
<!-- legend_a&#45;&gt;legend_b -->
<g id="edge22" class="edge">
<title>legend_a&#45;&gt;legend_b</title>
<path fill="none" stroke="blue" d="M107.48,-427.33C152.86,-427.33 246.32,-427.33 298.04,-427.33"/>
<polygon fill="blue" stroke="blue" points="298.11,-430.83 308.11,-427.33 298.11,-423.83 298.11,-430.83"/>
<text text-anchor="middle" x="210.19" y="-431.13" font-family="Times,serif" font-size="14.00">water</text>
</g>
<!-- legend_c -->
<g id="node21" class="node">
<title>legend_c</title>
</g>
<!-- legend_d -->
<g id="node22" class="node">
<title>legend_d</title>
</g>
<!-- legend_c&#45;&gt;legend_d -->
<g id="edge23" class="edge">
<title>legend_c&#45;&gt;legend_d</title>
<path fill="none" stroke="brown" d="M107.48,-373.33C152.86,-373.33 246.32,-373.33 298.04,-373.33"/>
<polygon fill="brown" stroke="brown" points="298.11,-376.83 308.11,-373.33 298.11,-369.83 298.11,-376.83"/>
<text text-anchor="middle" x="210.19" y="-377.13" font-family="Times,serif" font-size="14.00">sludge</text>
</g>
<!-- legend_e -->
<g id="node23" class="node">
<title>legend_e</title>
</g>
<!-- legend_f -->
<g id="node24" class="node">
<title>legend_f</title>
</g>
<!-- legend_e&#45;&gt;legend_f -->
<g id="edge24" class="edge">
<title>legend_e&#45;&gt;legend_f</title>
<path fill="none" stroke="blue" d="M107.48,-318.33C152.86,-318.33 246.32,-318.33 298.04,-318.33"/>
<path fill="none" stroke="brown" d="M107.48,-320.33C152.86,-320.33 246.32,-320.33 298.04,-320.33"/>
<polygon fill="blue" stroke="blue" points="298.11,-322.83 308.11,-319.33 298.11,-315.83 298.11,-322.83"/>
<text text-anchor="middle" x="210.19" y="-323.13" font-family="Times,serif" font-size="14.00">wastewater</text>
</g>
<!-- legend_g -->
<g id="node25" class="node">
<title>legend_g</title>
</g>
<!-- legend_h -->
<g id="node26" class="node">
<title>legend_h</title>
</g>
<!-- legend_g&#45;&gt;legend_h -->
<g id="edge25" class="edge">
<title>legend_g&#45;&gt;legend_h</title>
<path fill="none" stroke="grey" d="M107.48,-265.33C152.86,-265.33 246.32,-265.33 298.04,-265.33"/>
<polygon fill="grey" stroke="grey" points="298.11,-268.83 308.11,-265.33 298.11,-261.83 298.11,-268.83"/>
<text text-anchor="middle" x="210.19" y="-269.13" font-family="Times,serif" font-size="14.00">ghg emission</text>
</g>
</g>
</svg>
