<?xml version="1.0" encoding="UTF-8" standalone="no"?>
<!DOCTYPE svg PUBLIC "-//W3C//DTD SVG 1.1//EN"
 "http://www.w3.org/Graphics/SVG/1.1/DTD/svg11.dtd">
<!-- Generated by graphviz version 2.43.0 (0)
 -->
<!-- Title: MyGraph Pages: 1 -->
<svg width="1823pt" height="416pt"
 viewBox="0.00 0.00 1822.91 416.00" xmlns="http://www.w3.org/2000/svg" xmlns:xlink="http://www.w3.org/1999/xlink">
<g id="graph0" class="graph" transform="scale(1 1) rotate(0) translate(4 412)">
<title>MyGraph</title>
<polygon fill="white" stroke="transparent" points="-4,4 -4,-412 1818.91,-412 1818.91,4 -4,4"/>
<g id="clust1" class="cluster">
<title>cluster_ws</title>
<polygon fill="none" stroke="black" points="8,-218 8,-293 390,-293 390,-218 8,-218"/>
<text text-anchor="middle" x="199" y="-277.8" font-family="Times,serif" font-size="14.00">Water Supply</text>
</g>
<g id="clust2" class="cluster">
<title>cluster_ww</title>
<polygon fill="none" stroke="black" points="565.59,-191 565.59,-320 1057.17,-320 1057.17,-191 565.59,-191"/>
<text text-anchor="middle" x="811.38" y="-304.8" font-family="Times,serif" font-size="14.00">Wastewater</text>
</g>
<g id="clust4" class="cluster">
<title>cluster_dis</title>
<polygon fill="none" stroke="black" points="1077.17,-253 1077.17,-400 1653.02,-400 1653.02,-253 1077.17,-253"/>
<text text-anchor="middle" x="1365.09" y="-384.8" font-family="Times,serif" font-size="14.00">Discharge</text>
</g>
<g id="clust9" class="cluster">
<title>cluster_sm</title>
<polygon fill="none" stroke="black" points="1129.81,-8 1129.81,-245 1595.82,-245 1595.82,-8 1129.81,-8"/>
<text text-anchor="middle" x="1362.82" y="-229.8" font-family="Times,serif" font-size="14.00">Sludge Management</text>
</g>
<!-- wsa -->
<g id="node1" class="node">
<title>wsa</title>
<polygon fill="#58c1db" stroke="#58c1db" points="115,-262 16,-262 16,-226 115,-226 115,-262"/>
<text text-anchor="middle" x="65.5" y="-240.3" font-family="Times,serif" font-size="14.00" fill="white">Abstraction</text>
</g>
<!-- wst -->
<g id="node2" class="node">
<title>wst</title>
<polygon fill="#58c1db" stroke="#58c1db" points="243,-262 151,-262 151,-226 243,-226 243,-262"/>
<text text-anchor="middle" x="197" y="-240.3" font-family="Times,serif" font-size="14.00" fill="white">Treatment</text>
</g>
<!-- wsa&#45;&gt;wst -->
<g id="edge1" class="edge">
<title>wsa&#45;&gt;wst</title>
<path fill="none" stroke="blue" d="M115.09,-244C123.46,-244 132.21,-244 140.74,-244"/>
<polygon fill="blue" stroke="blue" points="140.99,-247.5 150.99,-244 140.99,-240.5 140.99,-247.5"/>
</g>
<!-- wsd -->
<g id="node3" class="node">
<title>wsd</title>
<polygon fill="#58c1db" stroke="#58c1db" points="382,-262 279,-262 279,-226 382,-226 382,-262"/>
<text text-anchor="middle" x="330.5" y="-240.3" font-family="Times,serif" font-size="14.00" fill="white">Distribution</text>
</g>
<!-- wst&#45;&gt;wsd -->
<g id="edge2" class="edge">
<title>wst&#45;&gt;wsd</title>
<path fill="none" stroke="blue" d="M243.25,-244C251.39,-244 259.99,-244 268.48,-244"/>
<polygon fill="blue" stroke="blue" points="268.75,-247.5 278.75,-244 268.75,-240.5 268.75,-247.5"/>
</g>
<!-- pop -->
<g id="node4" class="node">
<title>pop</title>
<ellipse fill="none" stroke="black" cx="477.79" cy="-244" rx="59.59" ry="18"/>
<text text-anchor="middle" x="477.79" y="-240.3" font-family="Times,serif" font-size="14.00">Population</text>
</g>
<!-- wsd&#45;&gt;pop -->
<g id="edge3" class="edge">
<title>wsd&#45;&gt;pop</title>
<path fill="none" stroke="blue" d="M382.32,-244C390.55,-244 399.2,-244 407.78,-244"/>
<polygon fill="blue" stroke="blue" points="407.79,-247.5 417.79,-244 407.79,-240.5 407.79,-247.5"/>
</g>
<!-- ww -->
<g id="node5" class="node">
<title>ww</title>
<ellipse fill="none" stroke="black" cx="639.23" cy="-244" rx="65.79" ry="18"/>
<text text-anchor="middle" x="639.23" y="-240.3" font-family="Times,serif" font-size="14.00">Wastewater</text>
</g>
<!-- pop&#45;&gt;ww -->
<g id="edge4" class="edge">
<title>pop&#45;&gt;ww</title>
<path fill="none" stroke="blue" d="M537.71,-243C546.06,-243 554.74,-243 563.35,-243"/>
<path fill="none" stroke="brown" d="M537.71,-245C546.06,-245 554.74,-245 563.35,-245"/>
<polygon fill="blue" stroke="blue" points="563.39,-247.5 573.39,-244 563.39,-240.5 563.39,-247.5"/>
</g>
<!-- col -->
<g id="node6" class="node">
<title>col</title>
<polygon fill="#ed6d57" stroke="#ed6d57" points="848.02,-289 765.02,-289 765.02,-253 848.02,-253 848.02,-289"/>
<text text-anchor="middle" x="806.52" y="-267.3" font-family="Times,serif" font-size="14.00" fill="white">Collected</text>
</g>
<!-- ww&#45;&gt;col -->
<g id="edge5" class="edge">
<title>ww&#45;&gt;col</title>
<path fill="none" stroke="blue" d="M696.35,-252.15C715.32,-255.25 736.38,-258.69 754.92,-261.72"/>
<path fill="none" stroke="brown" d="M696.03,-254.13C715,-257.23 736.06,-260.67 754.6,-263.7"/>
<polygon fill="blue" stroke="blue" points="754.34,-266.19 764.77,-264.34 755.47,-259.28 754.34,-266.19"/>
</g>
<!-- unc -->
<g id="node7" class="node">
<title>unc</title>
<ellipse fill="none" stroke="black" cx="806.52" cy="-217" rx="65.79" ry="18"/>
<text text-anchor="middle" x="806.52" y="-213.3" font-family="Times,serif" font-size="14.00">Uncollected</text>
</g>
<!-- ww&#45;&gt;unc -->
<g id="edge6" class="edge">
<title>ww&#45;&gt;unc</title>
<path fill="none" stroke="blue" d="M696.03,-233.87C709.9,-231.61 724.89,-229.16 739.19,-226.82"/>
<path fill="none" stroke="brown" d="M696.35,-235.85C710.22,-233.58 725.21,-231.13 739.51,-228.8"/>
<polygon fill="blue" stroke="blue" points="740.32,-231.2 749.62,-226.13 739.19,-224.29 740.32,-231.2"/>
</g>
<!-- wwt -->
<g id="node8" class="node">
<title>wwt</title>
<polygon fill="#ed6d57" stroke="#ed6d57" points="1024.67,-289 932.67,-289 932.67,-253 1024.67,-253 1024.67,-289"/>
<text text-anchor="middle" x="978.67" y="-267.3" font-family="Times,serif" font-size="14.00" fill="white">Treatment</text>
</g>
<!-- col&#45;&gt;wwt -->
<g id="edge8" class="edge">
<title>col&#45;&gt;wwt</title>
<path fill="none" stroke="blue" d="M848.28,-270C870.47,-270 898.25,-270 922.37,-270"/>
<path fill="none" stroke="brown" d="M848.28,-272C870.47,-272 898.25,-272 922.37,-272"/>
<polygon fill="blue" stroke="blue" points="922.46,-274.5 932.46,-271 922.46,-267.5 922.46,-274.5"/>
</g>
<!-- unt -->
<g id="node10" class="node">
<title>unt</title>
<ellipse fill="none" stroke="black" cx="1200.86" cy="-344" rx="115.88" ry="18"/>
<text text-anchor="middle" x="1200.86" y="-340.3" font-family="Times,serif" font-size="14.00">Untreated wastewater</text>
</g>
<!-- col&#45;&gt;unt -->
<g id="edge9" class="edge">
<title>col&#45;&gt;unt</title>
<path fill="none" stroke="blue" d="M830.95,-288.32C850.34,-302.56 879.67,-321.46 908.45,-330.04 965.14,-347.05 1031.08,-351.21 1085.78,-350.71"/>
<path fill="none" stroke="brown" d="M829.76,-289.93C849.26,-304.24 878.59,-323.14 907.88,-331.96 965.02,-349.05 1030.96,-353.21 1085.8,-352.71"/>
<polygon fill="blue" stroke="blue" points="1085.94,-355.21 1095.89,-351.57 1085.84,-348.21 1085.94,-355.21"/>
</g>
<!-- ons -->
<g id="node9" class="node">
<title>ons</title>
<polygon fill="#ed6d57" stroke="#ed6d57" points="1049.17,-235 908.17,-235 908.17,-199 1049.17,-199 1049.17,-235"/>
<text text-anchor="middle" x="978.67" y="-213.3" font-family="Times,serif" font-size="14.00" fill="white">Onsite Sanitation</text>
</g>
<!-- unc&#45;&gt;ons -->
<g id="edge7" class="edge">
<title>unc&#45;&gt;ons</title>
<path fill="none" stroke="blue" d="M872.33,-216C880.7,-216 889.35,-216 897.92,-216"/>
<path fill="none" stroke="brown" d="M872.33,-218C880.7,-218 889.35,-218 897.92,-218"/>
<polygon fill="blue" stroke="blue" points="897.94,-220.5 907.94,-217 897.94,-213.5 897.94,-220.5"/>
</g>
<!-- unc&#45;&gt;unt -->
<g id="edge10" class="edge">
<title>unc&#45;&gt;unt</title>
<path fill="none" stroke="blue" d="M850.66,-229.72C858.51,-233.38 866.19,-237.8 872.8,-243.23 895.31,-262.81 884.76,-282.91 908.71,-297.16 924.35,-307.28 1020.02,-321.12 1097.48,-330.93"/>
<path fill="none" stroke="brown" d="M849.82,-231.54C857.51,-235.11 865.19,-239.53 871.53,-244.77 893.54,-261.88 882.99,-281.98 907.63,-298.84 924.06,-309.26 1019.74,-323.1 1097.23,-332.92"/>
<polygon fill="blue" stroke="blue" points="1097.31,-335.45 1107.67,-333.22 1098.18,-328.5 1097.31,-335.45"/>
</g>
<!-- dis -->
<g id="node11" class="node">
<title>dis</title>
<ellipse fill="none" stroke="black" cx="1200.86" cy="-283" rx="103.98" ry="18"/>
<text text-anchor="middle" x="1200.86" y="-279.3" font-family="Times,serif" font-size="14.00">Treated wastewater</text>
</g>
<!-- wwt&#45;&gt;dis -->
<g id="edge13" class="edge">
<title>wwt&#45;&gt;dis</title>
<path fill="none" stroke="blue" d="M1024.76,-273.46C1044.13,-274.51 1067.69,-275.8 1091.17,-277.08"/>
<polygon fill="blue" stroke="blue" points="1091.04,-280.57 1101.21,-277.62 1091.42,-273.59 1091.04,-280.57"/>
</g>
<!-- slu -->
<g id="node14" class="node">
<title>slu</title>
<ellipse fill="none" stroke="black" cx="1200.86" cy="-169" rx="63.09" ry="18"/>
<text text-anchor="middle" x="1200.86" y="-165.3" font-family="Times,serif" font-size="14.00">Dry Sludge</text>
</g>
<!-- wwt&#45;&gt;slu -->
<g id="edge17" class="edge">
<title>wwt&#45;&gt;slu</title>
<path fill="none" stroke="brown" d="M1024.77,-256.56C1035.51,-252.77 1046.84,-248.48 1057.17,-244 1094.34,-227.86 1135.12,-205.98 1163.53,-190.02"/>
<polygon fill="brown" stroke="brown" points="1165.32,-193.03 1172.3,-185.06 1161.87,-186.93 1165.32,-193.03"/>
</g>
<!-- ons&#45;&gt;dis -->
<g id="edge14" class="edge">
<title>ons&#45;&gt;dis</title>
<path fill="none" stroke="blue" d="M1033.16,-235.06C1047.42,-239.73 1062.84,-244.67 1077.17,-249 1095.46,-254.53 1115.39,-260.21 1133.77,-265.3"/>
<polygon fill="blue" stroke="blue" points="1132.93,-268.7 1143.5,-267.98 1134.79,-261.95 1132.93,-268.7"/>
</g>
<!-- ons&#45;&gt;slu -->
<g id="edge18" class="edge">
<title>ons&#45;&gt;slu</title>
<path fill="none" stroke="brown" d="M1049.34,-201.81C1078.51,-195.45 1112.08,-188.13 1140.11,-182.02"/>
<polygon fill="brown" stroke="brown" points="1141.14,-185.38 1150.17,-179.83 1139.65,-178.54 1141.14,-185.38"/>
</g>
<!-- riv -->
<g id="node12" class="node">
<title>riv</title>
<ellipse fill="none" stroke="black" cx="1498.78" cy="-288" rx="126.64" ry="26.74"/>
<text text-anchor="middle" x="1498.78" y="-291.8" font-family="Times,serif" font-size="14.00">Freshwater, estuarine,</text>
<text text-anchor="middle" x="1498.78" y="-276.8" font-family="Times,serif" font-size="14.00">marine environments</text>
</g>
<!-- unt&#45;&gt;riv -->
<g id="edge11" class="edge">
<title>unt&#45;&gt;riv</title>
<path fill="none" stroke="blue" d="M1274.82,-329.17C1310.64,-322.4 1354.39,-314.12 1393.61,-306.7"/>
<path fill="none" stroke="brown" d="M1275.19,-331.14C1311.01,-324.36 1354.76,-316.08 1393.98,-308.66"/>
<polygon fill="blue" stroke="blue" points="1394.49,-311.11 1403.66,-305.81 1393.19,-304.23 1394.49,-311.11"/>
</g>
<!-- soi -->
<g id="node13" class="node">
<title>soi</title>
<ellipse fill="none" stroke="black" cx="1498.78" cy="-351" rx="146.47" ry="18"/>
<text text-anchor="middle" x="1498.78" y="-347.3" font-family="Times,serif" font-size="14.00">Soils (agriculture, reuse, etc)</text>
</g>
<!-- unt&#45;&gt;soi -->
<g id="edge12" class="edge">
<title>unt&#45;&gt;soi</title>
<path fill="none" stroke="blue" d="M1315.45,-345.69C1325.06,-345.91 1334.89,-346.15 1344.74,-346.38"/>
<path fill="none" stroke="brown" d="M1315.4,-347.69C1325.02,-347.91 1334.84,-348.15 1344.69,-348.38"/>
<polygon fill="blue" stroke="blue" points="1344.91,-350.88 1354.99,-347.62 1345.07,-343.89 1344.91,-350.88"/>
</g>
<!-- dis&#45;&gt;riv -->
<g id="edge15" class="edge">
<title>dis&#45;&gt;riv</title>
<path fill="none" stroke="blue" d="M1304.53,-284.73C1323.22,-285.05 1342.98,-285.38 1362.45,-285.71"/>
<polygon fill="blue" stroke="blue" points="1362.54,-289.22 1372.59,-285.88 1362.65,-282.22 1362.54,-289.22"/>
</g>
<!-- dis&#45;&gt;soi -->
<g id="edge16" class="edge">
<title>dis&#45;&gt;soi</title>
<path fill="none" stroke="blue" d="M1254.59,-298.49C1283.39,-306.65 1319.77,-316.51 1352.55,-324 1368.74,-327.7 1386.04,-331.26 1402.85,-334.51"/>
<polygon fill="blue" stroke="blue" points="1402.2,-337.95 1412.68,-336.39 1403.51,-331.07 1402.2,-337.95"/>
</g>
<!-- Atmosphere -->
<g id="node19" class="node">
<title>Atmosphere</title>
<ellipse fill="none" stroke="black" cx="1747.96" cy="-169" rx="66.89" ry="18"/>
<text text-anchor="middle" x="1747.96" y="-165.3" font-family="Times,serif" font-size="14.00">Atmosphere</text>
</g>
<!-- riv&#45;&gt;Atmosphere -->
<g id="edge23" class="edge">
<title>riv&#45;&gt;Atmosphere</title>
<path fill="none" stroke="grey" d="M1595.86,-270.71C1615.39,-265.24 1635.34,-258.14 1653.02,-249 1680.16,-234.96 1706.22,-211.74 1723.98,-193.92"/>
<polygon fill="grey" stroke="grey" points="1726.58,-196.26 1731.06,-186.65 1721.57,-191.37 1726.58,-196.26"/>
</g>
<!-- soi&#45;&gt;Atmosphere -->
<g id="edge24" class="edge">
<title>soi&#45;&gt;Atmosphere</title>
<path fill="none" stroke="grey" d="M1618.86,-340.6C1631,-336.5 1642.65,-331.09 1653.02,-324 1698.28,-293.03 1725.46,-232.38 1738.19,-196.82"/>
<polygon fill="grey" stroke="grey" points="1741.6,-197.67 1741.55,-187.08 1734.98,-195.4 1741.6,-197.67"/>
</g>
<!-- inc -->
<g id="node15" class="node">
<title>inc</title>
<ellipse fill="none" stroke="black" cx="1498.78" cy="-34" rx="66.89" ry="18"/>
<text text-anchor="middle" x="1498.78" y="-30.3" font-family="Times,serif" font-size="14.00">Incineration</text>
</g>
<!-- slu&#45;&gt;inc -->
<g id="edge19" class="edge">
<title>slu&#45;&gt;inc</title>
<path fill="none" stroke="brown" d="M1220.17,-151.7C1246.99,-127.39 1299.54,-83.59 1352.55,-61 1375.15,-51.37 1401.18,-45.16 1424.9,-41.17"/>
<polygon fill="brown" stroke="brown" points="1425.58,-44.61 1434.91,-39.59 1424.49,-37.69 1425.58,-44.61"/>
</g>
<!-- laf -->
<g id="node16" class="node">
<title>laf</title>
<ellipse fill="none" stroke="black" cx="1498.78" cy="-88" rx="59.59" ry="18"/>
<text text-anchor="middle" x="1498.78" y="-84.3" font-family="Times,serif" font-size="14.00">Landfilling</text>
</g>
<!-- slu&#45;&gt;laf -->
<g id="edge20" class="edge">
<title>slu&#45;&gt;laf</title>
<path fill="none" stroke="brown" d="M1237.57,-154.37C1267.78,-142.43 1312.44,-125.84 1352.55,-115 1379.1,-107.82 1408.9,-101.92 1434.56,-97.48"/>
<polygon fill="brown" stroke="brown" points="1435.27,-100.91 1444.55,-95.8 1434.1,-94.01 1435.27,-100.91"/>
</g>
<!-- lap -->
<g id="node17" class="node">
<title>lap</title>
<ellipse fill="none" stroke="black" cx="1498.78" cy="-142" rx="89.08" ry="18"/>
<text text-anchor="middle" x="1498.78" y="-138.3" font-family="Times,serif" font-size="14.00">Land Application</text>
</g>
<!-- slu&#45;&gt;lap -->
<g id="edge21" class="edge">
<title>slu&#45;&gt;lap</title>
<path fill="none" stroke="brown" d="M1261.03,-163.6C1302.92,-159.78 1359.87,-154.58 1407.42,-150.24"/>
<polygon fill="brown" stroke="brown" points="1407.77,-153.73 1417.41,-149.33 1407.13,-146.76 1407.77,-153.73"/>
</g>
<!-- com -->
<g id="node18" class="node">
<title>com</title>
<ellipse fill="none" stroke="black" cx="1498.78" cy="-196" rx="66.09" ry="18"/>
<text text-anchor="middle" x="1498.78" y="-192.3" font-family="Times,serif" font-size="14.00">Composting</text>
</g>
<!-- slu&#45;&gt;com -->
<g id="edge22" class="edge">
<title>slu&#45;&gt;com</title>
<path fill="none" stroke="brown" d="M1261.03,-174.4C1308.37,-178.72 1374.95,-184.79 1425.45,-189.4"/>
<polygon fill="brown" stroke="brown" points="1425.37,-192.91 1435.65,-190.33 1426.01,-185.94 1425.37,-192.91"/>
</g>
<!-- inc&#45;&gt;Atmosphere -->
<g id="edge25" class="edge">
<title>inc&#45;&gt;Atmosphere</title>
<path fill="none" stroke="grey" d="M1565.69,-35.88C1594.06,-39.08 1626.68,-46.11 1653.02,-61 1687.31,-80.39 1715.16,-117.18 1731.39,-142.39"/>
<polygon fill="grey" stroke="grey" points="1728.57,-144.47 1736.84,-151.1 1734.5,-140.76 1728.57,-144.47"/>
</g>
<!-- laf&#45;&gt;Atmosphere -->
<g id="edge26" class="edge">
<title>laf&#45;&gt;Atmosphere</title>
<path fill="none" stroke="grey" d="M1556.32,-93.21C1585.79,-97.1 1622.04,-103.76 1653.02,-115 1674.55,-122.81 1696.86,-135.41 1714.33,-146.48"/>
<polygon fill="grey" stroke="grey" points="1712.7,-149.59 1722.99,-152.09 1716.5,-143.71 1712.7,-149.59"/>
</g>
<!-- lap&#45;&gt;Atmosphere -->
<g id="edge27" class="edge">
<title>lap&#45;&gt;Atmosphere</title>
<path fill="none" stroke="grey" d="M1577.65,-150.51C1608.93,-153.92 1644.75,-157.84 1675.37,-161.18"/>
<polygon fill="grey" stroke="grey" points="1675.22,-164.68 1685.54,-162.29 1675.98,-157.73 1675.22,-164.68"/>
</g>
<!-- com&#45;&gt;Atmosphere -->
<g id="edge28" class="edge">
<title>com&#45;&gt;Atmosphere</title>
<path fill="none" stroke="grey" d="M1560.57,-189.36C1595.32,-185.56 1639.1,-180.78 1675.5,-176.81"/>
<polygon fill="grey" stroke="grey" points="1676,-180.27 1685.56,-175.71 1675.24,-173.31 1676,-180.27"/>
</g>
</g>
</svg>
