<?xml version="1.0" encoding="UTF-8" standalone="no"?>
<!DOCTYPE svg PUBLIC "-//W3C//DTD SVG 1.1//EN"
 "http://www.w3.org/Graphics/SVG/1.1/DTD/svg11.dtd">
<!-- Generated by graphviz version 2.43.0 (0)
 -->
<!-- Title: MyGraph Pages: 1 -->
<svg width="1923pt" height="416pt"
 viewBox="0.00 0.00 1923.35 416.00" xmlns="http://www.w3.org/2000/svg" xmlns:xlink="http://www.w3.org/1999/xlink">
<g id="graph0" class="graph" transform="scale(1 1) rotate(0) translate(4 412)">
<title>MyGraph</title>
<polygon fill="white" stroke="transparent" points="-4,4 -4,-412 1919.35,-412 1919.35,4 -4,4"/>
<g id="clust1" class="cluster">
<title>cluster_ws</title>
<polygon fill="none" stroke="black" points="8,-253 8,-328 478.17,-328 478.17,-253 8,-253"/>
<text text-anchor="middle" x="243.08" y="-312.8" font-family="Times,serif" font-size="14.00">Water supply</text>
</g>
<g id="clust2" class="cluster">
<title>cluster_ww</title>
<polygon fill="none" stroke="black" points="653.76,-199 653.76,-382 1289.01,-382 1289.01,-199 653.76,-199"/>
<text text-anchor="middle" x="971.38" y="-366.8" font-family="Times,serif" font-size="14.00">Wastewater</text>
</g>
<g id="clust6" class="cluster">
<title>cluster_dis</title>
<polygon fill="none" stroke="black" points="1312.91,-253 1312.91,-400 1907.35,-400 1907.35,-253 1312.91,-253"/>
<text text-anchor="middle" x="1610.13" y="-384.8" font-family="Times,serif" font-size="14.00">Discharge</text>
</g>
<g id="clust7" class="cluster">
<title>cluster_sm</title>
<polygon fill="none" stroke="black" points="1309.01,-8 1309.01,-245 1783.66,-245 1783.66,-8 1309.01,-8"/>
<text text-anchor="middle" x="1546.34" y="-229.8" font-family="Times,serif" font-size="14.00">Sludge management</text>
</g>
<!-- wsa -->
<g id="node1" class="node">
<title>wsa</title>
<ellipse fill="none" stroke="black" cx="80.34" cy="-279" rx="64.19" ry="18"/>
<text text-anchor="middle" x="80.34" y="-275.3" font-family="Times,serif" font-size="14.00">Abstraction</text>
</g>
<!-- wst -->
<g id="node2" class="node">
<title>wst</title>
<ellipse fill="none" stroke="black" cx="240.48" cy="-279" rx="59.59" ry="18"/>
<text text-anchor="middle" x="240.48" y="-275.3" font-family="Times,serif" font-size="14.00">Treatment</text>
</g>
<!-- wsa&#45;&gt;wst -->
<g id="edge1" class="edge">
<title>wsa&#45;&gt;wst</title>
<path fill="none" stroke="blue" d="M144.75,-279C153.28,-279 162.05,-279 170.66,-279"/>
<polygon fill="blue" stroke="blue" points="170.67,-282.5 180.67,-279 170.67,-275.5 170.67,-282.5"/>
</g>
<!-- wsd -->
<g id="node3" class="node">
<title>wsd</title>
<ellipse fill="none" stroke="black" cx="403.22" cy="-279" rx="66.89" ry="18"/>
<text text-anchor="middle" x="403.22" y="-275.3" font-family="Times,serif" font-size="14.00">Distribution</text>
</g>
<!-- wst&#45;&gt;wsd -->
<g id="edge2" class="edge">
<title>wst&#45;&gt;wsd</title>
<path fill="none" stroke="blue" d="M300.42,-279C308.8,-279 317.5,-279 326.14,-279"/>
<polygon fill="blue" stroke="blue" points="326.23,-282.5 336.23,-279 326.23,-275.5 326.23,-282.5"/>
</g>
<!-- pop -->
<g id="node4" class="node">
<title>pop</title>
<ellipse fill="none" stroke="black" cx="565.96" cy="-279" rx="59.59" ry="18"/>
<text text-anchor="middle" x="565.96" y="-275.3" font-family="Times,serif" font-size="14.00">Population</text>
</g>
<!-- wsd&#45;&gt;pop -->
<g id="edge3" class="edge">
<title>wsd&#45;&gt;pop</title>
<path fill="none" stroke="blue" d="M470.53,-279C478.89,-279 487.46,-279 495.86,-279"/>
<polygon fill="blue" stroke="blue" points="496.01,-282.5 506.01,-279 496.01,-275.5 496.01,-282.5"/>
</g>
<!-- ww -->
<g id="node5" class="node">
<title>ww</title>
<ellipse fill="none" stroke="black" cx="727.4" cy="-279" rx="65.79" ry="18"/>
<text text-anchor="middle" x="727.4" y="-275.3" font-family="Times,serif" font-size="14.00">Wastewater</text>
</g>
<!-- pop&#45;&gt;ww -->
<g id="edge4" class="edge">
<title>pop&#45;&gt;ww</title>
<path fill="none" stroke="blue" d="M625.88,-278C634.23,-278 642.91,-278 651.51,-278"/>
<path fill="none" stroke="brown" d="M625.88,-280C634.23,-280 642.91,-280 651.51,-280"/>
<polygon fill="blue" stroke="blue" points="651.56,-282.5 661.56,-279 651.56,-275.5 651.56,-282.5"/>
</g>
<!-- unc -->
<g id="node6" class="node">
<title>unc</title>
<ellipse fill="none" stroke="black" cx="894.69" cy="-252" rx="65.79" ry="18"/>
<text text-anchor="middle" x="894.69" y="-248.3" font-family="Times,serif" font-size="14.00">Uncollected</text>
</g>
<!-- ww&#45;&gt;unc -->
<g id="edge5" class="edge">
<title>ww&#45;&gt;unc</title>
<path fill="none" stroke="blue" d="M784.2,-268.87C798.06,-266.61 813.05,-264.16 827.36,-261.82"/>
<path fill="none" stroke="brown" d="M784.52,-270.85C798.39,-268.58 813.38,-266.13 827.68,-263.8"/>
<polygon fill="blue" stroke="blue" points="828.48,-266.2 837.79,-261.13 827.35,-259.29 828.48,-266.2"/>
</g>
<!-- col -->
<g id="node7" class="node">
<title>col</title>
<ellipse fill="none" stroke="black" cx="894.69" cy="-306" rx="53.89" ry="18"/>
<text text-anchor="middle" x="894.69" y="-302.3" font-family="Times,serif" font-size="14.00">Collected</text>
</g>
<!-- ww&#45;&gt;col -->
<g id="edge6" class="edge">
<title>ww&#45;&gt;col</title>
<path fill="none" stroke="blue" d="M784.52,-287.15C801.04,-289.85 819.15,-292.81 835.8,-295.53"/>
<path fill="none" stroke="brown" d="M784.2,-289.13C800.72,-291.83 818.83,-294.79 835.48,-297.5"/>
<polygon fill="blue" stroke="blue" points="835.36,-300.02 845.79,-298.18 836.48,-293.11 835.36,-300.02"/>
</g>
<!-- unt -->
<g id="node8" class="node">
<title>unt</title>
<ellipse fill="none" stroke="black" cx="1138.67" cy="-333" rx="115.88" ry="18"/>
<text text-anchor="middle" x="1138.67" y="-329.3" font-family="Times,serif" font-size="14.00">Untreated wastewater</text>
</g>
<!-- unc&#45;&gt;unt -->
<g id="edge7" class="edge">
<title>unc&#45;&gt;unt</title>
<path fill="none" stroke="blue" d="M935.12,-265.55C943.78,-269.26 952.74,-273.51 960.83,-278.13 978.69,-288.89 979.04,-297.88 996.74,-305.09 1009.32,-310.65 1023.16,-315.1 1036.98,-318.61"/>
<path fill="none" stroke="brown" d="M934.33,-267.39C942.92,-271.07 951.88,-275.31 959.84,-279.87 976.69,-288.97 977.04,-297.95 995.93,-306.91 1008.71,-312.56 1022.55,-317 1036.49,-320.54"/>
<polygon fill="blue" stroke="blue" points="1036.3,-323.07 1046.84,-321.98 1037.92,-316.26 1036.3,-323.07"/>
</g>
<!-- ons -->
<g id="node10" class="node">
<title>ons</title>
<ellipse fill="none" stroke="black" cx="1138.67" cy="-225" rx="90.18" ry="18"/>
<text text-anchor="middle" x="1138.67" y="-221.3" font-family="Times,serif" font-size="14.00">Onsite sanitation</text>
</g>
<!-- unc&#45;&gt;ons -->
<g id="edge8" class="edge">
<title>unc&#45;&gt;ons</title>
<path fill="none" stroke="blue" d="M955.7,-244.3C984,-241.14 1018.29,-237.31 1049.44,-233.84"/>
<path fill="none" stroke="brown" d="M955.93,-246.28C984.22,-243.13 1018.51,-239.3 1049.66,-235.83"/>
<polygon fill="blue" stroke="blue" points="1049.99,-238.3 1059.54,-233.72 1049.22,-231.35 1049.99,-238.3"/>
</g>
<!-- col&#45;&gt;unt -->
<g id="edge9" class="edge">
<title>col&#45;&gt;unt</title>
<path fill="none" stroke="blue" d="M946.23,-310.63C971.74,-313.48 1003.69,-317.04 1034.13,-320.44"/>
<path fill="none" stroke="brown" d="M946.01,-312.62C971.52,-315.47 1003.46,-319.03 1033.91,-322.43"/>
<polygon fill="blue" stroke="blue" points="1033.95,-324.95 1044.28,-322.58 1034.73,-317.99 1033.95,-324.95"/>
</g>
<!-- wwt -->
<g id="node9" class="node">
<title>wwt</title>
<ellipse fill="none" stroke="black" cx="1138.67" cy="-279" rx="142.17" ry="18"/>
<text text-anchor="middle" x="1138.67" y="-275.3" font-family="Times,serif" font-size="14.00">Wastewater treatment plant</text>
</g>
<!-- col&#45;&gt;wwt -->
<g id="edge10" class="edge">
<title>col&#45;&gt;wwt</title>
<path fill="none" stroke="blue" d="M946.01,-299.38C967.99,-296.93 994.76,-293.94 1021.22,-290.99"/>
<path fill="none" stroke="brown" d="M946.23,-301.37C968.22,-298.91 994.98,-295.93 1021.44,-292.97"/>
<polygon fill="blue" stroke="blue" points="1021.9,-295.44 1031.45,-290.85 1021.12,-288.48 1021.9,-295.44"/>
</g>
<!-- riv -->
<g id="node12" class="node">
<title>riv</title>
<ellipse fill="none" stroke="black" cx="1687.92" cy="-342" rx="211.35" ry="26.74"/>
<text text-anchor="middle" x="1687.92" y="-345.8" font-family="Times,serif" font-size="14.00">Freshwater, estuarine,</text>
<text text-anchor="middle" x="1687.92" y="-330.8" font-family="Times,serif" font-size="14.00">marine environments, agricultural soils</text>
</g>
<!-- unt&#45;&gt;riv -->
<g id="edge11" class="edge">
<title>unt&#45;&gt;riv</title>
<path fill="none" stroke="blue" d="M1254.07,-333.88C1316.02,-334.9 1394.67,-336.19 1467.88,-337.4"/>
<path fill="none" stroke="brown" d="M1254.04,-335.88C1315.99,-336.9 1394.64,-338.19 1467.85,-339.4"/>
<polygon fill="blue" stroke="blue" points="1468.1,-341.9 1478.16,-338.57 1468.22,-334.9 1468.1,-341.9"/>
</g>
<!-- dis -->
<g id="node11" class="node">
<title>dis</title>
<ellipse fill="none" stroke="black" cx="1378.75" cy="-279" rx="57.69" ry="18"/>
<text text-anchor="middle" x="1378.75" y="-275.3" font-family="Times,serif" font-size="14.00">Discharge</text>
</g>
<!-- wwt&#45;&gt;dis -->
<g id="edge13" class="edge">
<title>wwt&#45;&gt;dis</title>
<path fill="none" stroke="blue" d="M1281.26,-279C1291.34,-279 1301.2,-279 1310.54,-279"/>
<polygon fill="blue" stroke="blue" points="1310.83,-282.5 1320.83,-279 1310.83,-275.5 1310.83,-282.5"/>
</g>
<!-- slu -->
<g id="node14" class="node">
<title>slu</title>
<ellipse fill="none" stroke="black" cx="1378.75" cy="-169" rx="61.99" ry="18"/>
<text text-anchor="middle" x="1378.75" y="-165.3" font-family="Times,serif" font-size="14.00">Dry sludge</text>
</g>
<!-- wwt&#45;&gt;slu -->
<g id="edge16" class="edge">
<title>wwt&#45;&gt;slu</title>
<path fill="none" stroke="brown" d="M1247.34,-267.23C1261.78,-263.46 1276.06,-258.5 1289.01,-252 1316.39,-238.25 1341.27,-213.38 1357.67,-194.44"/>
<polygon fill="brown" stroke="brown" points="1360.39,-196.64 1364.16,-186.74 1355.04,-192.13 1360.39,-196.64"/>
</g>
<!-- ons&#45;&gt;dis -->
<g id="edge12" class="edge">
<title>ons&#45;&gt;dis</title>
<path fill="none" stroke="blue" d="M1210.29,-236.03C1235.29,-240.39 1263.53,-245.84 1289.01,-252 1301.98,-255.13 1315.85,-259.07 1328.69,-262.96"/>
<polygon fill="blue" stroke="blue" points="1327.68,-266.31 1338.26,-265.91 1329.74,-259.62 1327.68,-266.31"/>
</g>
<!-- ons&#45;&gt;slu -->
<g id="edge17" class="edge">
<title>ons&#45;&gt;slu</title>
<path fill="none" stroke="brown" d="M1197.91,-211.3C1235.03,-202.57 1282.93,-191.3 1319.97,-182.59"/>
<polygon fill="brown" stroke="brown" points="1321.17,-185.9 1330.11,-180.21 1319.57,-179.09 1321.17,-185.9"/>
</g>
<!-- dis&#45;&gt;riv -->
<g id="edge14" class="edge">
<title>dis&#45;&gt;riv</title>
<path fill="none" stroke="blue" d="M1420.94,-291.5C1438.03,-296.43 1458.12,-301.88 1476.5,-306 1498,-310.83 1520.86,-315.35 1543.29,-319.46"/>
<polygon fill="blue" stroke="blue" points="1542.75,-322.92 1553.22,-321.25 1544,-316.03 1542.75,-322.92"/>
</g>
<!-- reu -->
<g id="node13" class="node">
<title>reu</title>
<ellipse fill="none" stroke="black" cx="1687.92" cy="-279" rx="125.38" ry="18"/>
<text text-anchor="middle" x="1687.92" y="-275.3" font-family="Times,serif" font-size="14.00">Reuse/Nutrient recovery</text>
</g>
<!-- dis&#45;&gt;reu -->
<g id="edge15" class="edge">
<title>dis&#45;&gt;reu</title>
<path fill="none" stroke="blue" d="M1436.81,-279C1469.36,-279 1511.63,-279 1552.14,-279"/>
<polygon fill="blue" stroke="blue" points="1552.39,-282.5 1562.39,-279 1552.39,-275.5 1552.39,-282.5"/>
</g>
<!-- inc -->
<g id="node15" class="node">
<title>inc</title>
<ellipse fill="none" stroke="black" cx="1687.92" cy="-142" rx="66.89" ry="18"/>
<text text-anchor="middle" x="1687.92" y="-138.3" font-family="Times,serif" font-size="14.00">Incineration</text>
</g>
<!-- slu&#45;&gt;inc -->
<g id="edge18" class="edge">
<title>slu&#45;&gt;inc</title>
<path fill="none" stroke="brown" d="M1438.25,-163.86C1488.21,-159.47 1560.3,-153.13 1614,-148.41"/>
<polygon fill="brown" stroke="brown" points="1614.49,-151.88 1624.15,-147.52 1613.88,-144.91 1614.49,-151.88"/>
</g>
<!-- laf -->
<g id="node16" class="node">
<title>laf</title>
<ellipse fill="none" stroke="black" cx="1687.92" cy="-196" rx="59.59" ry="18"/>
<text text-anchor="middle" x="1687.92" y="-192.3" font-family="Times,serif" font-size="14.00">Landfilling</text>
</g>
<!-- slu&#45;&gt;laf -->
<g id="edge19" class="edge">
<title>slu&#45;&gt;laf</title>
<path fill="none" stroke="brown" d="M1438.25,-174.14C1490.09,-178.7 1565.75,-185.35 1619.99,-190.12"/>
<polygon fill="brown" stroke="brown" points="1619.93,-193.62 1630.2,-191.01 1620.54,-186.65 1619.93,-193.62"/>
</g>
<!-- lap -->
<g id="node17" class="node">
<title>lap</title>
<ellipse fill="none" stroke="black" cx="1687.92" cy="-34" rx="87.99" ry="18"/>
<text text-anchor="middle" x="1687.92" y="-30.3" font-family="Times,serif" font-size="14.00">Land application</text>
</g>
<!-- slu&#45;&gt;lap -->
<g id="edge20" class="edge">
<title>slu&#45;&gt;lap</title>
<path fill="none" stroke="brown" d="M1389.92,-151.26C1405.2,-126.41 1436.61,-81.97 1476.5,-61 1511.06,-42.83 1553.1,-35.08 1590.48,-32.23"/>
<polygon fill="brown" stroke="brown" points="1591.14,-35.7 1600.89,-31.56 1590.68,-28.71 1591.14,-35.7"/>
</g>
<!-- com -->
<g id="node18" class="node">
<title>com</title>
<ellipse fill="none" stroke="black" cx="1687.92" cy="-88" rx="66.09" ry="18"/>
<text text-anchor="middle" x="1687.92" y="-84.3" font-family="Times,serif" font-size="14.00">Composting</text>
</g>
<!-- slu&#45;&gt;com -->
<g id="edge21" class="edge">
<title>slu&#45;&gt;com</title>
<path fill="none" stroke="brown" d="M1403.6,-152.27C1422.49,-139.89 1450.01,-123.73 1476.5,-115 1520.03,-100.65 1570.97,-93.87 1611.82,-90.7"/>
<polygon fill="brown" stroke="brown" points="1612.26,-94.17 1621.98,-89.96 1611.75,-87.19 1612.26,-94.17"/>
</g>
</g>
</svg>
