<?xml version="1.0" encoding="UTF-8" standalone="no"?>
<!DOCTYPE svg PUBLIC "-//W3C//DTD SVG 1.1//EN"
 "http://www.w3.org/Graphics/SVG/1.1/DTD/svg11.dtd">
<!-- Generated by graphviz version 2.40.1 (20161225.0304)
 -->
<!-- Title: MyGraph Pages: 1 -->
<svg width="1932pt" height="416pt"
 viewBox="0.00 0.00 1932.50 416.00" xmlns="http://www.w3.org/2000/svg" xmlns:xlink="http://www.w3.org/1999/xlink">
<g id="graph0" class="graph" transform="scale(1 1) rotate(0) translate(4 412)">
<title>MyGraph</title>
<polygon fill="#ffffff" stroke="transparent" points="-4,4 -4,-412 1928.4983,-412 1928.4983,4 -4,4"/>
<g id="clust1" class="cluster">
<title>cluster_ws</title>
<polygon fill="none" stroke="#000000" points="8,-218 8,-293 392,-293 392,-218 8,-218"/>
<text text-anchor="middle" x="200" y="-277.8" font-family="Times,serif" font-size="14.00" fill="#000000">Water Supply</text>
</g>
<g id="clust2" class="cluster">
<title>cluster_ww</title>
<polygon fill="none" stroke="#000000" points="567.5894,-191 567.5894,-320 1162.857,-320 1162.857,-191 567.5894,-191"/>
<text text-anchor="middle" x="865.2232" y="-304.8" font-family="Times,serif" font-size="14.00" fill="#000000">Wastewater</text>
</g>
<g id="clust4" class="cluster">
<title>cluster_dis</title>
<polygon fill="none" stroke="#000000" points="1182.857,-253 1182.857,-400 1761.3103,-400 1761.3103,-253 1182.857,-253"/>
<text text-anchor="middle" x="1472.0836" y="-384.8" font-family="Times,serif" font-size="14.00" fill="#000000">Discharge</text>
</g>
<g id="clust9" class="cluster">
<title>cluster_sm</title>
<polygon fill="none" stroke="#000000" points="1235.5023,-8 1235.5023,-245 1704.1153,-245 1704.1153,-8 1235.5023,-8"/>
<text text-anchor="middle" x="1469.8088" y="-229.8" font-family="Times,serif" font-size="14.00" fill="#000000">Sludge Management</text>
</g>
<!-- wsa -->
<g id="node1" class="node">
<title>wsa</title>
<polygon fill="#58c1db" stroke="#58c1db" points="117,-262 16,-262 16,-226 117,-226 117,-262"/>
<text text-anchor="middle" x="66.5" y="-240.3" font-family="Times,serif" font-size="14.00" fill="#ffffff">Abstraction</text>
</g>
<!-- wst -->
<g id="node2" class="node">
<title>wst</title>
<polygon fill="#58c1db" stroke="#58c1db" points="245,-262 153,-262 153,-226 245,-226 245,-262"/>
<text text-anchor="middle" x="199" y="-240.3" font-family="Times,serif" font-size="14.00" fill="#ffffff">Treatment</text>
</g>
<!-- wsa&#45;&gt;wst -->
<g id="edge1" class="edge">
<title>wsa&#45;&gt;wst</title>
<path fill="none" stroke="#0000ff" d="M117.349,-244C125.6505,-244 134.2935,-244 142.7165,-244"/>
<polygon fill="#0000ff" stroke="#0000ff" points="142.844,-247.5001 152.8439,-244 142.8439,-240.5001 142.844,-247.5001"/>
</g>
<!-- wsd -->
<g id="node3" class="node">
<title>wsd</title>
<polygon fill="#58c1db" stroke="#58c1db" points="384,-262 281,-262 281,-226 384,-226 384,-262"/>
<text text-anchor="middle" x="332.5" y="-240.3" font-family="Times,serif" font-size="14.00" fill="#ffffff">Distribution</text>
</g>
<!-- wst&#45;&gt;wsd -->
<g id="edge2" class="edge">
<title>wst&#45;&gt;wsd</title>
<path fill="none" stroke="#0000ff" d="M245.3172,-244C253.4552,-244 262.0417,-244 270.5248,-244"/>
<polygon fill="#0000ff" stroke="#0000ff" points="270.784,-247.5001 280.7839,-244 270.7839,-240.5001 270.784,-247.5001"/>
</g>
<!-- pop -->
<g id="node4" class="node">
<title>pop</title>
<ellipse fill="none" stroke="#000000" cx="479.7947" cy="-244" rx="59.5901" ry="18"/>
<text text-anchor="middle" x="479.7947" y="-240.3" font-family="Times,serif" font-size="14.00" fill="#000000">Population</text>
</g>
<!-- wsd&#45;&gt;pop -->
<g id="edge3" class="edge">
<title>wsd&#45;&gt;pop</title>
<path fill="none" stroke="#0000ff" d="M384.0165,-244C392.3644,-244 401.1304,-244 409.8279,-244"/>
<polygon fill="#0000ff" stroke="#0000ff" points="409.9772,-247.5001 419.9772,-244 409.9772,-240.5001 409.9772,-247.5001"/>
</g>
<!-- ww -->
<g id="node5" class="node">
<title>ww</title>
<ellipse fill="none" stroke="#000000" cx="691.2791" cy="-244" rx="115.8798" ry="18"/>
<text text-anchor="middle" x="691.2791" y="-240.3" font-family="Times,serif" font-size="14.00" fill="#000000">Wastewater treatment</text>
</g>
<!-- pop&#45;&gt;ww -->
<g id="edge4" class="edge">
<title>pop&#45;&gt;ww</title>
<path fill="none" stroke="#0000ff" d="M539.832,-243C547.9947,-243 556.6075,-243 565.4135,-243"/>
<path fill="none" stroke="#a52a2a" d="M539.832,-245C547.9947,-245 556.6075,-245 565.4135,-245"/>
<polygon fill="#0000ff" stroke="#0000ff" points="565.4244,-247.5001 575.4244,-244 565.4243,-240.5001 565.4244,-247.5001"/>
</g>
<!-- col -->
<g id="node6" class="node">
<title>col</title>
<polygon fill="#ed6d57" stroke="#ed6d57" points="952.4129,-289 867.4129,-289 867.4129,-253 952.4129,-253 952.4129,-289"/>
<text text-anchor="middle" x="909.9129" y="-267.3" font-family="Times,serif" font-size="14.00" fill="#ffffff">Collected</text>
</g>
<!-- ww&#45;&gt;col -->
<g id="edge5" class="edge">
<title>ww&#45;&gt;col</title>
<path fill="none" stroke="#0000ff" d="M782.2227,-254.2234C807.8614,-257.3896 834.8982,-260.7285 857.4688,-263.5159"/>
<path fill="none" stroke="#a52a2a" d="M781.9776,-256.2083C807.6163,-259.3746 834.6531,-262.7134 857.2237,-265.5008"/>
<polygon fill="#0000ff" stroke="#0000ff" points="857.0276,-267.9955 867.3812,-265.7476 857.8856,-261.0483 857.0276,-267.9955"/>
</g>
<!-- unc -->
<g id="node7" class="node">
<title>unc</title>
<ellipse fill="none" stroke="#000000" cx="909.9129" cy="-217" rx="66.8882" ry="18"/>
<text text-anchor="middle" x="909.9129" y="-213.3" font-family="Times,serif" font-size="14.00" fill="#000000">Uncollected</text>
</g>
<!-- ww&#45;&gt;unc -->
<g id="edge6" class="edge">
<title>ww&#45;&gt;unc</title>
<path fill="none" stroke="#0000ff" d="M781.9776,-231.7917C800.8959,-229.4554 820.5754,-227.0251 838.6602,-224.7917"/>
<path fill="none" stroke="#a52a2a" d="M782.2227,-233.7766C801.141,-231.4403 820.8205,-229.01 838.9053,-226.7766"/>
<polygon fill="#0000ff" stroke="#0000ff" points="839.443,-229.2293 848.9386,-224.53 838.585,-222.2821 839.443,-229.2293"/>
</g>
<!-- wwt -->
<g id="node8" class="node">
<title>wwt</title>
<polygon fill="#ed6d57" stroke="#ed6d57" points="1129.857,-289 1037.857,-289 1037.857,-253 1129.857,-253 1129.857,-289"/>
<text text-anchor="middle" x="1083.857" y="-267.3" font-family="Times,serif" font-size="14.00" fill="#ffffff">Treatment</text>
</g>
<!-- col&#45;&gt;wwt -->
<g id="edge8" class="edge">
<title>col&#45;&gt;wwt</title>
<path fill="none" stroke="#0000ff" d="M952.4644,-270C975.0819,-270 1003.178,-270 1027.5772,-270"/>
<path fill="none" stroke="#a52a2a" d="M952.4644,-272C975.0819,-272 1003.178,-272 1027.5772,-272"/>
<polygon fill="#0000ff" stroke="#0000ff" points="1027.7809,-274.5001 1037.7809,-271 1027.7808,-267.5001 1027.7809,-274.5001"/>
</g>
<!-- unt -->
<g id="node10" class="node">
<title>unt</title>
<ellipse fill="none" stroke="#000000" cx="1306.5467" cy="-344" rx="115.8798" ry="18"/>
<text text-anchor="middle" x="1306.5467" y="-340.3" font-family="Times,serif" font-size="14.00" fill="#000000">Untreated wastewater</text>
</g>
<!-- col&#45;&gt;unt -->
<g id="edge9" class="edge">
<title>col&#45;&gt;unt</title>
<path fill="none" stroke="#0000ff" d="M933.9162,-288.3137C953.797,-302.5598 983.8189,-321.459 1013.1391,-330.0406 1069.9643,-346.7746 1135.9107,-350.9739 1190.7728,-350.5679"/>
<path fill="none" stroke="#a52a2a" d="M932.7513,-289.9395C952.7315,-304.2524 982.7534,-323.1515 1012.5749,-331.9594 1069.8372,-348.7706 1135.7836,-352.9698 1190.7875,-352.5678"/>
<polygon fill="#0000ff" stroke="#0000ff" points="1190.9493,-355.0661 1200.9046,-351.4409 1190.8614,-348.0667 1190.9493,-355.0661"/>
</g>
<!-- ons -->
<g id="node9" class="node">
<title>ons</title>
<polygon fill="#ed6d57" stroke="#ed6d57" points="1154.857,-235 1012.857,-235 1012.857,-199 1154.857,-199 1154.857,-235"/>
<text text-anchor="middle" x="1083.857" y="-213.3" font-family="Times,serif" font-size="14.00" fill="#ffffff">Onsite Sanitation</text>
</g>
<!-- unc&#45;&gt;ons -->
<g id="edge7" class="edge">
<title>unc&#45;&gt;ons</title>
<path fill="none" stroke="#0000ff" d="M977.1642,-216C985.4561,-216 994.0005,-216 1002.4738,-216"/>
<path fill="none" stroke="#a52a2a" d="M977.1642,-218C985.4561,-218 994.0005,-218 1002.4738,-218"/>
<polygon fill="#0000ff" stroke="#0000ff" points="1002.7525,-220.5001 1012.7525,-217 1002.7524,-213.5001 1002.7525,-220.5001"/>
</g>
<!-- unc&#45;&gt;unt -->
<g id="edge10" class="edge">
<title>unc&#45;&gt;unt</title>
<path fill="none" stroke="#0000ff" d="M954.9159,-229.6841C962.9181,-233.3246 970.7398,-237.7509 977.4882,-243.2244 1000.1143,-262.6723 989.4432,-282.9232 1013.3958,-297.1576 1029.1481,-307.3402 1125.4809,-321.1744 1203.4648,-330.9633"/>
<path fill="none" stroke="#a52a2a" d="M954.0885,-231.505C961.9331,-235.0652 969.7548,-239.4915 976.2258,-244.7756 998.3449,-261.74 987.6738,-281.9908 1012.3181,-298.8424 1028.8638,-309.3198 1125.1966,-323.1541 1203.2157,-332.9477"/>
<polygon fill="#0000ff" stroke="#0000ff" points="1203.3709,-335.4863 1213.7269,-333.2492 1204.2362,-328.5399 1203.3709,-335.4863"/>
</g>
<!-- dis -->
<g id="node11" class="node">
<title>dis</title>
<ellipse fill="none" stroke="#000000" cx="1306.5467" cy="-283" rx="104.7816" ry="18"/>
<text text-anchor="middle" x="1306.5467" y="-279.3" font-family="Times,serif" font-size="14.00" fill="#000000">Treated wastewater</text>
</g>
<!-- wwt&#45;&gt;dis -->
<g id="edge13" class="edge">
<title>wwt&#45;&gt;dis</title>
<path fill="none" stroke="#0000ff" d="M1129.9984,-273.4864C1149.3946,-274.5316 1172.8666,-275.7964 1196.2754,-277.0578"/>
<polygon fill="#0000ff" stroke="#0000ff" points="1196.1179,-280.5543 1206.2918,-277.5976 1196.4946,-273.5645 1196.1179,-280.5543"/>
</g>
<!-- slu -->
<g id="node14" class="node">
<title>slu</title>
<ellipse fill="none" stroke="#000000" cx="1306.5467" cy="-169" rx="63.0888" ry="18"/>
<text text-anchor="middle" x="1306.5467" y="-165.3" font-family="Times,serif" font-size="14.00" fill="#000000">Dry Sludge</text>
</g>
<!-- wwt&#45;&gt;slu -->
<g id="edge17" class="edge">
<title>wwt&#45;&gt;slu</title>
<path fill="none" stroke="#a52a2a" d="M1130.2549,-256.4559C1141.0744,-252.7039 1152.467,-248.4566 1162.857,-244 1200.1942,-227.985 1241.1191,-206.1796 1269.7097,-190.2086"/>
<polygon fill="#a52a2a" stroke="#a52a2a" points="1271.5384,-193.1957 1278.5387,-185.243 1268.1069,-187.0945 1271.5384,-193.1957"/>
</g>
<!-- ons&#45;&gt;dis -->
<g id="edge14" class="edge">
<title>ons&#45;&gt;dis</title>
<path fill="none" stroke="#0000ff" d="M1138.1877,-235.0406C1152.6633,-239.7158 1168.3195,-244.6548 1182.857,-249 1201.2153,-254.4872 1221.2047,-260.1265 1239.6553,-265.1958"/>
<polygon fill="#0000ff" stroke="#0000ff" points="1238.8667,-268.6086 1249.4358,-267.8696 1240.7127,-261.8564 1238.8667,-268.6086"/>
</g>
<!-- ons&#45;&gt;slu -->
<g id="edge18" class="edge">
<title>ons&#45;&gt;slu</title>
<path fill="none" stroke="#a52a2a" d="M1154.9297,-201.6805C1184.2915,-195.3517 1217.9715,-188.0921 1246.1189,-182.025"/>
<polygon fill="#a52a2a" stroke="#a52a2a" points="1247.1824,-185.3762 1256.2204,-179.8477 1245.7074,-178.5334 1247.1824,-185.3762"/>
</g>
<!-- riv -->
<g id="node12" class="node">
<title>riv</title>
<ellipse fill="none" stroke="#000000" cx="1605.7734" cy="-288" rx="126.6443" ry="26.7407"/>
<text text-anchor="middle" x="1605.7734" y="-291.8" font-family="Times,serif" font-size="14.00" fill="#000000">Freshwater, estuarine,</text>
<text text-anchor="middle" x="1605.7734" y="-276.8" font-family="Times,serif" font-size="14.00" fill="#000000">marine environments</text>
</g>
<!-- unt&#45;&gt;riv -->
<g id="edge11" class="edge">
<title>unt&#45;&gt;riv</title>
<path fill="none" stroke="#0000ff" d="M1380.3289,-329.1744C1416.5456,-322.3964 1460.7877,-314.1166 1500.4449,-306.6948"/>
<path fill="none" stroke="#a52a2a" d="M1380.6968,-331.1402C1416.9135,-324.3623 1461.1557,-316.0824 1500.8128,-308.6606"/>
<polygon fill="#0000ff" stroke="#0000ff" points="1501.4192,-311.0906 1510.6047,-305.8107 1500.1315,-304.2101 1501.4192,-311.0906"/>
</g>
<!-- soi -->
<g id="node13" class="node">
<title>soi</title>
<ellipse fill="none" stroke="#000000" cx="1605.7734" cy="-351" rx="147.5738" ry="18"/>
<text text-anchor="middle" x="1605.7734" y="-347.3" font-family="Times,serif" font-size="14.00" fill="#000000">Soils (agriculture, reuse, etc)</text>
</g>
<!-- unt&#45;&gt;soi -->
<g id="edge12" class="edge">
<title>unt&#45;&gt;soi</title>
<path fill="none" stroke="#0000ff" d="M1420.9757,-345.6766C1430.7511,-345.9053 1440.7391,-346.139 1450.7596,-346.3734"/>
<path fill="none" stroke="#a52a2a" d="M1420.9289,-347.6761C1430.7043,-347.9048 1440.6923,-348.1384 1450.7128,-348.3728"/>
<polygon fill="#0000ff" stroke="#0000ff" points="1450.6817,-350.8727 1460.7609,-347.6076 1450.8455,-343.8746 1450.6817,-350.8727"/>
</g>
<!-- dis&#45;&gt;riv -->
<g id="edge15" class="edge">
<title>dis&#45;&gt;riv</title>
<path fill="none" stroke="#0000ff" d="M1410.7816,-284.7417C1429.6688,-285.0573 1449.6217,-285.3907 1469.2707,-285.7191"/>
<polygon fill="#0000ff" stroke="#0000ff" points="1469.4537,-289.2225 1479.5109,-285.8902 1469.5708,-282.2235 1469.4537,-289.2225"/>
</g>
<!-- dis&#45;&gt;soi -->
<g id="edge16" class="edge">
<title>dis&#45;&gt;soi</title>
<path fill="none" stroke="#0000ff" d="M1359.9809,-298.606C1388.9179,-306.7624 1425.3761,-316.5658 1458.2364,-324 1474.5842,-327.6985 1492.0383,-331.244 1509.009,-334.4797"/>
<polygon fill="#0000ff" stroke="#0000ff" points="1508.4582,-337.9374 1518.9331,-336.3478 1509.7532,-331.0582 1508.4582,-337.9374"/>
</g>
<!-- Atmosphere -->
<g id="node19" class="node">
<title>Atmosphere</title>
<ellipse fill="none" stroke="#000000" cx="1856.9043" cy="-169" rx="67.6881" ry="18"/>
<text text-anchor="middle" x="1856.9043" y="-165.3" font-family="Times,serif" font-size="14.00" fill="#000000">Atmosphere</text>
</g>
<!-- riv&#45;&gt;Atmosphere -->
<g id="edge23" class="edge">
<title>riv&#45;&gt;Atmosphere</title>
<path fill="none" stroke="#c0c0c0" d="M1703.2327,-270.7363C1723.0549,-265.2643 1743.327,-258.1632 1761.3103,-249 1788.8115,-234.987 1815.3409,-211.7567 1833.4452,-193.9291"/>
<polygon fill="#c0c0c0" stroke="#c0c0c0" points="1836.1005,-196.2224 1840.6667,-186.662 1831.1352,-191.2883 1836.1005,-196.2224"/>
</g>
<!-- soi&#45;&gt;Atmosphere -->
<g id="edge24" class="edge">
<title>soi&#45;&gt;Atmosphere</title>
<path fill="none" stroke="#c0c0c0" d="M1726.9728,-340.5676C1739.1595,-336.4654 1750.8698,-331.0666 1761.3103,-324 1806.9447,-293.1123 1834.7516,-232.4346 1847.8528,-196.8491"/>
<polygon fill="#c0c0c0" stroke="#c0c0c0" points="1851.2672,-197.692 1851.3057,-187.0973 1844.6686,-195.3556 1851.2672,-197.692"/>
</g>
<!-- inc -->
<g id="node15" class="node">
<title>inc</title>
<ellipse fill="none" stroke="#000000" cx="1605.7734" cy="-34" rx="67.6881" ry="18"/>
<text text-anchor="middle" x="1605.7734" y="-30.3" font-family="Times,serif" font-size="14.00" fill="#000000">Incineration</text>
</g>
<!-- slu&#45;&gt;inc -->
<g id="edge19" class="edge">
<title>slu&#45;&gt;inc</title>
<path fill="none" stroke="#a52a2a" d="M1324.9945,-151.6796C1352.0097,-127.3534 1404.9343,-83.5271 1458.2364,-61 1481.0075,-51.3763 1507.1799,-45.1772 1531.0993,-41.1862"/>
<polygon fill="#a52a2a" stroke="#a52a2a" points="1531.8568,-44.6103 1541.196,-39.6074 1530.7753,-37.6944 1531.8568,-44.6103"/>
</g>
<!-- laf -->
<g id="node16" class="node">
<title>laf</title>
<ellipse fill="none" stroke="#000000" cx="1605.7734" cy="-88" rx="61.1893" ry="18"/>
<text text-anchor="middle" x="1605.7734" y="-84.3" font-family="Times,serif" font-size="14.00" fill="#000000">Landfilling</text>
</g>
<!-- slu&#45;&gt;laf -->
<g id="edge20" class="edge">
<title>slu&#45;&gt;laf</title>
<path fill="none" stroke="#a52a2a" d="M1342.807,-154.2285C1373.2157,-142.2946 1418.0011,-125.7682 1458.2364,-115 1484.8841,-107.8683 1514.7423,-102.0154 1540.5905,-97.6042"/>
<polygon fill="#a52a2a" stroke="#a52a2a" points="1541.3679,-101.023 1550.6551,-95.9242 1540.2153,-94.1185 1541.3679,-101.023"/>
</g>
<!-- lap -->
<g id="node17" class="node">
<title>lap</title>
<ellipse fill="none" stroke="#000000" cx="1605.7734" cy="-142" rx="90.1842" ry="18"/>
<text text-anchor="middle" x="1605.7734" y="-138.3" font-family="Times,serif" font-size="14.00" fill="#000000">Land Application</text>
</g>
<!-- slu&#45;&gt;lap -->
<g id="edge21" class="edge">
<title>slu&#45;&gt;lap</title>
<path fill="none" stroke="#a52a2a" d="M1366.7397,-163.5686C1408.723,-159.7804 1465.5445,-154.6532 1513.2535,-150.3483"/>
<polygon fill="#a52a2a" stroke="#a52a2a" points="1513.6422,-153.8276 1523.2871,-149.4429 1513.013,-146.8559 1513.6422,-153.8276"/>
</g>
<!-- com -->
<g id="node18" class="node">
<title>com</title>
<ellipse fill="none" stroke="#000000" cx="1605.7734" cy="-196" rx="66.8882" ry="18"/>
<text text-anchor="middle" x="1605.7734" y="-192.3" font-family="Times,serif" font-size="14.00" fill="#000000">Composting</text>
</g>
<!-- slu&#45;&gt;com -->
<g id="edge22" class="edge">
<title>slu&#45;&gt;com</title>
<path fill="none" stroke="#a52a2a" d="M1366.7397,-174.4314C1414.3192,-178.7246 1480.9562,-184.7374 1531.7893,-189.3242"/>
<polygon fill="#a52a2a" stroke="#a52a2a" points="1531.7849,-192.838 1542.059,-190.2509 1532.414,-185.8663 1531.7849,-192.838"/>
</g>
<!-- inc&#45;&gt;Atmosphere -->
<g id="edge25" class="edge">
<title>inc&#45;&gt;Atmosphere</title>
<path fill="none" stroke="#c0c0c0" d="M1673.3771,-35.904C1701.9767,-39.1284 1734.7462,-46.1736 1761.3103,-61 1795.9728,-80.3464 1824.3639,-117.1483 1840.9583,-142.3676"/>
<polygon fill="#c0c0c0" stroke="#c0c0c0" points="1838.1931,-144.5403 1846.528,-151.081 1844.0912,-140.7702 1838.1931,-144.5403"/>
</g>
<!-- laf&#45;&gt;Atmosphere -->
<g id="edge26" class="edge">
<title>laf&#45;&gt;Atmosphere</title>
<path fill="none" stroke="#c0c0c0" d="M1664.2298,-93.3492C1693.926,-97.2589 1730.2093,-103.8919 1761.3103,-115 1783.1692,-122.8072 1805.8625,-135.4055 1823.6504,-146.4703"/>
<polygon fill="#c0c0c0" stroke="#c0c0c0" points="1822.1585,-149.6694 1832.4747,-152.0833 1825.9155,-143.763 1822.1585,-149.6694"/>
</g>
<!-- lap&#45;&gt;Atmosphere -->
<g id="edge27" class="edge">
<title>lap&#45;&gt;Atmosphere</title>
<path fill="none" stroke="#c0c0c0" d="M1685.5778,-150.5801C1717.0626,-153.9651 1752.9942,-157.8282 1783.7928,-161.1395"/>
<polygon fill="#c0c0c0" stroke="#c0c0c0" points="1783.7101,-164.6507 1794.027,-162.2398 1784.4584,-157.6908 1783.7101,-164.6507"/>
</g>
<!-- com&#45;&gt;Atmosphere -->
<g id="edge28" class="edge">
<title>com&#45;&gt;Atmosphere</title>
<path fill="none" stroke="#c0c0c0" d="M1668.1733,-189.2912C1703.2276,-185.5223 1747.1627,-180.7987 1783.8206,-176.8575"/>
<polygon fill="#c0c0c0" stroke="#c0c0c0" points="1784.3851,-180.3171 1793.9536,-175.7681 1783.6368,-173.3572 1784.3851,-180.3171"/>
</g>
</g>
</svg>
