<?xml version="1.0" encoding="UTF-8" standalone="no"?>
<!DOCTYPE svg PUBLIC "-//W3C//DTD SVG 1.1//EN"
 "http://www.w3.org/Graphics/SVG/1.1/DTD/svg11.dtd">
<!-- Generated by graphviz version 2.43.0 (0)
 -->
<!-- Title: MyGraph Pages: 1 -->
<svg width="1946pt" height="416pt"
 viewBox="0.00 0.00 1945.91 416.00" xmlns="http://www.w3.org/2000/svg" xmlns:xlink="http://www.w3.org/1999/xlink">
<g id="graph0" class="graph" transform="scale(1 1) rotate(0) translate(4 412)">
<title>MyGraph</title>
<polygon fill="white" stroke="transparent" points="-4,4 -4,-412 1941.91,-412 1941.91,4 -4,4"/>
<g id="clust1" class="cluster">
<title>cluster_ws</title>
<polygon fill="none" stroke="black" points="8,-218 8,-293 390,-293 390,-218 8,-218"/>
<text text-anchor="middle" x="199" y="-277.8" font-family="Times,serif" font-size="14.00">Water Supply</text>
</g>
<g id="clust2" class="cluster">
<title>cluster_ww</title>
<polygon fill="none" stroke="black" points="565.59,-191 565.59,-320 1180.17,-320 1180.17,-191 565.59,-191"/>
<text text-anchor="middle" x="872.88" y="-304.8" font-family="Times,serif" font-size="14.00">Wastewater</text>
</g>
<g id="clust4" class="cluster">
<title>cluster_dis</title>
<polygon fill="none" stroke="black" points="1200.17,-253 1200.17,-400 1776.02,-400 1776.02,-253 1200.17,-253"/>
<text text-anchor="middle" x="1488.09" y="-384.8" font-family="Times,serif" font-size="14.00">Discharge</text>
</g>
<g id="clust9" class="cluster">
<title>cluster_sm</title>
<polygon fill="none" stroke="black" points="1252.81,-8 1252.81,-245 1718.82,-245 1718.82,-8 1252.81,-8"/>
<text text-anchor="middle" x="1485.82" y="-229.8" font-family="Times,serif" font-size="14.00">Sludge Management</text>
</g>
<!-- wsa -->
<g id="node1" class="node">
<title>wsa</title>
<polygon fill="#58c1db" stroke="#58c1db" points="115,-262 16,-262 16,-226 115,-226 115,-262"/>
<text text-anchor="middle" x="65.5" y="-240.3" font-family="Times,serif" font-size="14.00" fill="white">Abstraction</text>
</g>
<!-- wst -->
<g id="node2" class="node">
<title>wst</title>
<polygon fill="#58c1db" stroke="#58c1db" points="243,-262 151,-262 151,-226 243,-226 243,-262"/>
<text text-anchor="middle" x="197" y="-240.3" font-family="Times,serif" font-size="14.00" fill="white">Treatment</text>
</g>
<!-- wsa&#45;&gt;wst -->
<g id="edge1" class="edge">
<title>wsa&#45;&gt;wst</title>
<path fill="none" stroke="blue" d="M115.09,-244C123.46,-244 132.21,-244 140.74,-244"/>
<polygon fill="blue" stroke="blue" points="140.99,-247.5 150.99,-244 140.99,-240.5 140.99,-247.5"/>
</g>
<!-- wsd -->
<g id="node3" class="node">
<title>wsd</title>
<polygon fill="#58c1db" stroke="#58c1db" points="382,-262 279,-262 279,-226 382,-226 382,-262"/>
<text text-anchor="middle" x="330.5" y="-240.3" font-family="Times,serif" font-size="14.00" fill="white">Distribution</text>
</g>
<!-- wst&#45;&gt;wsd -->
<g id="edge2" class="edge">
<title>wst&#45;&gt;wsd</title>
<path fill="none" stroke="blue" d="M243.25,-244C251.39,-244 259.99,-244 268.48,-244"/>
<polygon fill="blue" stroke="blue" points="268.75,-247.5 278.75,-244 268.75,-240.5 268.75,-247.5"/>
</g>
<!-- pop -->
<g id="node4" class="node">
<title>pop</title>
<ellipse fill="none" stroke="black" cx="477.79" cy="-244" rx="59.59" ry="18"/>
<text text-anchor="middle" x="477.79" y="-240.3" font-family="Times,serif" font-size="14.00">Population</text>
</g>
<!-- wsd&#45;&gt;pop -->
<g id="edge3" class="edge">
<title>wsd&#45;&gt;pop</title>
<path fill="none" stroke="blue" d="M382.32,-244C390.55,-244 399.2,-244 407.78,-244"/>
<polygon fill="blue" stroke="blue" points="407.79,-247.5 417.79,-244 407.79,-240.5 407.79,-247.5"/>
</g>
<!-- ww -->
<g id="node5" class="node">
<title>ww</title>
<ellipse fill="none" stroke="black" cx="639.23" cy="-244" rx="65.79" ry="18"/>
<text text-anchor="middle" x="639.23" y="-240.3" font-family="Times,serif" font-size="14.00">Wastewater</text>
</g>
<!-- pop&#45;&gt;ww -->
<g id="edge4" class="edge">
<title>pop&#45;&gt;ww</title>
<path fill="none" stroke="blue" d="M537.71,-243C546.06,-243 554.74,-243 563.35,-243"/>
<path fill="none" stroke="brown" d="M537.71,-245C546.06,-245 554.74,-245 563.35,-245"/>
<polygon fill="blue" stroke="blue" points="563.39,-247.5 573.39,-244 563.39,-240.5 563.39,-247.5"/>
</g>
<!-- tra -->
<g id="node6" class="node">
<title>tra</title>
<polygon fill="#ed6d57" stroke="#ed6d57" points="827.88,-262 740.88,-262 740.88,-226 827.88,-226 827.88,-262"/>
<text text-anchor="middle" x="784.38" y="-240.3" font-family="Times,serif" font-size="14.00" fill="white">Transport</text>
</g>
<!-- ww&#45;&gt;tra -->
<g id="edge5" class="edge">
<title>ww&#45;&gt;tra</title>
<path fill="none" stroke="blue" d="M705.1,-243C713.73,-243 722.49,-243 730.86,-243"/>
<path fill="none" stroke="brown" d="M705.1,-245C713.73,-245 722.49,-245 730.86,-245"/>
<polygon fill="blue" stroke="blue" points="730.87,-247.5 740.87,-244 730.87,-240.5 730.87,-247.5"/>
</g>
<!-- col -->
<g id="node7" class="node">
<title>col</title>
<ellipse fill="none" stroke="black" cx="929.52" cy="-271" rx="53.89" ry="18"/>
<text text-anchor="middle" x="929.52" y="-267.3" font-family="Times,serif" font-size="14.00">Collected</text>
</g>
<!-- tra&#45;&gt;col -->
<g id="edge6" class="edge">
<title>tra&#45;&gt;col</title>
<path fill="none" stroke="blue" d="M828.12,-251.05C841.98,-253.66 857.59,-256.6 872.3,-259.38"/>
<path fill="none" stroke="brown" d="M827.75,-253.01C841.61,-255.62 857.22,-258.57 871.93,-261.34"/>
<polygon fill="blue" stroke="blue" points="871.65,-263.83 882.13,-262.25 872.95,-256.96 871.65,-263.83"/>
</g>
<!-- unc -->
<g id="node8" class="node">
<title>unc</title>
<ellipse fill="none" stroke="black" cx="929.52" cy="-217" rx="65.79" ry="18"/>
<text text-anchor="middle" x="929.52" y="-213.3" font-family="Times,serif" font-size="14.00">Uncollected</text>
</g>
<!-- tra&#45;&gt;unc -->
<g id="edge7" class="edge">
<title>tra&#45;&gt;unc</title>
<path fill="none" stroke="blue" d="M827.75,-234.99C839.39,-232.79 852.27,-230.37 864.8,-228"/>
<path fill="none" stroke="brown" d="M828.12,-236.95C839.76,-234.76 852.64,-232.33 865.18,-229.97"/>
<polygon fill="blue" stroke="blue" points="865.77,-232.4 874.94,-227.11 864.47,-225.52 865.77,-232.4"/>
</g>
<!-- wwt -->
<g id="node9" class="node">
<title>wwt</title>
<polygon fill="#ed6d57" stroke="#ed6d57" points="1147.67,-289 1055.67,-289 1055.67,-253 1147.67,-253 1147.67,-289"/>
<text text-anchor="middle" x="1101.67" y="-267.3" font-family="Times,serif" font-size="14.00" fill="white">Treatment</text>
</g>
<!-- col&#45;&gt;wwt -->
<g id="edge9" class="edge">
<title>col&#45;&gt;wwt</title>
<path fill="none" stroke="blue" d="M983.89,-270C1003.48,-270 1025.68,-270 1045.42,-270"/>
<path fill="none" stroke="brown" d="M983.89,-272C1003.48,-272 1025.68,-272 1045.42,-272"/>
<polygon fill="blue" stroke="blue" points="1045.5,-274.5 1055.5,-271 1045.5,-267.5 1045.5,-274.5"/>
</g>
<!-- unt -->
<g id="node11" class="node">
<title>unt</title>
<ellipse fill="none" stroke="black" cx="1323.86" cy="-344" rx="115.88" ry="18"/>
<text text-anchor="middle" x="1323.86" y="-340.3" font-family="Times,serif" font-size="14.00">Untreated wastewater</text>
</g>
<!-- col&#45;&gt;unt -->
<g id="edge10" class="edge">
<title>col&#45;&gt;unt</title>
<path fill="none" stroke="blue" d="M952.03,-286.9C971.38,-301.29 1001.7,-321.17 1031.45,-330.04 1088.14,-347.05 1154.08,-351.21 1208.78,-350.71"/>
<path fill="none" stroke="brown" d="M950.83,-288.51C970.28,-302.96 1000.61,-322.85 1030.88,-331.96 1088.02,-349.05 1153.96,-353.21 1208.8,-352.71"/>
<polygon fill="blue" stroke="blue" points="1208.94,-355.21 1218.89,-351.57 1208.84,-348.21 1208.94,-355.21"/>
</g>
<!-- ons -->
<g id="node10" class="node">
<title>ons</title>
<polygon fill="#ed6d57" stroke="#ed6d57" points="1172.17,-235 1031.17,-235 1031.17,-199 1172.17,-199 1172.17,-235"/>
<text text-anchor="middle" x="1101.67" y="-213.3" font-family="Times,serif" font-size="14.00" fill="white">Onsite Sanitation</text>
</g>
<!-- unc&#45;&gt;ons -->
<g id="edge8" class="edge">
<title>unc&#45;&gt;ons</title>
<path fill="none" stroke="blue" d="M995.33,-216C1003.7,-216 1012.35,-216 1020.92,-216"/>
<path fill="none" stroke="brown" d="M995.33,-218C1003.7,-218 1012.35,-218 1020.92,-218"/>
<polygon fill="blue" stroke="blue" points="1020.94,-220.5 1030.94,-217 1020.94,-213.5 1020.94,-220.5"/>
</g>
<!-- unc&#45;&gt;unt -->
<g id="edge11" class="edge">
<title>unc&#45;&gt;unt</title>
<path fill="none" stroke="blue" d="M973.66,-229.72C981.51,-233.38 989.19,-237.8 995.8,-243.23 1018.31,-262.81 1007.76,-282.91 1031.71,-297.16 1047.35,-307.28 1143.02,-321.12 1220.48,-330.93"/>
<path fill="none" stroke="brown" d="M972.82,-231.54C980.51,-235.11 988.19,-239.53 994.53,-244.77 1016.54,-261.88 1005.99,-281.98 1030.63,-298.84 1047.06,-309.26 1142.74,-323.1 1220.23,-332.92"/>
<polygon fill="blue" stroke="blue" points="1220.31,-335.45 1230.67,-333.22 1221.18,-328.5 1220.31,-335.45"/>
</g>
<!-- dis -->
<g id="node12" class="node">
<title>dis</title>
<ellipse fill="none" stroke="black" cx="1323.86" cy="-283" rx="103.98" ry="18"/>
<text text-anchor="middle" x="1323.86" y="-279.3" font-family="Times,serif" font-size="14.00">Treated wastewater</text>
</g>
<!-- wwt&#45;&gt;dis -->
<g id="edge14" class="edge">
<title>wwt&#45;&gt;dis</title>
<path fill="none" stroke="blue" d="M1147.76,-273.46C1167.13,-274.51 1190.69,-275.8 1214.17,-277.08"/>
<polygon fill="blue" stroke="blue" points="1214.04,-280.57 1224.21,-277.62 1214.42,-273.59 1214.04,-280.57"/>
</g>
<!-- slu -->
<g id="node15" class="node">
<title>slu</title>
<ellipse fill="none" stroke="black" cx="1323.86" cy="-169" rx="63.09" ry="18"/>
<text text-anchor="middle" x="1323.86" y="-165.3" font-family="Times,serif" font-size="14.00">Dry Sludge</text>
</g>
<!-- wwt&#45;&gt;slu -->
<g id="edge18" class="edge">
<title>wwt&#45;&gt;slu</title>
<path fill="none" stroke="brown" d="M1147.77,-256.56C1158.51,-252.77 1169.84,-248.48 1180.17,-244 1217.34,-227.86 1258.12,-205.98 1286.53,-190.02"/>
<polygon fill="brown" stroke="brown" points="1288.32,-193.03 1295.3,-185.06 1284.87,-186.93 1288.32,-193.03"/>
</g>
<!-- ons&#45;&gt;dis -->
<g id="edge15" class="edge">
<title>ons&#45;&gt;dis</title>
<path fill="none" stroke="blue" d="M1156.16,-235.06C1170.42,-239.73 1185.84,-244.67 1200.17,-249 1218.46,-254.53 1238.39,-260.21 1256.77,-265.3"/>
<polygon fill="blue" stroke="blue" points="1255.93,-268.7 1266.5,-267.98 1257.79,-261.95 1255.93,-268.7"/>
</g>
<!-- ons&#45;&gt;slu -->
<g id="edge19" class="edge">
<title>ons&#45;&gt;slu</title>
<path fill="none" stroke="brown" d="M1172.34,-201.81C1201.51,-195.45 1235.08,-188.13 1263.11,-182.02"/>
<polygon fill="brown" stroke="brown" points="1264.14,-185.38 1273.17,-179.83 1262.65,-178.54 1264.14,-185.38"/>
</g>
<!-- riv -->
<g id="node13" class="node">
<title>riv</title>
<ellipse fill="none" stroke="black" cx="1621.78" cy="-288" rx="126.64" ry="26.74"/>
<text text-anchor="middle" x="1621.78" y="-291.8" font-family="Times,serif" font-size="14.00">Freshwater, estuarine,</text>
<text text-anchor="middle" x="1621.78" y="-276.8" font-family="Times,serif" font-size="14.00">marine environments</text>
</g>
<!-- unt&#45;&gt;riv -->
<g id="edge12" class="edge">
<title>unt&#45;&gt;riv</title>
<path fill="none" stroke="blue" d="M1397.82,-329.17C1433.64,-322.4 1477.39,-314.12 1516.61,-306.7"/>
<path fill="none" stroke="brown" d="M1398.19,-331.14C1434.01,-324.36 1477.76,-316.08 1516.98,-308.66"/>
<polygon fill="blue" stroke="blue" points="1517.49,-311.11 1526.66,-305.81 1516.19,-304.23 1517.49,-311.11"/>
</g>
<!-- soi -->
<g id="node14" class="node">
<title>soi</title>
<ellipse fill="none" stroke="black" cx="1621.78" cy="-351" rx="146.47" ry="18"/>
<text text-anchor="middle" x="1621.78" y="-347.3" font-family="Times,serif" font-size="14.00">Soils (agriculture, reuse, etc)</text>
</g>
<!-- unt&#45;&gt;soi -->
<g id="edge13" class="edge">
<title>unt&#45;&gt;soi</title>
<path fill="none" stroke="blue" d="M1438.45,-345.69C1448.06,-345.91 1457.89,-346.15 1467.74,-346.38"/>
<path fill="none" stroke="brown" d="M1438.4,-347.69C1448.02,-347.91 1457.84,-348.15 1467.69,-348.38"/>
<polygon fill="blue" stroke="blue" points="1467.91,-350.88 1477.99,-347.62 1468.07,-343.89 1467.91,-350.88"/>
</g>
<!-- dis&#45;&gt;riv -->
<g id="edge16" class="edge">
<title>dis&#45;&gt;riv</title>
<path fill="none" stroke="blue" d="M1427.53,-284.73C1446.22,-285.05 1465.98,-285.38 1485.45,-285.71"/>
<polygon fill="blue" stroke="blue" points="1485.54,-289.22 1495.59,-285.88 1485.65,-282.22 1485.54,-289.22"/>
</g>
<!-- dis&#45;&gt;soi -->
<g id="edge17" class="edge">
<title>dis&#45;&gt;soi</title>
<path fill="none" stroke="blue" d="M1377.59,-298.49C1406.39,-306.65 1442.77,-316.51 1475.55,-324 1491.74,-327.7 1509.04,-331.26 1525.85,-334.51"/>
<polygon fill="blue" stroke="blue" points="1525.2,-337.95 1535.68,-336.39 1526.51,-331.07 1525.2,-337.95"/>
</g>
<!-- Atmosphere -->
<g id="node20" class="node">
<title>Atmosphere</title>
<ellipse fill="none" stroke="black" cx="1870.96" cy="-169" rx="66.89" ry="18"/>
<text text-anchor="middle" x="1870.96" y="-165.3" font-family="Times,serif" font-size="14.00">Atmosphere</text>
</g>
<!-- riv&#45;&gt;Atmosphere -->
<g id="edge24" class="edge">
<title>riv&#45;&gt;Atmosphere</title>
<path fill="none" stroke="grey" d="M1718.86,-270.71C1738.39,-265.24 1758.34,-258.14 1776.02,-249 1803.16,-234.96 1829.22,-211.74 1846.98,-193.92"/>
<polygon fill="grey" stroke="grey" points="1849.58,-196.26 1854.06,-186.65 1844.57,-191.37 1849.58,-196.26"/>
</g>
<!-- soi&#45;&gt;Atmosphere -->
<g id="edge25" class="edge">
<title>soi&#45;&gt;Atmosphere</title>
<path fill="none" stroke="grey" d="M1741.86,-340.6C1754,-336.5 1765.65,-331.09 1776.02,-324 1821.28,-293.03 1848.46,-232.38 1861.19,-196.82"/>
<polygon fill="grey" stroke="grey" points="1864.6,-197.67 1864.55,-187.08 1857.98,-195.4 1864.6,-197.67"/>
</g>
<!-- inc -->
<g id="node16" class="node">
<title>inc</title>
<ellipse fill="none" stroke="black" cx="1621.78" cy="-34" rx="66.89" ry="18"/>
<text text-anchor="middle" x="1621.78" y="-30.3" font-family="Times,serif" font-size="14.00">Incineration</text>
</g>
<!-- slu&#45;&gt;inc -->
<g id="edge20" class="edge">
<title>slu&#45;&gt;inc</title>
<path fill="none" stroke="brown" d="M1343.17,-151.7C1369.99,-127.39 1422.54,-83.59 1475.55,-61 1498.15,-51.37 1524.18,-45.16 1547.9,-41.17"/>
<polygon fill="brown" stroke="brown" points="1548.58,-44.61 1557.91,-39.59 1547.49,-37.69 1548.58,-44.61"/>
</g>
<!-- laf -->
<g id="node17" class="node">
<title>laf</title>
<ellipse fill="none" stroke="black" cx="1621.78" cy="-88" rx="59.59" ry="18"/>
<text text-anchor="middle" x="1621.78" y="-84.3" font-family="Times,serif" font-size="14.00">Landfilling</text>
</g>
<!-- slu&#45;&gt;laf -->
<g id="edge21" class="edge">
<title>slu&#45;&gt;laf</title>
<path fill="none" stroke="brown" d="M1360.57,-154.37C1390.78,-142.43 1435.44,-125.84 1475.55,-115 1502.1,-107.82 1531.9,-101.92 1557.56,-97.48"/>
<polygon fill="brown" stroke="brown" points="1558.27,-100.91 1567.55,-95.8 1557.1,-94.01 1558.27,-100.91"/>
</g>
<!-- lap -->
<g id="node18" class="node">
<title>lap</title>
<ellipse fill="none" stroke="black" cx="1621.78" cy="-142" rx="89.08" ry="18"/>
<text text-anchor="middle" x="1621.78" y="-138.3" font-family="Times,serif" font-size="14.00">Land Application</text>
</g>
<!-- slu&#45;&gt;lap -->
<g id="edge22" class="edge">
<title>slu&#45;&gt;lap</title>
<path fill="none" stroke="brown" d="M1384.03,-163.6C1425.92,-159.78 1482.87,-154.58 1530.42,-150.24"/>
<polygon fill="brown" stroke="brown" points="1530.77,-153.73 1540.41,-149.33 1530.13,-146.76 1530.77,-153.73"/>
</g>
<!-- com -->
<g id="node19" class="node">
<title>com</title>
<ellipse fill="none" stroke="black" cx="1621.78" cy="-196" rx="66.09" ry="18"/>
<text text-anchor="middle" x="1621.78" y="-192.3" font-family="Times,serif" font-size="14.00">Composting</text>
</g>
<!-- slu&#45;&gt;com -->
<g id="edge23" class="edge">
<title>slu&#45;&gt;com</title>
<path fill="none" stroke="brown" d="M1384.03,-174.4C1431.37,-178.72 1497.95,-184.79 1548.45,-189.4"/>
<polygon fill="brown" stroke="brown" points="1548.37,-192.91 1558.65,-190.33 1549.01,-185.94 1548.37,-192.91"/>
</g>
<!-- inc&#45;&gt;Atmosphere -->
<g id="edge26" class="edge">
<title>inc&#45;&gt;Atmosphere</title>
<path fill="none" stroke="grey" d="M1688.69,-35.88C1717.06,-39.08 1749.68,-46.11 1776.02,-61 1810.31,-80.39 1838.16,-117.18 1854.39,-142.39"/>
<polygon fill="grey" stroke="grey" points="1851.57,-144.47 1859.84,-151.1 1857.5,-140.76 1851.57,-144.47"/>
</g>
<!-- laf&#45;&gt;Atmosphere -->
<g id="edge27" class="edge">
<title>laf&#45;&gt;Atmosphere</title>
<path fill="none" stroke="grey" d="M1679.32,-93.21C1708.79,-97.1 1745.04,-103.76 1776.02,-115 1797.55,-122.81 1819.86,-135.41 1837.33,-146.48"/>
<polygon fill="grey" stroke="grey" points="1835.7,-149.59 1845.99,-152.09 1839.5,-143.71 1835.7,-149.59"/>
</g>
<!-- lap&#45;&gt;Atmosphere -->
<g id="edge28" class="edge">
<title>lap&#45;&gt;Atmosphere</title>
<path fill="none" stroke="grey" d="M1700.65,-150.51C1731.93,-153.92 1767.75,-157.84 1798.37,-161.18"/>
<polygon fill="grey" stroke="grey" points="1798.22,-164.68 1808.54,-162.29 1798.98,-157.73 1798.22,-164.68"/>
</g>
<!-- com&#45;&gt;Atmosphere -->
<g id="edge29" class="edge">
<title>com&#45;&gt;Atmosphere</title>
<path fill="none" stroke="grey" d="M1683.57,-189.36C1718.32,-185.56 1762.1,-180.78 1798.5,-176.81"/>
<polygon fill="grey" stroke="grey" points="1799,-180.27 1808.56,-175.71 1798.24,-173.31 1799,-180.27"/>
</g>
</g>
</svg>
