<?xml version="1.0" encoding="utf-8"?>
<!-- Generator: Adobe Illustrator 21.0.0, SVG Export Plug-In . SVG Version: 6.00 Build 0)  -->
<svg version="1.1" xmlns="http://www.w3.org/2000/svg" xmlns:xlink="http://www.w3.org/1999/xlink" x="0px" y="0px"
	 viewBox="0 0 182.7 84" style="enable-background:new 0 0 182.7 84;" xml:space="preserve">
<style type="text/css">
	.st0{fill:#327CCB;}
	.st1{opacity:8.000000e-02;fill:#327CCB;}
	.st2{fill:#575756;}
	.st3{fill:none;stroke:#DADADA;stroke-width:0.5;stroke-miterlimit:10;}
	.st4{fill:#F6F6F6;}
	.st5{fill:#EE6D56;}
	.st6{fill:none;}
	.st7{fill:#FFFFFF;}
	.st8{fill:#3C3C3B;}
	.st9{opacity:0.3;}
	.st10{fill:none;stroke:#706F6F;stroke-miterlimit:10;}
	.st11{fill:#706F6F;}
	.st12{fill:none;stroke:#706F6F;stroke-width:2;stroke-linecap:round;stroke-miterlimit:10;}
	.st13{opacity:0.24;fill:#35CB99;}
	.st14{opacity:0.24;fill:#FFBE54;}
	.st15{fill:#35CB99;}
	.st16{fill:#FFBE54;}
	.st17{fill:#C6C6C6;}
	.st18{fill:none;stroke:#F6F6F6;stroke-miterlimit:10;}
	.st19{opacity:0.4;}
	.st20{fill:#B2B2B2;}
	.st21{fill:#DADADA;}
	.st22{opacity:0.18;fill:#327CCB;}
	.st23{opacity:0.5;fill:#327CCB;}
	.st24{opacity:0.5;fill:none;stroke:#327CCB;stroke-width:1.25;stroke-miterlimit:10;}
	.st25{opacity:0.6;fill:#327CCB;}
	.st26{fill:none;stroke:#FFFFFF;stroke-width:0.75;stroke-miterlimit:10;}
	.st27{fill:none;stroke:#3C3C3B;stroke-width:0.5;stroke-linecap:round;stroke-miterlimit:10;}
	.st28{fill:#61CAA0;}
	.st29{fill:#35A877;}
	.st30{fill:#9B5923;}
	.st31{fill:#2C8E71;}
	.st32{fill:#176D50;}
	.st33{fill:#53CC4B;}
	.st34{opacity:0.75;fill:#327CCB;}
	.st35{fill:#E16E6E;}
	.st36{fill:#73C4D1;}
	.st37{fill:none;stroke:#327CCB;stroke-width:1.25;stroke-miterlimit:10;}
	.st38{opacity:0.6;clip-path:url(#SVGID_2_);fill:#327CCB;}
	.st39{clip-path:url(#SVGID_2_);fill:#327CCB;}
	.st40{clip-path:url(#SVGID_2_);fill:#DADADA;}
	.st41{clip-path:url(#SVGID_2_);fill:#F6F6F6;}
	.st42{clip-path:url(#SVGID_2_);fill:none;stroke:#FFFFFF;stroke-width:0.75;stroke-miterlimit:10;}
	.st43{clip-path:url(#SVGID_2_);}
	.st44{clip-path:url(#SVGID_2_);fill:#C6C6C6;}
	.st45{fill:#9D9D9C;}
	.st46{opacity:0.6;clip-path:url(#SVGID_4_);fill:#327CCB;}
	.st47{clip-path:url(#SVGID_4_);fill:#327CCB;}
	.st48{clip-path:url(#SVGID_4_);fill:#DADADA;}
	.st49{clip-path:url(#SVGID_4_);fill:#F6F6F6;}
	.st50{clip-path:url(#SVGID_4_);fill:none;stroke:#FFFFFF;stroke-width:0.75;stroke-miterlimit:10;}
	.st51{clip-path:url(#SVGID_4_);}
	.st52{clip-path:url(#SVGID_4_);fill:#C6C6C6;}
	.st53{opacity:0.6;clip-path:url(#SVGID_6_);fill:#327CCB;}
	.st54{clip-path:url(#SVGID_6_);fill:#327CCB;}
	.st55{clip-path:url(#SVGID_6_);fill:#DADADA;}
	.st56{clip-path:url(#SVGID_6_);fill:#F6F6F6;}
	.st57{clip-path:url(#SVGID_6_);fill:none;stroke:#FFFFFF;stroke-width:0.75;stroke-miterlimit:10;}
	.st58{clip-path:url(#SVGID_6_);}
	.st59{clip-path:url(#SVGID_6_);fill:#C6C6C6;}
	.st60{fill:none;stroke:#FFFFFF;stroke-miterlimit:10;}
	.st61{fill:#7A4900;}
	.st62{fill:#F6D3A9;}
	.st63{opacity:0.1;}
	.st64{fill:#E8CF73;}
	.st65{fill:#F2F2F2;}
	.st66{fill:#D8E8F2;}
	.st67{opacity:0.6;fill:#FFFFFF;}
	.st68{fill:#D7DDE0;}
	.st69{fill:#FFE47E;}
	.st70{fill:none;stroke:#3C3C3B;stroke-miterlimit:10;}
	.st71{fill:#C7A479;}
	.st72{fill:#F4F4F4;}
	.st73{fill:#232C33;}
	.st74{fill:#754F44;}
	.st75{fill:#D9B68B;}
	.st76{fill:#875C4F;}
	.st77{fill:#69543E;}
	.st78{fill:#7A6447;}
	.st79{fill:#806C53;}
	.st80{fill:#0D0D0D;}
	.st81{fill:#E8644D;}
	.st82{fill:#EDCEA8;}
	.st83{fill:#ABE1FA;}
	.st84{fill:#006F9A;}
	.st85{fill:#8DC63F;}
	.st86{fill:#221F1F;}
	.st87{fill:#BBBDBF;}
	.st88{fill:#E6E6E7;}
	.st89{opacity:0.3;fill:#FFFFFF;}
	.st90{fill:#4F93DB;}
	.st91{fill:#EDEDED;}
	.st92{opacity:0.1;fill:#107FC9;}
	.st93{fill:#107FC9;}
	.st94{fill:#8CD0E5;}
	.st95{fill:#DCB166;}
	.st96{fill:#FDD793;}
	.st97{fill:#AA482D;}
	.st98{fill:#76C8D9;}
	.st99{fill:#FFE8C4;}
	.st100{opacity:0.2;}
	.st101{fill:#4E5A84;}
	.st102{fill:none;stroke:#AA5417;stroke-width:0.7522;stroke-miterlimit:10;}
	.st103{fill:#F8B87D;}
	.st104{fill:#E18931;}
	.st105{fill:#AFDDED;}
	.st106{fill:#FAB928;}
	.st107{fill:#C16216;}
	.st108{opacity:0.2;fill:#4E5A84;}
	.st109{fill:#ECE0CC;}
	.st110{fill:#D2C0A4;}
	.st111{fill:none;stroke:#A58A67;stroke-width:0.7522;stroke-linecap:round;stroke-linejoin:round;stroke-miterlimit:10;}
	.st112{fill:#B39A7B;}
	.st113{fill:#2D5F8A;}
	.st114{fill:none;stroke:#61ACDB;stroke-width:0.2507;stroke-miterlimit:10;}
	.st115{fill:#728789;}
	.st116{fill:#98D2DA;}
	.st117{fill:#597274;}
	.st118{fill:#5581A2;}
	.st119{fill:#3C6C8A;}
	.st120{fill:#85CFEB;}
	.st121{fill:#24556E;}
	.st122{fill:#DB4729;}
	.st123{fill:none;stroke:#E18931;stroke-width:0.5015;stroke-linecap:round;stroke-miterlimit:10;}
	.st124{fill:#CF3E21;}
	.st125{fill:none;stroke:#FBC676;stroke-width:0.5015;stroke-miterlimit:10;}
	.st126{fill:#8FD1E4;}
	.st127{fill:#C9E7F0;}
	.st128{fill:#3F7380;}
	.st129{fill:#4BBCCB;}
	.st130{fill:#57BFCC;}
	.st131{fill:none;stroke:#FFFFFF;stroke-width:0.2507;stroke-miterlimit:10;}
	.st132{fill:#2CAAAF;}
	.st133{fill:none;stroke:#57BFCC;stroke-width:0.2507;stroke-miterlimit:10;}
	.st134{fill:#245778;}
	.st135{fill:#2D6B8F;}
	.st136{fill:#3788B2;}
	.st137{fill:#4C8FC1;}
	.st138{fill:#0E314A;}
	.st139{fill:#0C3B5B;}
	.st140{fill:#181F24;}
	.st141{fill:#283640;}
	.st142{fill:#6EC8EA;}
	.st143{fill:#48A4CA;}
	.st144{fill:#585857;}
	.st145{fill:#595958;}
	.st146{fill:#5A5A59;}
	.st147{fill:#5B5B5A;}
	.st148{fill:#5C5C5B;}
	.st149{fill:#5D5D5C;}
	.st150{fill:#5E5E5D;}
	.st151{fill:#5F5F5E;}
	.st152{fill:#60605F;}
	.st153{fill:#616160;}
	.st154{fill:#626261;}
	.st155{fill:#636362;}
	.st156{fill:#646463;}
	.st157{fill:#656564;}
	.st158{fill:#666665;}
	.st159{fill:#676766;}
	.st160{fill:#686867;}
	.st161{fill:#696968;}
	.st162{fill:#6A6A69;}
	.st163{fill:#6B6B6A;}
	.st164{fill:#6C6C6B;}
	.st165{fill:#6D6D6C;}
	.st166{fill:#6E6E6D;}
	.st167{fill:#6F6F6E;}
	.st168{fill:#70706F;}
	.st169{fill:#717170;}
	.st170{fill:#727271;}
	.st171{fill:#737372;}
	.st172{fill:#747473;}
	.st173{fill:#757574;}
	.st174{fill:#767675;}
	.st175{fill:#777776;}
	.st176{fill:#787877;}
	.st177{fill:#797978;}
	.st178{fill:#7A7A79;}
	.st179{fill:#7B7B7A;}
	.st180{fill:#7C7C7B;}
	.st181{fill:#7D7D7C;}
	.st182{fill:#7E7E7D;}
	.st183{fill:#7F7F7E;}
	.st184{fill:#80807F;}
	.st185{fill:#818180;}
	.st186{fill:#828281;}
	.st187{fill:#838382;}
	.st188{fill:#848483;}
	.st189{fill:#858584;}
	.st190{fill:#868685;}
	.st191{fill:#878786;}
	.st192{fill:#888887;}
	.st193{fill:#898988;}
	.st194{fill:#8A8A89;}
	.st195{fill:#8B8B8A;}
	.st196{fill:#8C8C8B;}
	.st197{fill:#8D8D8C;}
	.st198{fill:#8E8E8D;}
	.st199{fill:#8F8F8E;}
	.st200{fill:#90908F;}
	.st201{fill:#919190;}
	.st202{fill:#929291;}
	.st203{fill:#939392;}
	.st204{fill:#949493;}
	.st205{fill:#959594;}
	.st206{fill:#969695;}
	.st207{fill:#979796;}
	.st208{fill:#989897;}
	.st209{fill:#999998;}
	.st210{fill:#9A9A99;}
	.st211{fill:#9B9B9A;}
	.st212{fill:#9C9C9B;}
	.st213{fill:#9E9E9D;}
	.st214{fill:#9F9F9E;}
	.st215{fill:#A0A09F;}
	.st216{fill:#A1A1A0;}
	.st217{fill:#A1A1A1;}
	.st218{fill:#A2A2A2;}
	.st219{fill:#A3A3A3;}
	.st220{fill:#A4A4A4;}
	.st221{fill:#A5A5A5;}
	.st222{fill:#A6A6A6;}
	.st223{fill:#A7A7A7;}
	.st224{fill:#A8A8A8;}
	.st225{fill:#A9A9A9;}
	.st226{fill:#AAAAAA;}
	.st227{fill:#ABABAB;}
	.st228{fill:#ACACAC;}
	.st229{fill:#ADADAD;}
	.st230{fill:#AEAEAE;}
	.st231{fill:#AFAFAF;}
	.st232{fill:#B0B0B0;}
	.st233{fill:#B1B1B1;}
	.st234{fill:#B3B3B3;}
	.st235{fill:#B4B4B4;}
	.st236{fill:#B5B5B5;}
	.st237{fill:#B6B6B6;}
	.st238{fill:#B7B7B7;}
	.st239{fill:#B8B8B8;}
	.st240{fill:#B9B9B9;}
	.st241{fill:#BABABA;}
	.st242{fill:#BBBBBB;}
	.st243{fill:#BCBCBC;}
	.st244{fill:#BDBDBD;}
	.st245{fill:#BEBEBE;}
	.st246{fill:#BFBFBF;}
	.st247{fill:#C0C0C0;}
	.st248{fill:#C1C1C1;}
	.st249{fill:#C2C2C2;}
	.st250{fill:#C3C3C3;}
	.st251{fill:#C4C4C4;}
	.st252{fill:#C5C5C5;}
	.st253{fill:#C7C7C7;}
	.st254{fill:#C8C8C8;}
	.st255{fill:#C9C9C9;}
	.st256{fill:#CACACA;}
	.st257{fill:#CBCBCB;}
	.st258{fill:#CCCCCC;}
	.st259{fill:#CDCDCD;}
	.st260{fill:#CECECE;}
	.st261{fill:#CFCFCF;}
	.st262{fill:#D0D0D0;}
	.st263{fill:#D1D1D1;}
	.st264{fill:#D2D2D2;}
	.st265{fill:#D3D3D3;}
	.st266{fill:#D4D4D4;}
	.st267{fill:#D5D5D5;}
	.st268{fill:#D6D6D6;}
	.st269{fill:#D7D7D7;}
	.st270{fill:#D8D8D8;}
	.st271{fill:#D9D9D9;}
	.st272{fill:#DBDBDB;}
	.st273{fill:#DCDCDC;}
	.st274{fill:#DDDDDD;}
	.st275{fill:#DEDEDE;}
	.st276{fill:#DFDFDF;}
	.st277{fill:#E0E0E0;}
	.st278{fill:#E1E1E1;}
	.st279{fill:#E2E2E2;}
	.st280{fill:#E3E3E3;}
	.st281{fill:#E4E4E4;}
	.st282{fill:#E5E5E5;}
	.st283{fill:#E6E6E6;}
	.st284{fill:#E7E7E7;}
	.st285{fill:#E8E8E8;}
	.st286{fill:#E9E9E9;}
	.st287{fill:#EAEAEA;}
	.st288{fill:#EBEBEB;}
	.st289{fill:#ECECEC;}
	.st290{fill:#242423;}
	.st291{fill:#2C2C2B;}
	.st292{fill:#343432;}
	.st293{fill:#3C3B3A;}
	.st294{fill:#434342;}
	.st295{fill:#4B4B4A;}
	.st296{fill:#535251;}
	.st297{fill:#6A6969;}
	.st298{fill:#818080;}
	.st299{fill:#9F9F9F;}
	.st300{fill:#A7A7A6;}
	.st301{fill:#AFAFAE;}
	.st302{fill:#C6C6C5;}
	.st303{fill:#C3C3C2;}
	.st304{fill:#B5B5B4;}
	.st305{fill:#545453;}
	.st306{fill:#464645;}
	.st307{fill:#393937;}
	.st308{fill:#2B2B29;}
	.st309{fill:#1D1D1B;}
	.st310{fill:none;stroke:#868686;stroke-width:3.137973e-02;stroke-miterlimit:10;}
	.st311{fill:#626262;}
	.st312{fill:#6B6B6B;}
	.st313{fill:#707070;}
	.st314{fill:#797979;}
	.st315{fill:#7E7E7E;}
	.st316{fill:#828282;}
	.st317{fill:#878787;}
	.st318{fill:#8B8B8B;}
	.st319{fill:#8C8C8C;}
	.st320{fill:#909090;}
	.st321{fill:#949494;}
	.st322{fill:#959595;}
	.st323{fill:#999999;}
	.st324{fill:#9A9A9A;}
	.st325{fill:#9D9D9D;}
	.st326{fill:#9E9E9E;}
	.st327{fill:#A5A5A4;}
	.st328{fill:#A6A6A5;}
	.st329{fill:#A9A9A8;}
	.st330{fill:#AAAAA9;}
	.st331{fill:#AEAEAD;}
	.st332{fill:#B3B3B2;}
	.st333{fill:#B7B7B6;}
	.st334{fill:#B8B8B7;}
	.st335{fill:#BCBCBB;}
	.st336{fill:#C1C1C0;}
	.st337{fill:#C5C5C4;}
	.st338{fill:#CACAC9;}
	.st339{fill:#D3D3D2;}
	.st340{fill:#D8D8D7;}
	.st341{fill:#E1E1E0;}
	.st342{fill:#7C7C7C;}
	.st343{fill:#838383;}
	.st344{fill:#8A8A8A;}
	.st345{fill:#919191;}
	.st346{fill:#989898;}
	.st347{fill:#A2A2A1;}
	.st348{fill:#A4A4A3;}
	.st349{fill:#ABABAA;}
	.st350{fill:#B2B2B1;}
	.st351{fill:#B9B9B8;}
	.st352{fill:#C0C0BF;}
	.st353{fill:#E2E2E1;}
	.st354{fill:#E0E0DF;}
	.st355{fill:#DFDFDE;}
	.st356{fill:#DEDEDD;}
	.st357{fill:#DDDDDC;}
	.st358{fill:#DCDCDB;}
	.st359{fill:#DBDBDA;}
	.st360{fill:#DADAD9;}
	.st361{fill:#CFCFCE;}
	.st362{fill:#CECECD;}
	.st363{fill:#CDCDCC;}
	.st364{fill:#CCCCCB;}
	.st365{fill:#CBCBCA;}
	.st366{fill:#C9C9C8;}
	.st367{fill:#C8C8C7;}
	.st368{fill:#C7C7C6;}
	.st369{fill:#9C9B9B;}
	.st370{fill:#9D9C9C;}
	.st371{fill:#9E9D9D;}
	.st372{fill:#9F9E9E;}
	.st373{fill:#A0A0A0;}
	.st374{fill:#A2A1A1;}
	.st375{fill:#A3A2A2;}
	.st376{fill:#A4A3A3;}
	.st377{fill:#A5A4A4;}
	.st378{fill:#A6A5A5;}
	.st379{fill:#A7A6A6;}
	.st380{fill:#A8A7A7;}
	.st381{fill:#ACABAB;}
	.st382{fill:#ADACAC;}
	.st383{fill:#AEADAD;}
	.st384{fill:#AFAEAE;}
	.st385{fill:#B0AFAF;}
	.st386{fill:#B1B0B0;}
	.st387{fill:#B6B5B5;}
	.st388{fill:#B7B6B6;}
	.st389{fill:#B8B7B7;}
	.st390{fill:#B9B8B8;}
	.st391{fill:#BAB9B9;}
	.st392{fill:#C1C0C0;}
	.st393{fill:#C2C1C1;}
	.st394{fill:#C3C2C2;}
	.st395{fill:#CBCACA;}
	.st396{fill:#CCCBCB;}
	.st397{fill:#D5D4D4;}
	.st398{fill:#D1D0D0;}
	.st399{fill:#CAC9C9;}
	.st400{fill:#C5C4C4;}
	.st401{fill:#C3C2C3;}
	.st402{fill:#C0BFBF;}
	.st403{fill:#BEBDBD;}
	.st404{fill:#BCBBBC;}
	.st405{fill:#BBBABA;}
	.st406{fill:#B5B4B5;}
	.st407{fill:#B4B3B3;}
	.st408{fill:#B2B1B1;}
	.st409{fill:#B0AFB0;}
	.st410{fill:#AFADAE;}
	.st411{fill:#ABAAAA;}
	.st412{fill:#AAA8A9;}
	.st413{fill:#A8A6A7;}
	.st414{fill:#A5A3A3;}
	.st415{fill:#A3A1A2;}
	.st416{fill:#A19FA0;}
	.st417{fill:#A09E9E;}
	.st418{fill:#9E9C9D;}
	.st419{fill:#9C9A9B;}
	.st420{fill:#9A9899;}
	.st421{fill:#999797;}
	.st422{fill:#979596;}
	.st423{fill:#959394;}
	.st424{fill:#949192;}
	.st425{fill:#929090;}
	.st426{fill:#908E8F;}
	.st427{fill:#8F8C8D;}
	.st428{fill:#8D8A8B;}
	.st429{fill:#8B898A;}
	.st430{fill:#8A8788;}
	.st431{fill:#888586;}
	.st432{fill:#868384;}
	.st433{fill:#848283;}
	.st434{fill:#838081;}
	.st435{fill:#817E7F;}
	.st436{fill:#7F7C7D;}
	.st437{fill:#7E7B7C;}
	.st438{fill:#7C797A;}
	.st439{fill:none;stroke:#9C9B9B;stroke-width:8.431377e-02;stroke-miterlimit:10;}
	.st440{fill:#868686;}
	.st441{fill:none;stroke:#868686;stroke-width:2.861330e-02;stroke-miterlimit:10;}
	.st442{fill:#616A72;stroke:#9BBCCE;stroke-width:0.8886;stroke-miterlimit:10;}
	.st443{fill:url(#SVGID_7_);}
	.st444{fill:url(#SVGID_8_);}
	.st445{fill:url(#SVGID_9_);}
	.st446{fill:url(#SVGID_10_);}
	.st447{fill:url(#SVGID_11_);}
	.st448{fill:#616A72;}
	.st449{fill:url(#SVGID_12_);}
	.st450{fill:url(#SVGID_13_);}
	.st451{fill:url(#SVGID_14_);}
	.st452{fill:url(#SVGID_15_);}
	.st453{fill:#ECECEC;stroke:#616A72;stroke-width:0.4443;stroke-miterlimit:10;}
	.st454{fill:#ECE0CC;stroke:#616A72;stroke-width:0.4443;stroke-miterlimit:10;}
	.st455{fill:url(#SVGID_16_);}
	.st456{fill:url(#SVGID_17_);}
	.st457{fill:url(#SVGID_18_);}
	.st458{fill:url(#SVGID_19_);}
	.st459{fill:url(#SVGID_20_);}
	.st460{fill:url(#SVGID_21_);}
	.st461{fill:url(#SVGID_22_);}
	.st462{fill:none;stroke:#DB4729;stroke-width:0.8586;stroke-miterlimit:10;}
	.st463{fill:none;stroke:#DB4729;stroke-width:0.8586;stroke-miterlimit:10;stroke-dasharray:1.1298,1.1298;}
	.st464{fill:none;stroke:#DB4729;stroke-width:0.8586;stroke-miterlimit:10;stroke-dasharray:1.1484,1.1484;}
	.st465{fill:none;stroke:#DB4729;stroke-width:0.8586;stroke-miterlimit:10;stroke-dasharray:1.1448;}
	.st466{fill:#242422;}
	.st467{fill:#2B2A29;}
	.st468{fill:#323130;}
	.st469{fill:#383837;}
	.st470{fill:#3F3F3E;}
	.st471{fill:#4D4D4C;}
	.st472{fill:#7E7D7D;}
	.st473{fill:#848484;}
	.st474{fill:#929292;}
	.st475{fill:#787876;}
	.st476{fill:#6B6B69;}
	.st477{fill:#5E5E5C;}
	.st478{fill:#51514F;}
	.st479{fill:#444442;}
	.st480{fill:#373735;}
	.st481{fill:#2A2A28;}
	.st482{fill:none;stroke:#868686;stroke-width:3.541791e-02;stroke-miterlimit:10;}
	.st483{fill:#D2D5D5;}
	.st484{fill:#97A197;}
	.st485{fill:#8AA7A6;}
	.st486{opacity:0.3;fill:#D2D5D5;}
	.st487{fill:#D1D0D1;}
	.st488{fill:#E3E3E2;}
	.st489{fill:#2B2B2A;}
	.st490{fill:#323231;}
	.st491{fill:#393938;}
	.st492{fill:#41403F;}
	.st493{fill:#484846;}
	.st494{fill:#4F4F4E;}
	.st495{fill:#565655;}
	.st496{fill:#737272;}
	.st497{fill:#969696;}
	.st498{fill:#ACACAB;}
	.st499{fill:#D7D7D6;}
	.st500{fill:none;stroke:#868686;stroke-width:3.430679e-02;stroke-miterlimit:10;}
	.st501{fill:none;stroke:#DB4729;stroke-width:0.9387;stroke-miterlimit:10;stroke-dasharray:1.2516;}
	.st502{fill:url(#SVGID_23_);}
	.st503{fill:url(#SVGID_24_);}
	.st504{fill:url(#SVGID_25_);}
	.st505{fill-rule:evenodd;clip-rule:evenodd;fill:#D9DCE1;}
	.st506{fill-rule:evenodd;clip-rule:evenodd;fill:#A4ADC4;}
	.st507{opacity:0.7;fill:url(#SVGID_26_);}
	.st508{opacity:0.8;fill:#5581A2;}
	.st509{fill:url(#SVGID_27_);}
	.st510{fill:url(#SVGID_28_);}
	.st511{fill:url(#SVGID_29_);}
	.st512{opacity:0.5;}
	.st513{fill:none;stroke:#327CCB;stroke-width:2;stroke-linecap:round;stroke-miterlimit:10;}
	.st514{opacity:5.000000e-02;fill:#4F93DB;}
	.st515{fill:#377E74;}
	.st516{opacity:0.19;fill:#4F93DB;}
	.st517{fill:#2F7269;}
	.st518{opacity:0.76;fill:#377E74;}
	.st519{fill:#67A349;}
	.st520{fill:#81C265;}
	.st521{fill:#9ED984;}
	.st522{fill:#8FCF5B;}
	.st523{fill:#615500;}
	.st524{opacity:0.2;fill:#4F93DB;}
	.st525{opacity:0.12;fill:#4F93DB;}
	.st526{opacity:0.6;}
	.st527{opacity:0.8;fill:#327CCB;}
	.st528{fill:#EFF9FF;}
	.st529{fill:#B4C1C9;}
	.st530{fill:#0F1E26;}
	.st531{fill:#BBCDD8;}
	.st532{fill:#9AB8C9;}
	.st533{fill:#68726D;}
	.st534{opacity:8.000000e-02;fill:#4F93DB;}
	.st535{fill:url(#SVGID_30_);}
	.st536{fill:url(#SVGID_31_);}
	.st537{fill:url(#SVGID_32_);}
	.st538{fill:url(#SVGID_33_);}
	.st539{fill:url(#SVGID_34_);}
	.st540{fill:url(#SVGID_35_);}
	.st541{fill:url(#SVGID_36_);}
	.st542{fill:url(#SVGID_37_);}
	.st543{fill:url(#SVGID_38_);}
	.st544{opacity:0.8;fill:#FFFFFF;}
	.st545{fill:url(#SVGID_39_);}
	.st546{fill:url(#SVGID_40_);}
	.st547{fill:url(#SVGID_41_);}
	.st548{fill:url(#SVGID_42_);}
	.st549{fill:url(#SVGID_43_);}
	.st550{fill:url(#SVGID_44_);}
	.st551{opacity:0.8;fill:#FFE47E;}
	.st552{fill:#95C11F;}
	.st553{opacity:8.000000e-02;fill:url(#SVGID_45_);}
	.st554{fill:none;stroke:#FFFFFF;stroke-width:2;stroke-linecap:round;stroke-miterlimit:10;}
	.st555{opacity:0.5;fill:none;stroke:#FFFFFF;stroke-width:0.5;stroke-miterlimit:10;}
	.st556{fill:#55C3DC;}
	.st557{clip-path:url(#SVGID_47_);fill:#87D6E8;}
	.st558{clip-path:url(#SVGID_47_);fill:#55C3DC;}
	.st559{clip-path:url(#SVGID_49_);fill:#55C3DC;}
	.st560{clip-path:url(#SVGID_49_);fill:#BADFE8;}
	.st561{clip-path:url(#SVGID_49_);fill:#87D6E8;}
	.st562{clip-path:url(#SVGID_49_);fill:#FFFFFF;}
	.st563{clip-path:url(#SVGID_49_);fill:#CCBDAB;}
	.st564{clip-path:url(#SVGID_49_);fill:#BFA484;}
	.st565{clip-path:url(#SVGID_51_);fill:#55C3DC;}
	.st566{clip-path:url(#SVGID_51_);fill:#BADFE8;}
	.st567{clip-path:url(#SVGID_51_);fill:#87D6E8;}
	.st568{clip-path:url(#SVGID_51_);fill:#FFFFFF;}
	.st569{clip-path:url(#SVGID_51_);fill:#CCBDAB;}
	.st570{clip-path:url(#SVGID_51_);fill:#BFA484;}
	.st571{clip-path:url(#SVGID_53_);fill:#FFFFFF;}
	.st572{clip-path:url(#SVGID_53_);fill:#EE6D56;}
	.st573{clip-path:url(#SVGID_53_);fill:#CCBDAB;}
	.st574{clip-path:url(#SVGID_53_);fill:#D2DDEA;}
	.st575{clip-path:url(#SVGID_53_);fill:#BFA484;}
	.st576{clip-path:url(#SVGID_55_);fill:#55C3DC;}
	.st577{clip-path:url(#SVGID_55_);fill:#FFFFFF;}
	.st578{clip-path:url(#SVGID_55_);fill:#87D6E8;}
	.st579{clip-path:url(#SVGID_55_);fill:#D2DDEA;}
	.st580{clip-path:url(#SVGID_55_);fill:#CCBDAB;}
	.st581{clip-path:url(#SVGID_55_);fill:#BFA484;}
	.st582{clip-path:url(#SVGID_57_);fill:#EE6D56;}
	.st583{clip-path:url(#SVGID_59_);fill:#CFE398;}
	.st584{clip-path:url(#SVGID_59_);fill:#95C11F;}
	.st585{opacity:0.3;clip-path:url(#SVGID_59_);fill:#CCBDAB;}
	.st586{clip-path:url(#SVGID_59_);fill:#CFD6B6;}
	.st587{opacity:0.4;clip-path:url(#SVGID_59_);fill:#CCBDAB;}
	.st588{clip-path:url(#SVGID_59_);fill:#CCBDAB;}
	.st589{clip-path:url(#SVGID_59_);fill:#B4D952;}
	.st590{clip-path:url(#SVGID_59_);fill:#C5E372;}
	.st591{clip-path:url(#SVGID_59_);}
	.st592{fill:#B4D952;}
	.st593{clip-path:url(#SVGID_61_);fill:#B4D952;}
	.st594{clip-path:url(#SVGID_61_);fill:#CFE398;}
	.st595{clip-path:url(#SVGID_61_);fill:#CCBDAB;}
	.st596{clip-path:url(#SVGID_61_);fill:#FFFFFF;}
	.st597{clip-path:url(#SVGID_61_);fill:#E3D9CC;}
	.st598{clip-path:url(#SVGID_61_);fill:#BFA484;}
	.st599{clip-path:url(#SVGID_61_);fill:#C7E37D;}
	.st600{clip-path:url(#SVGID_61_);fill:#95C11F;}
	.st601{clip-path:url(#SVGID_63_);fill:#E3D9CC;}
	.st602{clip-path:url(#SVGID_63_);fill:#B4D952;}
	.st603{clip-path:url(#SVGID_63_);fill:#95C11F;}
	.st604{clip-path:url(#SVGID_63_);fill:#C7E37D;}
	.st605{clip-path:url(#SVGID_63_);fill:#FFFFFF;}
	.st606{clip-path:url(#SVGID_65_);fill:#87D6E8;}
	.st607{clip-path:url(#SVGID_65_);fill:#55C3DC;}
	.st608{clip-path:url(#SVGID_67_);fill:#55C3DC;}
	.st609{clip-path:url(#SVGID_67_);fill:#BADFE8;}
	.st610{clip-path:url(#SVGID_67_);fill:#87D6E8;}
	.st611{clip-path:url(#SVGID_67_);fill:#FFFFFF;}
	.st612{clip-path:url(#SVGID_67_);fill:#CCBDAB;}
	.st613{clip-path:url(#SVGID_67_);fill:#BFA484;}
	.st614{clip-path:url(#SVGID_69_);fill:#55C3DC;}
	.st615{clip-path:url(#SVGID_69_);fill:#BADFE8;}
	.st616{clip-path:url(#SVGID_69_);fill:#87D6E8;}
	.st617{clip-path:url(#SVGID_69_);fill:#FFFFFF;}
	.st618{clip-path:url(#SVGID_69_);fill:#CCBDAB;}
	.st619{clip-path:url(#SVGID_69_);fill:#BFA484;}
	.st620{clip-path:url(#SVGID_71_);fill:#FFFFFF;}
	.st621{clip-path:url(#SVGID_71_);fill:#EE6D56;}
	.st622{clip-path:url(#SVGID_71_);fill:#CCBDAB;}
	.st623{clip-path:url(#SVGID_71_);fill:#D2DDEA;}
	.st624{clip-path:url(#SVGID_71_);fill:#BFA484;}
	.st625{clip-path:url(#SVGID_73_);fill:#55C3DC;}
	.st626{clip-path:url(#SVGID_73_);fill:#FFFFFF;}
	.st627{clip-path:url(#SVGID_73_);fill:#87D6E8;}
	.st628{clip-path:url(#SVGID_73_);fill:#D2DDEA;}
	.st629{clip-path:url(#SVGID_73_);fill:#CCBDAB;}
	.st630{clip-path:url(#SVGID_73_);fill:#BFA484;}
	.st631{clip-path:url(#SVGID_75_);fill:#EE6D56;}
	.st632{clip-path:url(#SVGID_77_);fill:#CFE398;}
	.st633{clip-path:url(#SVGID_77_);fill:#95C11F;}
	.st634{opacity:0.3;clip-path:url(#SVGID_77_);fill:#CCBDAB;}
	.st635{clip-path:url(#SVGID_77_);fill:#CFD6B6;}
	.st636{opacity:0.4;clip-path:url(#SVGID_77_);fill:#CCBDAB;}
	.st637{clip-path:url(#SVGID_77_);fill:#CCBDAB;}
	.st638{clip-path:url(#SVGID_77_);fill:#B4D952;}
	.st639{clip-path:url(#SVGID_77_);fill:#C5E372;}
	.st640{clip-path:url(#SVGID_77_);}
	.st641{clip-path:url(#SVGID_79_);fill:#B4D952;}
	.st642{clip-path:url(#SVGID_79_);fill:#CFE398;}
	.st643{clip-path:url(#SVGID_79_);fill:#95C11F;}
	.st644{clip-path:url(#SVGID_79_);fill:#FFFFFF;}
	.st645{clip-path:url(#SVGID_79_);fill:#CCBDAB;}
	.st646{clip-path:url(#SVGID_79_);fill:#E3D9CC;}
	.st647{clip-path:url(#SVGID_79_);fill:#C7E37D;}
	.st648{clip-path:url(#SVGID_81_);fill:#E3D9CC;}
	.st649{clip-path:url(#SVGID_81_);fill:#B4D952;}
	.st650{clip-path:url(#SVGID_81_);fill:#95C11F;}
	.st651{clip-path:url(#SVGID_81_);fill:#C7E37D;}
	.st652{clip-path:url(#SVGID_81_);fill:#FFFFFF;}
	.st653{clip-path:url(#SVGID_83_);fill:#87D6E8;}
	.st654{clip-path:url(#SVGID_83_);fill:#55C3DC;}
	.st655{clip-path:url(#SVGID_85_);fill:#55C3DC;}
	.st656{clip-path:url(#SVGID_85_);fill:#BADFE8;}
	.st657{clip-path:url(#SVGID_85_);fill:#87D6E8;}
	.st658{clip-path:url(#SVGID_85_);fill:#FFFFFF;}
	.st659{clip-path:url(#SVGID_85_);fill:#CCBDAB;}
	.st660{clip-path:url(#SVGID_85_);fill:#BFA484;}
	.st661{clip-path:url(#SVGID_87_);fill:#55C3DC;}
	.st662{clip-path:url(#SVGID_87_);fill:#BADFE8;}
	.st663{clip-path:url(#SVGID_87_);fill:#87D6E8;}
	.st664{clip-path:url(#SVGID_87_);fill:#FFFFFF;}
	.st665{clip-path:url(#SVGID_87_);fill:#CCBDAB;}
	.st666{clip-path:url(#SVGID_87_);fill:#BFA484;}
	.st667{clip-path:url(#SVGID_89_);fill:#FFFFFF;}
	.st668{clip-path:url(#SVGID_89_);fill:#EE6D56;}
	.st669{clip-path:url(#SVGID_89_);fill:#87D6E8;}
	.st670{clip-path:url(#SVGID_89_);fill:#D2DDEA;}
	.st671{clip-path:url(#SVGID_89_);fill:#CCBDAB;}
	.st672{clip-path:url(#SVGID_91_);fill:#55C3DC;}
	.st673{clip-path:url(#SVGID_91_);fill:#FFFFFF;}
	.st674{clip-path:url(#SVGID_91_);fill:#87D6E8;}
	.st675{clip-path:url(#SVGID_91_);fill:#D2DDEA;}
	.st676{clip-path:url(#SVGID_91_);fill:#CCBDAB;}
	.st677{clip-path:url(#SVGID_91_);fill:#BFA484;}
	.st678{clip-path:url(#SVGID_93_);fill:#EE6D56;}
	.st679{opacity:0.4;fill:#95C11F;}
	.st680{clip-path:url(#SVGID_95_);fill:#CFE398;}
	.st681{clip-path:url(#SVGID_95_);fill:#95C11F;}
	.st682{opacity:0.3;clip-path:url(#SVGID_95_);fill:#CCBDAB;}
	.st683{clip-path:url(#SVGID_95_);fill:#CFD6B6;}
	.st684{opacity:0.4;clip-path:url(#SVGID_95_);fill:#CCBDAB;}
	.st685{clip-path:url(#SVGID_95_);fill:#CCBDAB;}
	.st686{clip-path:url(#SVGID_95_);fill:#B4D952;}
	.st687{clip-path:url(#SVGID_95_);fill:#C5E372;}
	.st688{clip-path:url(#SVGID_95_);}
	.st689{clip-path:url(#SVGID_97_);fill:#E3D9CC;}
	.st690{clip-path:url(#SVGID_97_);fill:#B4D952;}
	.st691{clip-path:url(#SVGID_97_);fill:#95C11F;}
	.st692{clip-path:url(#SVGID_97_);fill:#C7E37D;}
	.st693{clip-path:url(#SVGID_97_);fill:#FFFFFF;}
	.st694{clip-path:url(#SVGID_99_);fill:#87D6E8;}
	.st695{clip-path:url(#SVGID_99_);fill:#55C3DC;}
	.st696{clip-path:url(#SVGID_101_);fill:#55C3DC;}
	.st697{clip-path:url(#SVGID_101_);fill:#BADFE8;}
	.st698{clip-path:url(#SVGID_101_);fill:#87D6E8;}
	.st699{clip-path:url(#SVGID_101_);fill:#FFFFFF;}
	.st700{clip-path:url(#SVGID_101_);fill:#CCBDAB;}
	.st701{clip-path:url(#SVGID_101_);fill:#BFA484;}
	.st702{clip-path:url(#SVGID_103_);fill:#55C3DC;}
	.st703{clip-path:url(#SVGID_103_);fill:#BADFE8;}
	.st704{clip-path:url(#SVGID_103_);fill:#87D6E8;}
	.st705{clip-path:url(#SVGID_103_);fill:#FFFFFF;}
	.st706{clip-path:url(#SVGID_103_);fill:#CCBDAB;}
	.st707{clip-path:url(#SVGID_103_);fill:#BFA484;}
	.st708{clip-path:url(#SVGID_105_);fill:#FFFFFF;}
	.st709{clip-path:url(#SVGID_105_);fill:#EE6D56;}
	.st710{clip-path:url(#SVGID_105_);fill:#87D6E8;}
	.st711{clip-path:url(#SVGID_105_);fill:#D2DDEA;}
	.st712{clip-path:url(#SVGID_105_);fill:#CCBDAB;}
	.st713{clip-path:url(#SVGID_107_);fill:#55C3DC;}
	.st714{clip-path:url(#SVGID_107_);fill:#FFFFFF;}
	.st715{clip-path:url(#SVGID_107_);fill:#87D6E8;}
	.st716{clip-path:url(#SVGID_107_);fill:#D2DDEA;}
	.st717{clip-path:url(#SVGID_107_);fill:#CCBDAB;}
	.st718{clip-path:url(#SVGID_107_);fill:#BFA484;}
	.st719{clip-path:url(#SVGID_109_);fill:#EE6D56;}
	.st720{clip-path:url(#SVGID_111_);fill:#CFE398;}
	.st721{clip-path:url(#SVGID_111_);fill:#95C11F;}
	.st722{opacity:0.3;clip-path:url(#SVGID_111_);fill:#CCBDAB;}
	.st723{clip-path:url(#SVGID_111_);fill:#CFD6B6;}
	.st724{opacity:0.4;clip-path:url(#SVGID_111_);fill:#CCBDAB;}
	.st725{clip-path:url(#SVGID_111_);fill:#CCBDAB;}
	.st726{clip-path:url(#SVGID_111_);fill:#B4D952;}
	.st727{clip-path:url(#SVGID_111_);fill:#C5E372;}
	.st728{clip-path:url(#SVGID_111_);}
	.st729{clip-path:url(#SVGID_113_);fill:#E3D9CC;}
	.st730{clip-path:url(#SVGID_113_);fill:#B4D952;}
	.st731{clip-path:url(#SVGID_113_);fill:#95C11F;}
	.st732{clip-path:url(#SVGID_113_);fill:#C7E37D;}
	.st733{clip-path:url(#SVGID_113_);fill:#FFFFFF;}
	.st734{clip-path:url(#SVGID_115_);fill:#87D6E8;}
	.st735{clip-path:url(#SVGID_115_);fill:#55C3DC;}
	.st736{clip-path:url(#SVGID_117_);fill:#55C3DC;}
	.st737{clip-path:url(#SVGID_117_);fill:#BADFE8;}
	.st738{clip-path:url(#SVGID_117_);fill:#87D6E8;}
	.st739{clip-path:url(#SVGID_117_);fill:#FFFFFF;}
	.st740{clip-path:url(#SVGID_117_);fill:#CCBDAB;}
	.st741{clip-path:url(#SVGID_117_);fill:#BFA484;}
	.st742{clip-path:url(#SVGID_119_);fill:#FFFFFF;}
	.st743{clip-path:url(#SVGID_119_);fill:#EE6D56;}
	.st744{clip-path:url(#SVGID_119_);fill:#87D6E8;}
	.st745{clip-path:url(#SVGID_119_);fill:#D2DDEA;}
	.st746{clip-path:url(#SVGID_119_);fill:#CCBDAB;}
	.st747{clip-path:url(#SVGID_121_);fill:#55C3DC;}
	.st748{clip-path:url(#SVGID_121_);fill:#FFFFFF;}
	.st749{clip-path:url(#SVGID_121_);fill:#87D6E8;}
	.st750{clip-path:url(#SVGID_121_);fill:#D2DDEA;}
	.st751{clip-path:url(#SVGID_121_);fill:#CCBDAB;}
	.st752{clip-path:url(#SVGID_121_);fill:#BFA484;}
	.st753{clip-path:url(#SVGID_123_);fill:#EE6D56;}
	.st754{clip-path:url(#SVGID_125_);fill:#CFE398;}
	.st755{clip-path:url(#SVGID_125_);fill:#95C11F;}
	.st756{opacity:0.3;clip-path:url(#SVGID_125_);fill:#CCBDAB;}
	.st757{clip-path:url(#SVGID_125_);fill:#CFD6B6;}
	.st758{opacity:0.4;clip-path:url(#SVGID_125_);fill:#CCBDAB;}
	.st759{clip-path:url(#SVGID_125_);fill:#CCBDAB;}
	.st760{clip-path:url(#SVGID_125_);fill:#B4D952;}
	.st761{clip-path:url(#SVGID_125_);fill:#C5E372;}
	.st762{clip-path:url(#SVGID_125_);}
	.st763{clip-path:url(#SVGID_127_);fill:#E3D9CC;}
	.st764{clip-path:url(#SVGID_127_);fill:#B4D952;}
	.st765{clip-path:url(#SVGID_127_);fill:#95C11F;}
	.st766{clip-path:url(#SVGID_127_);fill:#C7E37D;}
	.st767{clip-path:url(#SVGID_127_);fill:#FFFFFF;}
	.st768{clip-path:url(#SVGID_129_);fill:#55C3DC;}
	.st769{clip-path:url(#SVGID_129_);fill:#BADFE8;}
	.st770{clip-path:url(#SVGID_129_);fill:#87D6E8;}
	.st771{clip-path:url(#SVGID_129_);fill:#FFFFFF;}
	.st772{clip-path:url(#SVGID_129_);fill:#CCBDAB;}
	.st773{clip-path:url(#SVGID_129_);fill:#BFA484;}
	.st774{clip-path:url(#SVGID_131_);fill:#B4D952;}
	.st775{clip-path:url(#SVGID_131_);fill:#CFE398;}
	.st776{clip-path:url(#SVGID_131_);fill:#CCBDAB;}
	.st777{clip-path:url(#SVGID_131_);fill:#FFFFFF;}
	.st778{clip-path:url(#SVGID_131_);fill:#E3D9CC;}
	.st779{clip-path:url(#SVGID_131_);fill:#BFA484;}
	.st780{clip-path:url(#SVGID_131_);fill:#C7E37D;}
	.st781{clip-path:url(#SVGID_131_);fill:#95C11F;}
	.st782{clip-path:url(#SVGID_133_);fill:#B4D952;}
	.st783{clip-path:url(#SVGID_133_);fill:#CFE398;}
	.st784{clip-path:url(#SVGID_133_);fill:#CCBDAB;}
	.st785{clip-path:url(#SVGID_133_);fill:#FFFFFF;}
	.st786{clip-path:url(#SVGID_133_);fill:#E3D9CC;}
	.st787{clip-path:url(#SVGID_133_);fill:#BFA484;}
	.st788{clip-path:url(#SVGID_133_);fill:#C7E37D;}
	.st789{clip-path:url(#SVGID_133_);fill:#95C11F;}
	.st790{clip-path:url(#SVGID_135_);fill:#B4D952;}
	.st791{clip-path:url(#SVGID_135_);fill:#CFE398;}
	.st792{clip-path:url(#SVGID_135_);fill:#CCBDAB;}
	.st793{clip-path:url(#SVGID_135_);fill:#FFFFFF;}
	.st794{clip-path:url(#SVGID_135_);fill:#E3D9CC;}
	.st795{clip-path:url(#SVGID_135_);fill:#BFA484;}
	.st796{clip-path:url(#SVGID_135_);fill:#C7E37D;}
	.st797{clip-path:url(#SVGID_135_);fill:#95C11F;}
	.st798{opacity:0.73;fill:#575756;}
	.st799{display:none;}
	.st800{display:inline;fill:#FFE47E;}
	.st801{display:inline;}
	.st802{fill:none;stroke:#FFE57F;stroke-width:2;stroke-miterlimit:10;}
	.st803{fill:#FFE57F;}
</style>
<g id="fons">
</g>
<g id="elements">
	<g>
		<path class="st7" d="M66.6,8.3c17.8,7.8,25.9,28.6,18.1,46.4C76.8,72.4,56,80.5,38.2,72.7c-17.8-7.8-25.9-28.6-18.1-46.4l0.8,0.4
			C13.4,44,21.3,64.3,38.6,71.9c17.3,7.6,37.6-0.3,45.2-17.6C91.4,37,83.5,16.7,66.2,9.1L66.6,8.3z"/>
		<path class="st7" d="M78.9,26.4c7.8,14.1,2.7,31.9-11.5,39.7c-14.1,7.8-31.9,2.7-39.7-11.5C20,40.5,25.1,22.7,39.2,14.9l0.4,0.8
			C26,23.3,21,40.5,28.6,54.2C36.1,67.9,53.4,72.8,67,65.3c13.7-7.5,18.6-24.8,11.1-38.5L78.9,26.4z"/>
		<path class="st7" d="M73.1,14.3c14.5,11.2,17.1,32.1,5.9,46.6C67.7,75.3,46.8,78,32.4,66.8c-14.5-11.2-17.1-32.1-5.9-46.6l0.7,0.6
			C16.3,34.8,18.9,55.1,32.9,66c14.1,10.9,34.4,8.3,45.3-5.7c10.9-14.1,8.3-34.4-5.7-45.3L73.1,14.3z"/>
		<path class="st7" d="M79.1,30.7c5.4,14-1.5,29.8-15.5,35.3c-14,5.4-29.8-1.5-35.3-15.5c-5.4-14,1.5-29.8,15.5-35.3l0.3,0.9
			c-13.5,5.3-20.3,20.5-15,34.1c5.3,13.5,20.5,20.3,34.1,15c13.5-5.3,20.3-20.5,15-34.1L79.1,30.7z"/>
		<path class="st7" d="M78.8,36c2.5,13.7-6.6,26.9-20.3,29.4c-13.7,2.5-26.9-6.6-29.4-20.3c-2.5-13.7,6.6-26.9,20.3-29.4l0.2,0.9
			C36.4,19,27.6,31.7,30,44.9c2.4,13.2,15.1,22,28.3,19.6c13.2-2.4,22-15.1,19.6-28.3L78.8,36z"/>
		<path class="st7" d="M76.6,41.7l0.9,0c-0.7,12.8-11.7,22.7-24.5,22c-12.8-0.7-22.7-11.7-22-24.5c0.7-12.8,11.7-22.7,24.5-22l0,0.9
			C43.2,17.6,32.6,27,32,39.3c-0.7,12.3,8.8,22.8,21.1,23.5C65.4,63.5,75.9,54,76.6,41.7"/>
		<path class="st7" d="M76.7,20.2c11.2,13.1,9.7,32.8-3.3,44c-13.1,11.2-32.8,9.7-44-3.3c-11.2-13.1-9.7-32.8,3.3-44l0.6,0.7
			c-12.7,10.9-14.1,30-3.2,42.7c10.9,12.7,30,14.1,42.7,3.2c12.7-10.9,14.1-30,3.2-42.7L76.7,20.2z"/>
		<path class="st7" d="M74.4,45.4l0.9,0.2C72.5,57,60.9,64,49.5,61.2c-11.4-2.8-18.4-14.3-15.6-25.7c2.8-11.4,14.3-18.4,25.7-15.6
			l-0.2,0.9c-10.9-2.7-21.9,4-24.6,14.9c-2.7,10.9,4,21.9,14.9,24.6C60.7,63,71.7,56.3,74.4,45.4"/>
		<path class="st7" d="M71.6,48.2l0.8,0.4c-4.5,9.7-15.9,13.9-25.6,9.4c-9.7-4.5-13.9-15.9-9.4-25.6C41.9,22.8,53.3,18.6,63,23
			l-0.4,0.8c-9.2-4.2-20.1-0.2-24.4,9S38,53,47.2,57.2c4.2,1.9,8.7,2.1,12.8,1C65,56.7,69.3,53.3,71.6,48.2"/>
		<path class="st7" d="M67.2,37.9l-0.9,0.2c-1.1-4.6-5.2-7.8-9.8-7.9c-0.9,0-1.9,0.1-2.8,0.3c-5.6,1.4-9,7-7.7,12.6
			c1.2,4.9,5.7,8.1,10.5,7.9c0.7,0,1.4-0.1,2.1-0.3l0.2,0.9c-0.8,0.2-1.6,0.3-2.4,0.3c-5.2,0.1-10-3.4-11.3-8.7
			c-1.5-6.1,2.3-12.2,8.3-13.7c4.9-1.2,9.9,1,12.4,5.2C66.5,35.7,66.9,36.7,67.2,37.9"/>
		<path class="st7" d="M65.9,40.6h-0.9c0-4.6-3.8-8.4-8.4-8.4c-4.6,0-8.4,3.8-8.4,8.4c0,4.6,3.8,8.4,8.4,8.4v0.9
			c-5.2,0-9.4-4.2-9.4-9.4c0-5.2,4.2-9.4,9.4-9.4C61.7,31.2,65.9,35.4,65.9,40.6"/>
		<path class="st7" d="M68.8,49.7c-2.2,3.2-5.3,5.5-8.8,6.5c-2.3,0.7-4.8,0.9-7.2,0.5c-2.3-0.3-4.6-1.2-6.7-2.6
			c-7.5-5-9.5-15.2-4.4-22.7c4.7-7,13.8-9.2,21.1-5.4c0.5,0.3,1.1,0.6,1.6,1l0.5-0.8c-0.9-0.6-1.8-1.1-2.7-1.5
			c-7.5-3.3-16.6-0.9-21.3,6.2c-5.3,7.9-3.2,18.7,4.7,24c2.5,1.7,5.2,2.6,7.9,2.9c2.2,0.2,4.4,0,6.5-0.6c3.8-1.1,7.2-3.4,9.6-6.9
			L68.8,49.7z"/>
		<path class="st7" d="M45.9,29.9c4.1-3.7,9.8-4.7,14.7-2.8c2.1,0.8,4,2,5.6,3.8l0.7-0.6c-1.3-1.5-2.9-2.6-4.5-3.4
			c-5.5-2.7-12.3-2-17.1,2.4c-6.2,5.7-6.7,15.4-1,21.6c2.3,2.5,5.3,4.1,8.4,4.7c2.5,0.5,5,0.4,7.4-0.4c2.1-0.6,4.1-1.7,5.8-3.3
			l-0.6-0.7c-1.6,1.4-3.3,2.4-5.2,3c-2.4,0.8-4.9,0.9-7.4,0.4c-2.9-0.6-5.6-2.1-7.7-4.4C39.6,44.4,40,35.2,45.9,29.9"/>
		<path class="st7" d="M60.3,28c-3.4-1.2-7.3-1-10.8,0.9c-6.5,3.5-8.9,11.6-5.4,18.1c1.9,3.5,5.2,5.9,8.9,6.7
			c2.1,0.5,4.4,0.4,6.6-0.2c0.1,0,0.6-0.2,1.3-0.5c0.6-0.3,1.2-0.6,1.2-0.6l-0.4-0.8c0,0-0.4,0.2-0.9,0.5c-0.6,0.2-1.2,0.4-1.3,0.5
			c-1.9,0.6-3.9,0.7-5.8,0.4c-3.6-0.6-6.9-2.8-8.8-6.3c-3.3-6-1-13.6,5-16.8c6-3.3,13.6-1,16.8,5l0.8-0.4C65.9,31.2,63.3,29,60.3,28
			"/>
		<path class="st7" d="M88.9,18.1l-0.7-3.6c0.1,0,0.1-0.1,0.2-0.1c0.1,0,0.1,0,0.2,0.1c0,0,0.1,0.1,0.1,0.2l0.4,2.1l0.2,1.1
			c0,0,0,0,0,0c0,0,0,0,0,0l0.7-3.4c0.1,0,0.2,0,0.3,0c0.1,0,0.2,0,0.3,0l0.6,3.3c0,0,0,0.1,0,0.1c0-0.2,0.1-0.6,0.2-1.1l0.5-2.3
			c0.1,0,0.1,0,0.2,0c0.1,0,0.1,0,0.2,0l0,0l-0.8,3.8c-0.1,0-0.2,0-0.3,0c-0.1,0-0.2,0-0.3,0c0,0-0.1-0.1-0.1-0.2l-0.3-1.7
			c-0.1-0.6-0.2-1.1-0.3-1.4h0c-0.1,0.6-0.2,1.1-0.3,1.4l-0.4,1.9c-0.1,0-0.2,0-0.4,0C89,18.3,88.9,18.2,88.9,18.1"/>
		<path class="st7" d="M94.8,18.1c0,0.1-0.1,0.2-0.2,0.2c-0.2-0.1-0.3-0.2-0.3-0.4c-0.3,0.3-0.6,0.4-0.8,0.4c-0.1,0-0.3,0-0.4-0.1
			c-0.1,0-0.2-0.1-0.3-0.2c-0.1-0.1-0.1-0.2-0.2-0.3c0-0.1-0.1-0.2-0.1-0.3c0-0.1,0-0.3,0.1-0.4c0.1-0.1,0.1-0.2,0.2-0.3
			c0.1-0.1,0.2-0.1,0.3-0.2c0.1,0,0.2-0.1,0.4-0.1c0.3,0,0.5,0,0.7,0.1v-0.3c0-0.4-0.2-0.6-0.5-0.6c-0.3,0-0.6,0.1-0.9,0.2
			c-0.1-0.1-0.1-0.2-0.1-0.3c0.4-0.2,0.8-0.3,1.1-0.3c0.6,0,0.9,0.3,0.9,0.9v1.2c0,0.1,0,0.2,0,0.3C94.7,18,94.8,18.1,94.8,18.1
			 M94.3,17.6V17c-0.1,0-0.2,0-0.3,0c-0.1,0-0.2,0-0.3,0c-0.2,0-0.4,0-0.5,0.1c-0.1,0.1-0.2,0.2-0.2,0.4c0,0.2,0,0.3,0.1,0.4
			c0.1,0.1,0.2,0.1,0.3,0.1c0.1,0,0.3,0,0.4-0.1C94,17.8,94.2,17.7,94.3,17.6"/>
		<path class="st7" d="M96.8,15.5c0,0.1,0,0.1,0,0.2c0,0.1,0,0.1,0,0.2l-0.7,0v1.9c0,0.2,0.1,0.2,0.2,0.2h0.4c0,0.1,0,0.1,0,0.2
			c0,0.1,0,0.1,0,0.1c-0.2,0-0.4,0-0.5,0c-0.4,0-0.5-0.2-0.5-0.5v-2l-0.4,0c0-0.1,0-0.1,0-0.2c0-0.1,0-0.1,0-0.2l0.4,0V15
			c0-0.1,0-0.2,0-0.2c0,0,0.1-0.1,0.2-0.1H96l0,0v0.8L96.8,15.5z"/>
		<path class="st7" d="M99.4,17h-1.7c0,0.6,0.3,1,0.7,1c0.3,0,0.5-0.1,0.8-0.2c0.1,0.1,0.1,0.2,0.2,0.3c-0.3,0.2-0.6,0.3-1,0.3
			c-0.2,0-0.4,0-0.5-0.1c-0.1-0.1-0.3-0.2-0.3-0.3c-0.1-0.1-0.2-0.3-0.2-0.5c0-0.2-0.1-0.4-0.1-0.6c0-0.2,0-0.4,0.1-0.6
			c0.1-0.2,0.1-0.3,0.2-0.5c0.1-0.1,0.2-0.2,0.4-0.3c0.1-0.1,0.3-0.1,0.5-0.1c0.2,0,0.3,0,0.5,0.1c0.1,0.1,0.3,0.1,0.3,0.3
			c0.1,0.1,0.2,0.2,0.2,0.4c0,0.1,0.1,0.3,0.1,0.5c0,0.1,0,0.1,0,0.2C99.4,16.9,99.4,17,99.4,17 M97.6,16.7H99v-0.1
			c0-0.3-0.1-0.5-0.2-0.6c-0.1-0.2-0.3-0.2-0.5-0.2c-0.2,0-0.4,0.1-0.5,0.3C97.7,16.2,97.7,16.4,97.6,16.7"/>
		<path class="st7" d="M100.1,15.7c0-0.1,0.1-0.2,0.2-0.2c0.2,0.1,0.3,0.2,0.4,0.5c0.2-0.3,0.4-0.5,0.8-0.5c0.1,0,0.2,0,0.3,0
			c0,0.2,0,0.3-0.1,0.4c0,0-0.1,0-0.2,0c-0.3,0-0.5,0.2-0.7,0.5v1.9c-0.1,0-0.1,0-0.2,0s-0.2,0-0.2,0v-2
			C100.3,16,100.2,15.9,100.1,15.7"/>
		<path class="st7" d="M105.5,18.1c0,0.1-0.1,0.2-0.2,0.2c-0.2-0.1-0.3-0.2-0.3-0.4c-0.3,0.3-0.6,0.4-0.8,0.4c-0.1,0-0.3,0-0.4-0.1
			c-0.1,0-0.2-0.1-0.3-0.2c-0.1-0.1-0.1-0.2-0.2-0.3c0-0.1-0.1-0.2-0.1-0.3c0-0.1,0-0.3,0.1-0.4c0.1-0.1,0.1-0.2,0.2-0.3
			c0.1-0.1,0.2-0.1,0.3-0.2c0.1,0,0.2-0.1,0.4-0.1c0.3,0,0.5,0,0.7,0.1v-0.3c0-0.4-0.2-0.6-0.5-0.6c-0.3,0-0.6,0.1-0.9,0.2
			c-0.1-0.1-0.1-0.2-0.1-0.3c0.4-0.2,0.8-0.3,1.1-0.3c0.6,0,0.9,0.3,0.9,0.9v1.2c0,0.1,0,0.2,0,0.3C105.4,18,105.4,18.1,105.5,18.1
			 M104.9,17.6V17c-0.1,0-0.2,0-0.3,0c-0.1,0-0.2,0-0.3,0c-0.2,0-0.4,0-0.5,0.1c-0.1,0.1-0.2,0.2-0.2,0.4c0,0.2,0,0.3,0.1,0.4
			c0.1,0.1,0.2,0.1,0.3,0.1c0.1,0,0.3,0,0.4-0.1C104.7,17.8,104.8,17.7,104.9,17.6"/>
		<path class="st7" d="M108.4,16.4v1.4c0,0.2,0,0.4,0.1,0.5c-0.1,0.1-0.1,0.1-0.3,0.1c-0.1,0-0.2-0.1-0.2-0.3v-1.6
			c0-0.2,0-0.4-0.1-0.5c-0.1-0.1-0.2-0.1-0.3-0.1c-0.1,0-0.3,0-0.5,0.1c-0.2,0.1-0.3,0.2-0.4,0.3v2c-0.1,0-0.1,0-0.2,0
			c-0.1,0-0.2,0-0.2,0v-2.7l0,0h0.2c0.1,0,0.1,0,0.2,0.1c0,0,0,0.1,0,0.2v0.1c0.1-0.1,0.3-0.2,0.4-0.3c0.2-0.1,0.3-0.1,0.5-0.1
			c0.3,0,0.4,0.1,0.5,0.2C108.3,15.9,108.4,16.1,108.4,16.4"/>
		<path class="st7" d="M110.2,15.5c0.2,0,0.5,0.1,0.7,0.2v-1.5l0,0h0.2c0.1,0,0.1,0,0.2,0.1c0,0,0,0.1,0,0.2v3.1
			c0,0.3,0.1,0.5,0.2,0.6c0,0.1-0.1,0.2-0.2,0.2c-0.2-0.1-0.3-0.2-0.3-0.4c-0.2,0.3-0.5,0.4-0.8,0.4c-0.3,0-0.6-0.1-0.7-0.4
			c-0.2-0.3-0.2-0.6-0.2-1.1c0-0.2,0-0.4,0.1-0.6c0.1-0.2,0.1-0.3,0.2-0.4c0.1-0.1,0.2-0.2,0.3-0.3C109.9,15.5,110,15.5,110.2,15.5
			 M110.1,18c0.1,0,0.3,0,0.4-0.1c0.1-0.1,0.2-0.2,0.3-0.3v-1.5c-0.2-0.2-0.5-0.3-0.6-0.3c-0.2,0-0.4,0.1-0.5,0.3
			c-0.1,0.2-0.2,0.5-0.2,0.8c0,0.4,0.1,0.6,0.2,0.8C109.8,17.9,110,18,110.1,18"/>
		<path class="st7" d="M113.9,18.1l-0.7-3.6c0.1,0,0.1-0.1,0.2-0.1c0.1,0,0.1,0,0.2,0.1c0,0,0.1,0.1,0.1,0.2l0.4,2.1l0.2,1.1
			c0,0,0,0,0,0c0,0,0,0,0,0l0.7-3.4c0.1,0,0.2,0,0.3,0c0.1,0,0.2,0,0.3,0l0.6,3.3c0,0,0,0.1,0,0.1c0-0.2,0.1-0.6,0.2-1.1l0.5-2.3
			c0.1,0,0.1,0,0.2,0c0.1,0,0.1,0,0.2,0l0,0l-0.8,3.8c-0.1,0-0.2,0-0.3,0c-0.1,0-0.2,0-0.3,0c0,0-0.1-0.1-0.1-0.2l-0.3-1.7
			c-0.1-0.6-0.2-1.1-0.3-1.4h0c-0.1,0.6-0.2,1.1-0.3,1.4l-0.4,1.9c-0.1,0-0.2,0-0.4,0C114.1,18.3,114,18.2,113.9,18.1"/>
		<path class="st7" d="M119.9,18.1c0,0.1-0.1,0.2-0.2,0.2c-0.2-0.1-0.3-0.2-0.3-0.4c-0.3,0.3-0.6,0.4-0.8,0.4c-0.1,0-0.3,0-0.4-0.1
			c-0.1,0-0.2-0.1-0.3-0.2c-0.1-0.1-0.1-0.2-0.2-0.3c0-0.1-0.1-0.2-0.1-0.3c0-0.1,0-0.3,0.1-0.4c0-0.1,0.1-0.2,0.2-0.3
			c0.1-0.1,0.2-0.1,0.3-0.2c0.1,0,0.2-0.1,0.4-0.1c0.3,0,0.5,0,0.7,0.1v-0.3c0-0.4-0.2-0.6-0.5-0.6c-0.3,0-0.6,0.1-0.9,0.2
			c-0.1-0.1-0.1-0.2-0.1-0.3c0.4-0.2,0.8-0.3,1.1-0.3c0.6,0,0.9,0.3,0.9,0.9v1.2c0,0.1,0,0.2,0,0.3C119.8,18,119.8,18.1,119.9,18.1
			 M119.3,17.6V17c-0.1,0-0.2,0-0.3,0c-0.1,0-0.2,0-0.3,0c-0.2,0-0.4,0-0.5,0.1c-0.1,0.1-0.2,0.2-0.2,0.4c0,0.2,0,0.3,0.1,0.4
			c0.1,0.1,0.2,0.1,0.3,0.1c0.1,0,0.3,0,0.4-0.1C119.1,17.8,119.2,17.7,119.3,17.6"/>
		<path class="st7" d="M120.4,18.1c0-0.1,0.1-0.2,0.2-0.3c0.2,0.1,0.3,0.2,0.5,0.2c0.1,0,0.3,0.1,0.4,0.1c0.1,0,0.2,0,0.2,0
			c0.1,0,0.1-0.1,0.2-0.1c0,0,0.1-0.1,0.1-0.1c0,0,0-0.1,0-0.1c0-0.1,0-0.2-0.1-0.3c-0.1-0.1-0.2-0.1-0.3-0.2l-0.3-0.1
			c-0.2-0.1-0.4-0.2-0.5-0.3c-0.1-0.1-0.2-0.3-0.2-0.5c0-0.1,0-0.2,0.1-0.3c0-0.1,0.1-0.2,0.2-0.2c0.1-0.1,0.2-0.1,0.3-0.2
			c0.1,0,0.2-0.1,0.4-0.1c0.3,0,0.6,0.1,0.8,0.2c0,0.1,0,0.2-0.1,0.3c-0.1-0.1-0.3-0.1-0.4-0.1c-0.1,0-0.2,0-0.3,0
			c-0.2,0-0.3,0-0.4,0.1c-0.1,0.1-0.1,0.2-0.1,0.3c0,0.1,0,0.2,0.1,0.3c0.1,0.1,0.2,0.1,0.3,0.2l0.3,0.1c0.5,0.2,0.7,0.5,0.7,0.8
			c0,0.2-0.1,0.4-0.3,0.6c-0.2,0.1-0.4,0.2-0.8,0.2C121,18.4,120.7,18.3,120.4,18.1"/>
		<path class="st7" d="M124.4,15.5c0,0.1,0,0.1,0,0.2c0,0.1,0,0.1,0,0.2l-0.7,0v1.9c0,0.2,0.1,0.2,0.2,0.2h0.4c0,0.1,0,0.1,0,0.2
			c0,0.1,0,0.1,0,0.1c-0.2,0-0.3,0-0.5,0c-0.4,0-0.5-0.2-0.5-0.5v-2l-0.4,0c0-0.1,0-0.1,0-0.2c0-0.1,0-0.1,0-0.2l0.4,0V15
			c0-0.1,0-0.2,0-0.2c0,0,0.1-0.1,0.2-0.1h0.2l0,0v0.8L124.4,15.5z"/>
		<path class="st7" d="M126.9,17h-1.7c0,0.6,0.3,1,0.7,1c0.3,0,0.5-0.1,0.8-0.2c0.1,0.1,0.1,0.2,0.2,0.3c-0.3,0.2-0.6,0.3-1,0.3
			c-0.2,0-0.4,0-0.5-0.1c-0.1-0.1-0.3-0.2-0.3-0.3c-0.1-0.1-0.2-0.3-0.2-0.5c0-0.2-0.1-0.4-0.1-0.6c0-0.2,0-0.4,0.1-0.6
			c0.1-0.2,0.1-0.3,0.2-0.5c0.1-0.1,0.2-0.2,0.4-0.3c0.1-0.1,0.3-0.1,0.5-0.1c0.2,0,0.3,0,0.5,0.1c0.1,0.1,0.3,0.1,0.3,0.3
			c0.1,0.1,0.2,0.2,0.2,0.4c0,0.1,0.1,0.3,0.1,0.5c0,0.1,0,0.1,0,0.2C127,16.9,127,17,126.9,17 M125.2,16.7h1.3v-0.1
			c0-0.3-0.1-0.5-0.2-0.6c-0.1-0.2-0.3-0.2-0.5-0.2c-0.2,0-0.4,0.1-0.5,0.3C125.3,16.2,125.2,16.4,125.2,16.7"/>
		<path class="st7" d="M128,18l-0.6-2.5c0.1,0,0.2-0.1,0.3-0.1c0.1,0,0.2,0.1,0.2,0.2l0.3,1.3c0.1,0.2,0.1,0.6,0.2,1
			c0,0,0,0.1,0,0.1l0.6-2.4c0.1,0,0.1,0,0.3,0c0.1,0,0.2,0,0.3,0l0.5,2.4c0,0,0,0.1,0,0.1c0.1-0.3,0.1-0.7,0.2-1l0.3-1.4
			c0,0,0.1,0,0.2,0c0.1,0,0.1,0,0.2,0l0,0l-0.7,2.7c-0.1,0-0.2,0-0.3,0c-0.1,0-0.2,0-0.2-0.1c-0.1,0-0.1-0.1-0.1-0.2l-0.2-0.9
			c0-0.1-0.1-0.2-0.1-0.5c-0.1-0.3-0.1-0.5-0.1-0.7h0c0,0.1-0.1,0.5-0.3,1.2l-0.3,1.1c-0.1,0-0.2,0-0.3,0c-0.1,0-0.2,0-0.2-0.1
			C128.1,18.2,128,18.2,128,18"/>
		<path class="st7" d="M133.6,18.1c0,0.1-0.1,0.2-0.2,0.2c-0.2-0.1-0.3-0.2-0.3-0.4c-0.3,0.3-0.6,0.4-0.8,0.4c-0.1,0-0.3,0-0.4-0.1
			c-0.1,0-0.2-0.1-0.3-0.2c-0.1-0.1-0.1-0.2-0.2-0.3c0-0.1-0.1-0.2-0.1-0.3c0-0.1,0-0.3,0.1-0.4c0.1-0.1,0.1-0.2,0.2-0.3
			c0.1-0.1,0.2-0.1,0.3-0.2c0.1,0,0.2-0.1,0.4-0.1c0.3,0,0.5,0,0.7,0.1v-0.3c0-0.4-0.2-0.6-0.5-0.6c-0.3,0-0.6,0.1-0.9,0.2
			c-0.1-0.1-0.1-0.2-0.1-0.3c0.4-0.2,0.8-0.3,1.1-0.3c0.6,0,0.9,0.3,0.9,0.9v1.2c0,0.1,0,0.2,0,0.3C133.5,18,133.6,18.1,133.6,18.1
			 M133,17.6V17c-0.1,0-0.2,0-0.3,0c-0.1,0-0.2,0-0.3,0c-0.2,0-0.4,0-0.5,0.1c-0.1,0.1-0.2,0.2-0.2,0.4c0,0.2,0,0.3,0.1,0.4
			c0.1,0.1,0.2,0.1,0.3,0.1c0.1,0,0.3,0,0.4-0.1C132.8,17.8,132.9,17.7,133,17.6"/>
		<path class="st7" d="M135.6,15.5c0,0.1,0,0.1,0,0.2c0,0.1,0,0.1,0,0.2l-0.7,0v1.9c0,0.2,0.1,0.2,0.2,0.2h0.4c0,0.1,0,0.1,0,0.2
			c0,0.1,0,0.1,0,0.1c-0.2,0-0.3,0-0.5,0c-0.4,0-0.5-0.2-0.5-0.5v-2l-0.4,0c0-0.1,0-0.1,0-0.2c0-0.1,0-0.1,0-0.2l0.4,0V15
			c0-0.1,0-0.2,0-0.2c0,0,0.1-0.1,0.2-0.1h0.2l0,0v0.8L135.6,15.5z"/>
		<path class="st7" d="M138.2,17h-1.7c0,0.6,0.3,1,0.7,1c0.3,0,0.5-0.1,0.8-0.2c0.1,0.1,0.1,0.2,0.2,0.3c-0.3,0.2-0.6,0.3-1,0.3
			c-0.2,0-0.4,0-0.5-0.1c-0.1-0.1-0.3-0.2-0.3-0.3c-0.1-0.1-0.2-0.3-0.2-0.5c0-0.2-0.1-0.4-0.1-0.6c0-0.2,0-0.4,0.1-0.6
			c0.1-0.2,0.1-0.3,0.2-0.5c0.1-0.1,0.2-0.2,0.4-0.3c0.1-0.1,0.3-0.1,0.5-0.1c0.2,0,0.3,0,0.5,0.1c0.1,0.1,0.3,0.1,0.3,0.3
			c0.1,0.1,0.2,0.2,0.2,0.4c0,0.1,0.1,0.3,0.1,0.5c0,0.1,0,0.1,0,0.2C138.2,16.9,138.2,17,138.2,17 M136.4,16.7h1.3v-0.1
			c0-0.3-0.1-0.5-0.2-0.6c-0.1-0.2-0.3-0.2-0.5-0.2c-0.2,0-0.4,0.1-0.5,0.3C136.5,16.2,136.4,16.4,136.4,16.7"/>
		<path class="st7" d="M138.8,15.7c0-0.1,0.1-0.2,0.2-0.2c0.2,0.1,0.3,0.2,0.4,0.5c0.2-0.3,0.4-0.5,0.8-0.5c0.1,0,0.2,0,0.3,0
			c0,0.2,0,0.3-0.1,0.4c0,0-0.1,0-0.2,0c-0.3,0-0.5,0.2-0.7,0.5v1.9c-0.1,0-0.1,0-0.2,0c-0.1,0-0.2,0-0.2,0v-2
			C139,16,139,15.9,138.8,15.7"/>
		<path class="st7" d="M144.4,15.7c0-0.1,0-0.2,0-0.3c0-0.1-0.1-0.2-0.2-0.3c-0.1-0.1-0.2-0.2-0.3-0.2c-0.1-0.1-0.3-0.1-0.4-0.1
			c-0.3,0-0.6,0.1-0.7,0.4c-0.2,0.3-0.3,0.7-0.3,1.2c0,0.5,0.1,0.9,0.3,1.2c0.2,0.3,0.4,0.4,0.8,0.4c0.3,0,0.7-0.1,1-0.4
			c0.1,0.1,0.2,0.2,0.2,0.3c-0.2,0.2-0.4,0.3-0.6,0.4c-0.2,0.1-0.5,0.1-0.7,0.1c-0.3,0-0.5-0.1-0.6-0.2c-0.2-0.1-0.3-0.2-0.4-0.4
			c-0.1-0.2-0.2-0.4-0.3-0.6c-0.1-0.2-0.1-0.5-0.1-0.8c0-0.3,0-0.6,0.1-0.9c0.1-0.2,0.2-0.5,0.3-0.6c0.1-0.2,0.3-0.3,0.5-0.4
			c0.2-0.1,0.4-0.1,0.6-0.1c0.2,0,0.4,0,0.5,0.1c0.2,0.1,0.3,0.1,0.4,0.2c0.1,0.1,0.2,0.2,0.3,0.3c0.1,0.1,0.1,0.3,0.1,0.4
			c0,0.2-0.1,0.3-0.2,0.3C144.5,15.7,144.5,15.7,144.4,15.7"/>
		<path class="st7" d="M147.3,18.1c-0.2,0.2-0.5,0.3-0.8,0.3c-0.2,0-0.4,0-0.5-0.1c-0.1-0.1-0.3-0.2-0.4-0.3
			c-0.1-0.1-0.2-0.3-0.2-0.5c-0.1-0.2-0.1-0.4-0.1-0.6c0-0.2,0-0.4,0.1-0.6c0.1-0.2,0.1-0.3,0.2-0.5c0.1-0.1,0.2-0.2,0.4-0.3
			c0.1-0.1,0.3-0.1,0.5-0.1c0.2,0,0.4,0,0.5,0.1c0.1,0.1,0.3,0.2,0.4,0.3c0.1,0.1,0.2,0.3,0.2,0.5c0.1,0.2,0.1,0.4,0.1,0.6
			C147.7,17.4,147.5,17.8,147.3,18.1 M146.5,18c0.2,0,0.4-0.1,0.5-0.3c0.1-0.2,0.2-0.5,0.2-0.8c0-0.1,0-0.3,0-0.4
			c0-0.1-0.1-0.3-0.1-0.4c-0.1-0.1-0.1-0.2-0.2-0.2c-0.1-0.1-0.2-0.1-0.3-0.1c-0.1,0-0.2,0-0.3,0.1c-0.1,0.1-0.2,0.1-0.2,0.2
			c-0.1,0.1-0.1,0.2-0.1,0.4c0,0.1,0,0.3,0,0.4c0,0.2,0,0.3,0,0.4c0,0.1,0.1,0.3,0.1,0.4c0.1,0.1,0.1,0.2,0.2,0.2
			C146.3,18,146.4,18,146.5,18"/>
		<path class="st7" d="M150,16.5c0-0.2,0-0.4-0.1-0.5c-0.1-0.1-0.2-0.1-0.3-0.1c-0.1,0-0.3,0-0.4,0.1c-0.1,0.1-0.3,0.2-0.4,0.3v2
			c-0.1,0-0.1,0-0.2,0c-0.1,0-0.2,0-0.2,0v-2.7l0,0h0.2c0.1,0,0.1,0,0.2,0.1c0,0,0,0.1,0,0.2v0.1c0.2-0.3,0.5-0.4,0.8-0.4
			c0.3,0,0.5,0.1,0.6,0.4c0.3-0.3,0.6-0.4,0.9-0.4c0.2,0,0.4,0.1,0.5,0.2c0.1,0.2,0.2,0.4,0.2,0.6v1.4c0,0.2,0,0.4,0.1,0.5
			c-0.1,0.1-0.2,0.1-0.3,0.1c-0.1,0-0.2-0.1-0.2-0.3v-1.6c0-0.2,0-0.4-0.1-0.5c-0.1-0.1-0.2-0.1-0.3-0.1c-0.1,0-0.3,0-0.4,0.1
			c-0.1,0.1-0.3,0.2-0.4,0.3v2c-0.1,0-0.1,0-0.2,0c-0.1,0-0.2,0-0.2,0V16.5z"/>
		<path class="st7" d="M153.3,18.1v1.1c0,0.1,0,0.2,0,0.2c0,0-0.1,0.1-0.2,0.1h-0.2l0,0v-3.9l0,0h0.1c0.1,0,0.2,0,0.2,0.1
			c0,0,0,0.1,0,0.2v0c0.2-0.3,0.5-0.4,0.8-0.4c0.3,0,0.6,0.1,0.7,0.4c0.2,0.3,0.2,0.6,0.2,1.1c0,0.2,0,0.4-0.1,0.6
			c-0.1,0.2-0.1,0.3-0.2,0.4c-0.1,0.1-0.2,0.2-0.3,0.3c-0.1,0.1-0.3,0.1-0.4,0.1C153.8,18.3,153.5,18.3,153.3,18.1 M153.3,16.3v1.4
			c0.2,0.2,0.4,0.3,0.6,0.3c0.2,0,0.4-0.1,0.5-0.3c0.1-0.2,0.2-0.5,0.2-0.8c0-0.2,0-0.3,0-0.5c0-0.1-0.1-0.2-0.1-0.3
			c-0.1-0.1-0.1-0.2-0.2-0.2c-0.1,0-0.1-0.1-0.2-0.1c-0.1,0-0.3,0-0.4,0.1C153.5,16,153.4,16.1,153.3,16.3"/>
		<path class="st7" d="M157.8,18.1c0,0.1-0.1,0.2-0.2,0.2c-0.2-0.1-0.3-0.2-0.3-0.4c-0.3,0.3-0.6,0.4-0.8,0.4c-0.1,0-0.3,0-0.4-0.1
			c-0.1,0-0.2-0.1-0.3-0.2c-0.1-0.1-0.1-0.2-0.2-0.3c0-0.1-0.1-0.2-0.1-0.3c0-0.1,0-0.3,0.1-0.4c0.1-0.1,0.1-0.2,0.2-0.3
			c0.1-0.1,0.2-0.1,0.3-0.2c0.1,0,0.2-0.1,0.4-0.1c0.3,0,0.5,0,0.7,0.1v-0.3c0-0.4-0.2-0.6-0.5-0.6c-0.3,0-0.6,0.1-0.9,0.2
			c-0.1-0.1-0.1-0.2-0.1-0.3c0.4-0.2,0.8-0.3,1.1-0.3c0.6,0,0.9,0.3,0.9,0.9v1.2c0,0.1,0,0.2,0,0.3C157.8,18,157.8,18.1,157.8,18.1
			 M157.3,17.6V17c-0.1,0-0.2,0-0.3,0c-0.1,0-0.2,0-0.3,0c-0.2,0-0.4,0-0.5,0.1c-0.1,0.1-0.2,0.2-0.2,0.4c0,0.2,0,0.3,0.1,0.4
			c0.1,0.1,0.2,0.1,0.3,0.1c0.1,0,0.3,0,0.4-0.1C157,17.8,157.2,17.7,157.3,17.6"/>
		<path class="st7" d="M160.8,16.4v1.4c0,0.2,0,0.4,0.1,0.5c-0.1,0.1-0.1,0.1-0.3,0.1c-0.1,0-0.2-0.1-0.2-0.3v-1.6
			c0-0.2,0-0.4-0.1-0.5c-0.1-0.1-0.2-0.1-0.3-0.1c-0.1,0-0.3,0-0.5,0.1c-0.2,0.1-0.3,0.2-0.4,0.3v2c-0.1,0-0.1,0-0.2,0
			c-0.1,0-0.2,0-0.2,0v-2.7l0,0h0.2c0.1,0,0.1,0,0.2,0.1c0,0,0,0.1,0,0.2v0.1c0.1-0.1,0.3-0.2,0.4-0.3c0.2-0.1,0.3-0.1,0.5-0.1
			c0.3,0,0.4,0.1,0.5,0.2C160.7,15.9,160.8,16.1,160.8,16.4"/>
		<path class="st7" d="M162.2,15.9v2.4c-0.1,0-0.1,0-0.2,0c-0.1,0-0.2,0-0.2,0v-2.2c0-0.1,0-0.2-0.1-0.2c0,0-0.1-0.1-0.2-0.1h-0.1
			c0,0,0-0.1,0-0.2c0-0.1,0-0.1,0-0.2c0.1,0,0.1,0,0.2,0c0,0,0.1,0,0.1,0h0c0.1,0,0.2,0,0.3,0.1C162.1,15.7,162.2,15.8,162.2,15.9
			 M161.6,14.6c0.1,0,0.1-0.1,0.3-0.1c0.1,0,0.2,0,0.2,0.1c0,0,0.1,0.1,0.1,0.2c0,0.1,0,0.2-0.1,0.2c0,0-0.1,0.1-0.2,0.1
			c-0.1,0-0.2,0-0.2,0c-0.1,0-0.1-0.1-0.1-0.2C161.6,14.7,161.6,14.6,161.6,14.6"/>
		<path class="st7" d="M165.1,17h-1.7c0,0.6,0.3,1,0.7,1c0.3,0,0.5-0.1,0.8-0.2c0.1,0.1,0.1,0.2,0.2,0.3c-0.3,0.2-0.6,0.3-1,0.3
			c-0.2,0-0.4,0-0.5-0.1c-0.1-0.1-0.3-0.2-0.3-0.3c-0.1-0.1-0.2-0.3-0.2-0.5c0-0.2-0.1-0.4-0.1-0.6c0-0.2,0-0.4,0.1-0.6
			c0.1-0.2,0.1-0.3,0.2-0.5c0.1-0.1,0.2-0.2,0.4-0.3c0.1-0.1,0.3-0.1,0.5-0.1c0.2,0,0.3,0,0.5,0.1c0.1,0.1,0.3,0.1,0.3,0.3
			c0.1,0.1,0.2,0.2,0.2,0.4c0,0.1,0.1,0.3,0.1,0.5c0,0.1,0,0.1,0,0.2C165.1,16.9,165.1,17,165.1,17 M163.4,16.7h1.3v-0.1
			c0-0.3-0.1-0.5-0.2-0.6c-0.1-0.2-0.3-0.2-0.5-0.2c-0.2,0-0.4,0.1-0.5,0.3C163.5,16.2,163.4,16.4,163.4,16.7"/>
		<path class="st7" d="M165.7,18.1c0-0.1,0.1-0.2,0.2-0.3c0.2,0.1,0.3,0.2,0.5,0.2c0.1,0,0.3,0.1,0.4,0.1c0.1,0,0.2,0,0.2,0
			c0.1,0,0.1-0.1,0.2-0.1c0,0,0.1-0.1,0.1-0.1c0,0,0-0.1,0-0.1c0-0.1,0-0.2-0.1-0.3c-0.1-0.1-0.2-0.1-0.3-0.2l-0.3-0.1
			c-0.2-0.1-0.4-0.2-0.5-0.3c-0.1-0.1-0.2-0.3-0.2-0.5c0-0.1,0-0.2,0.1-0.3c0-0.1,0.1-0.2,0.2-0.2c0.1-0.1,0.2-0.1,0.3-0.2
			c0.1,0,0.2-0.1,0.4-0.1c0.3,0,0.6,0.1,0.8,0.2c0,0.1,0,0.2-0.1,0.3c-0.1-0.1-0.3-0.1-0.4-0.1c-0.1,0-0.2,0-0.3,0
			c-0.2,0-0.3,0-0.4,0.1c-0.1,0.1-0.1,0.2-0.1,0.3c0,0.1,0,0.2,0.1,0.3c0.1,0.1,0.2,0.1,0.3,0.2l0.3,0.1c0.5,0.2,0.7,0.5,0.7,0.8
			c0,0.2-0.1,0.4-0.3,0.6c-0.2,0.1-0.4,0.2-0.8,0.2C166.3,18.4,166,18.3,165.7,18.1"/>
		<path class="st7" d="M88.6,26.3v-2.4l-0.5,0c0-0.1,0-0.1,0-0.2c0-0.1,0-0.1,0-0.2l0.5,0c0-0.2,0-0.3,0-0.4c0-0.1,0-0.2,0-0.2
			c0-0.1,0-0.2,0.1-0.3c0-0.1,0.1-0.2,0.2-0.3c0.1-0.1,0.1-0.1,0.2-0.2c0.1,0,0.2-0.1,0.3-0.1c0.2,0,0.5,0,0.7,0.1
			c0,0.1,0,0.2-0.1,0.3c-0.1,0-0.2-0.1-0.3-0.1c-0.1,0-0.2,0-0.2,0c-0.1,0-0.3,0-0.3,0.1c-0.1,0.1-0.1,0.2-0.1,0.4
			c0,0.1,0,0.3,0.1,0.5l0.8,0c0,0.1,0,0.1,0,0.2c0,0,0,0.1,0,0.2l-0.8,0v2.4c-0.1,0-0.1,0-0.2,0C88.7,26.3,88.6,26.3,88.6,26.3"/>
		<path class="st7" d="M91.9,26c-0.2,0.2-0.5,0.3-0.8,0.3c-0.2,0-0.4,0-0.5-0.1c-0.1-0.1-0.3-0.2-0.4-0.3c-0.1-0.1-0.2-0.3-0.2-0.5
			C90,25.3,90,25.1,90,24.9c0-0.2,0-0.4,0.1-0.6c0.1-0.2,0.1-0.3,0.2-0.5c0.1-0.1,0.2-0.2,0.4-0.3c0.1-0.1,0.3-0.1,0.5-0.1
			c0.2,0,0.4,0,0.5,0.1c0.1,0.1,0.3,0.2,0.4,0.3c0.1,0.1,0.2,0.3,0.2,0.5c0.1,0.2,0.1,0.4,0.1,0.6C92.3,25.4,92.2,25.8,91.9,26
			 M91.1,26c0.2,0,0.4-0.1,0.5-0.3c0.1-0.2,0.2-0.5,0.2-0.8c0-0.1,0-0.3,0-0.4c0-0.1-0.1-0.3-0.1-0.4c-0.1-0.1-0.1-0.2-0.2-0.2
			c-0.1-0.1-0.2-0.1-0.3-0.1c-0.1,0-0.2,0-0.3,0.1c-0.1,0.1-0.2,0.1-0.2,0.2c-0.1,0.1-0.1,0.2-0.1,0.4c0,0.1,0,0.3,0,0.4
			c0,0.2,0,0.3,0,0.4c0,0.1,0.1,0.3,0.1,0.4c0.1,0.1,0.1,0.2,0.2,0.2C90.9,26,91,26,91.1,26"/>
		<path class="st7" d="M92.9,23.7c0-0.1,0.1-0.2,0.2-0.2c0.2,0.1,0.3,0.2,0.4,0.5c0.2-0.3,0.4-0.5,0.8-0.5c0.1,0,0.2,0,0.3,0
			c0,0.2,0,0.3-0.1,0.4c0,0-0.1,0-0.2,0c-0.3,0-0.5,0.2-0.7,0.5v1.9c-0.1,0-0.1,0-0.2,0c-0.1,0-0.2,0-0.2,0v-2
			C93.1,24,93.1,23.8,92.9,23.7"/>
		<path class="st7" d="M98.5,23.6c0-0.1,0-0.2,0-0.3c0-0.1-0.1-0.2-0.2-0.3c-0.1-0.1-0.2-0.2-0.3-0.2c-0.1-0.1-0.3-0.1-0.4-0.1
			c-0.3,0-0.6,0.1-0.7,0.4c-0.2,0.3-0.3,0.7-0.3,1.2c0,0.5,0.1,0.9,0.3,1.2c0.2,0.3,0.4,0.4,0.8,0.4c0.3,0,0.7-0.1,1-0.4
			c0.1,0.1,0.2,0.2,0.2,0.3c-0.2,0.2-0.4,0.3-0.6,0.4c-0.2,0.1-0.5,0.1-0.7,0.1c-0.3,0-0.5-0.1-0.6-0.2c-0.2-0.1-0.3-0.2-0.4-0.4
			c-0.1-0.2-0.2-0.4-0.3-0.6c-0.1-0.2-0.1-0.5-0.1-0.8c0-0.3,0-0.6,0.1-0.9c0.1-0.3,0.2-0.5,0.3-0.6c0.1-0.2,0.3-0.3,0.5-0.4
			c0.2-0.1,0.4-0.1,0.6-0.1c0.2,0,0.4,0,0.5,0.1c0.2,0.1,0.3,0.1,0.4,0.2c0.1,0.1,0.2,0.2,0.3,0.3c0.1,0.1,0.1,0.3,0.1,0.4
			c0,0.2-0.1,0.3-0.2,0.3C98.6,23.7,98.6,23.7,98.5,23.6"/>
		<path class="st7" d="M100.3,25.9h0.2c0,0,0,0.1,0,0.1c0,0,0,0.1,0,0.1c0,0,0,0,0,0.1c0,0,0,0,0,0c-0.1,0-0.1,0-0.2,0
			c-0.1,0-0.1,0-0.2,0c-0.2,0-0.3,0-0.4-0.1c-0.1-0.1-0.2-0.2-0.2-0.4v-3.6l0,0h0.2c0.1,0,0.1,0,0.2,0.1c0,0,0,0.1,0,0.2v3.3
			C100.1,25.8,100.1,25.9,100.3,25.9"/>
		<path class="st7" d="M101.7,23.9v2.4c-0.1,0-0.1,0-0.2,0c-0.1,0-0.2,0-0.2,0v-2.2c0-0.1,0-0.2-0.1-0.2c0,0-0.1-0.1-0.2-0.1H101
			c0,0,0-0.1,0-0.2c0-0.1,0-0.1,0-0.2c0.1,0,0.1,0,0.2,0c0,0,0.1,0,0.1,0h0c0.1,0,0.2,0,0.3,0.1C101.7,23.7,101.7,23.8,101.7,23.9
			 M101.2,22.5c0.1,0,0.1-0.1,0.3-0.1c0.1,0,0.2,0,0.2,0.1s0.1,0.1,0.1,0.2c0,0.1,0,0.2-0.1,0.2c0,0-0.1,0.1-0.2,0.1
			c-0.1,0-0.2,0-0.2,0c-0.1,0-0.1-0.1-0.1-0.2C101.1,22.7,101.1,22.6,101.2,22.5"/>
		<path class="st7" d="M104.2,24.5c0-0.2,0-0.4-0.1-0.5c-0.1-0.1-0.2-0.1-0.3-0.1c-0.1,0-0.3,0-0.4,0.1c-0.1,0.1-0.3,0.2-0.4,0.3v2
			c-0.1,0-0.1,0-0.2,0c-0.1,0-0.2,0-0.2,0v-2.7l0,0h0.2c0.1,0,0.1,0,0.2,0.1c0,0,0,0.1,0,0.2v0.1c0.2-0.3,0.5-0.4,0.8-0.4
			c0.3,0,0.5,0.1,0.6,0.4c0.3-0.3,0.6-0.4,0.9-0.4c0.2,0,0.4,0.1,0.5,0.2c0.1,0.2,0.2,0.4,0.2,0.6v1.4c0,0.2,0,0.4,0.1,0.5
			c-0.1,0.1-0.2,0.1-0.3,0.1c-0.1,0-0.2-0.1-0.2-0.3v-1.6c0-0.2,0-0.4-0.1-0.5c-0.1-0.1-0.2-0.1-0.3-0.1c-0.1,0-0.3,0-0.4,0.1
			c-0.1,0.1-0.3,0.2-0.4,0.3v2c-0.1,0-0.1,0-0.2,0c-0.1,0-0.2,0-0.2,0V24.5z"/>
		<path class="st7" d="M109.1,26.1c0,0.1-0.1,0.2-0.2,0.2c-0.2-0.1-0.3-0.2-0.3-0.4c-0.3,0.3-0.6,0.4-0.8,0.4c-0.1,0-0.3,0-0.4-0.1
			c-0.1,0-0.2-0.1-0.3-0.2c-0.1-0.1-0.1-0.2-0.2-0.3c0-0.1-0.1-0.2-0.1-0.3c0-0.1,0-0.3,0.1-0.4c0.1-0.1,0.1-0.2,0.2-0.3
			c0.1-0.1,0.2-0.1,0.3-0.2c0.1,0,0.2-0.1,0.4-0.1c0.3,0,0.5,0,0.7,0.1v-0.3c0-0.4-0.2-0.6-0.5-0.6c-0.3,0-0.6,0.1-0.9,0.2
			c-0.1-0.1-0.1-0.2-0.1-0.3c0.4-0.2,0.8-0.3,1.1-0.3c0.6,0,0.9,0.3,0.9,0.9v1.2c0,0.1,0,0.2,0,0.3C109,26,109.1,26,109.1,26.1
			 M108.6,25.5V25c-0.1,0-0.2,0-0.3,0c-0.1,0-0.2,0-0.3,0c-0.2,0-0.4,0.1-0.5,0.1c-0.1,0.1-0.2,0.2-0.2,0.4c0,0.2,0,0.3,0.1,0.4
			c0.1,0.1,0.2,0.1,0.3,0.1c0.1,0,0.3,0,0.4-0.1C108.3,25.8,108.5,25.7,108.6,25.5"/>
		<path class="st7" d="M111.1,23.5c0,0.1,0,0.1,0,0.2c0,0.1,0,0.1,0,0.2l-0.7,0v1.9c0,0.2,0.1,0.2,0.2,0.2h0.4c0,0.1,0,0.1,0,0.2
			c0,0.1,0,0.1,0,0.1c-0.2,0-0.3,0-0.5,0c-0.4,0-0.5-0.2-0.5-0.5v-2l-0.4,0c0-0.1,0-0.1,0-0.2c0-0.1,0-0.1,0-0.2l0.4,0v-0.6
			c0-0.1,0-0.2,0-0.2c0,0,0.1-0.1,0.2-0.1h0.2l0,0v0.8L111.1,23.5z"/>
		<path class="st7" d="M113.7,25h-1.7c0,0.6,0.3,1,0.7,1c0.3,0,0.5-0.1,0.8-0.2c0.1,0.1,0.1,0.2,0.2,0.3c-0.3,0.2-0.6,0.3-1,0.3
			c-0.2,0-0.4,0-0.5-0.1c-0.1-0.1-0.3-0.2-0.3-0.3c-0.1-0.1-0.2-0.3-0.2-0.5c0-0.2-0.1-0.4-0.1-0.6c0-0.2,0-0.4,0.1-0.6
			c0.1-0.2,0.1-0.3,0.2-0.5c0.1-0.1,0.2-0.2,0.4-0.3c0.1-0.1,0.3-0.1,0.5-0.1c0.2,0,0.3,0,0.5,0.1c0.1,0.1,0.3,0.1,0.3,0.3
			s0.2,0.2,0.2,0.4c0,0.1,0.1,0.3,0.1,0.5c0,0.1,0,0.1,0,0.2C113.7,24.9,113.7,24.9,113.7,25 M111.9,24.7h1.3v-0.1
			c0-0.3-0.1-0.5-0.2-0.6c-0.1-0.2-0.3-0.2-0.5-0.2c-0.2,0-0.4,0.1-0.5,0.3C112,24.2,112,24.4,111.9,24.7"/>
		<path class="st7" d="M115.7,26.2l0.3-3.8c0.1,0,0.2,0,0.3,0c0.1,0,0.2,0,0.3,0l0.6,2c0,0.1,0.1,0.2,0.1,0.4
			c0.1,0.2,0.1,0.3,0.1,0.4h0c0.1-0.3,0.1-0.5,0.2-0.8l0.6-2c0.1,0,0.2,0,0.3,0c0.1,0,0.2,0,0.3,0l0.3,3.8c-0.1,0-0.1,0-0.2,0
			c-0.1,0-0.1,0-0.2,0l-0.2-2.3c0-0.2,0-0.5,0-1.1h0l-0.9,2.8c-0.1,0-0.2,0-0.2,0c-0.1,0-0.1,0-0.2,0l-0.9-2.8h0c0,0.1,0,0.3,0,0.5
			c0,0.3,0,0.4,0,0.5l-0.2,2.3c-0.1,0-0.1,0-0.2,0C115.9,26.3,115.8,26.3,115.7,26.2"/>
		<path class="st7" d="M120.7,23.9v2.4c-0.1,0-0.1,0-0.2,0c-0.1,0-0.2,0-0.2,0v-2.2c0-0.1,0-0.2-0.1-0.2c0,0-0.1-0.1-0.2-0.1H120
			c0,0,0-0.1,0-0.2c0-0.1,0-0.1,0-0.2c0.1,0,0.1,0,0.2,0c0,0,0.1,0,0.1,0h0c0.1,0,0.2,0,0.3,0.1C120.6,23.7,120.7,23.8,120.7,23.9
			 M120.1,22.5c0.1,0,0.1-0.1,0.3-0.1c0.1,0,0.2,0,0.2,0.1c0,0,0.1,0.1,0.1,0.2c0,0.1,0,0.2-0.1,0.2c0,0-0.1,0.1-0.2,0.1
			c-0.1,0-0.2,0-0.2,0c-0.1,0-0.1-0.1-0.1-0.2C120.1,22.7,120.1,22.6,120.1,22.5"/>
		<path class="st7" d="M122.8,23.5c0,0.1,0,0.1,0,0.2c0,0.1,0,0.1,0,0.2l-0.7,0v1.9c0,0.2,0.1,0.2,0.2,0.2h0.4c0,0.1,0,0.1,0,0.2
			c0,0.1,0,0.1,0,0.1c-0.2,0-0.3,0-0.5,0c-0.4,0-0.5-0.2-0.5-0.5v-2l-0.4,0c0-0.1,0-0.1,0-0.2c0-0.1,0-0.1,0-0.2l0.4,0v-0.6
			c0-0.1,0-0.2,0-0.2c0,0,0.1-0.1,0.2-0.1h0.2l0,0v0.8L122.8,23.5z"/>
		<path class="st7" d="M124,23.9v2.4c-0.1,0-0.1,0-0.2,0c-0.1,0-0.2,0-0.2,0v-2.2c0-0.1,0-0.2-0.1-0.2c0,0-0.1-0.1-0.2-0.1h-0.1
			c0,0,0-0.1,0-0.2c0-0.1,0-0.1,0-0.2c0.1,0,0.1,0,0.2,0c0,0,0.1,0,0.1,0h0c0.1,0,0.2,0,0.3,0.1C124,23.7,124,23.8,124,23.9
			 M123.5,22.5c0.1,0,0.1-0.1,0.3-0.1c0.1,0,0.2,0,0.2,0.1s0.1,0.1,0.1,0.2c0,0.1,0,0.2-0.1,0.2c0,0-0.1,0.1-0.2,0.1
			c-0.1,0-0.2,0-0.2,0c-0.1,0-0.1-0.1-0.1-0.2C123.4,22.7,123.5,22.6,123.5,22.5"/>
		<path class="st7" d="M126.6,23.7c0.1-0.1,0.2-0.2,0.3-0.3c0.1,0.1,0.2,0.1,0.2,0.2c-0.1,0.1-0.2,0.3-0.2,0.6V26
			c0,0.3,0,0.5-0.1,0.7c0,0.2-0.1,0.3-0.2,0.4c-0.1,0.1-0.2,0.2-0.3,0.3c-0.1,0.1-0.3,0.1-0.5,0.1c-0.4,0-0.7-0.1-1-0.2
			c0-0.1,0-0.2,0.1-0.3c0.3,0.1,0.5,0.2,0.8,0.2c0.1,0,0.3,0,0.4-0.1c0.1,0,0.2-0.1,0.2-0.2c0.1-0.1,0.1-0.2,0.1-0.3
			c0-0.1,0-0.2,0-0.4v-0.3c-0.2,0.2-0.5,0.4-0.8,0.4c-0.3,0-0.5-0.1-0.7-0.4c-0.2-0.3-0.2-0.6-0.2-1.1c0-0.2,0-0.4,0.1-0.6
			c0.1-0.2,0.1-0.3,0.2-0.4c0.1-0.1,0.2-0.2,0.3-0.3c0.1-0.1,0.3-0.1,0.4-0.1C126.1,23.4,126.4,23.5,126.6,23.7 M126.6,25.5v-1.5
			c-0.1-0.1-0.2-0.2-0.3-0.2c-0.1,0-0.2-0.1-0.3-0.1c-0.2,0-0.4,0.1-0.5,0.3c-0.1,0.2-0.2,0.5-0.2,0.8c0,0.4,0.1,0.6,0.2,0.8
			c0.1,0.2,0.2,0.3,0.4,0.3c0.2,0,0.3,0,0.4-0.1C126.4,25.7,126.5,25.6,126.6,25.5"/>
		<path class="st7" d="M130,26.1c0,0.1-0.1,0.2-0.2,0.2c-0.2-0.1-0.3-0.2-0.3-0.4c-0.3,0.3-0.6,0.4-0.8,0.4c-0.1,0-0.3,0-0.4-0.1
			c-0.1,0-0.2-0.1-0.3-0.2c-0.1-0.1-0.1-0.2-0.2-0.3c0-0.1-0.1-0.2-0.1-0.3c0-0.1,0-0.3,0.1-0.4c0.1-0.1,0.1-0.2,0.2-0.3
			c0.1-0.1,0.2-0.1,0.3-0.2c0.1,0,0.2-0.1,0.4-0.1c0.3,0,0.5,0,0.7,0.1v-0.3c0-0.4-0.2-0.6-0.5-0.6c-0.3,0-0.6,0.1-0.9,0.2
			c-0.1-0.1-0.1-0.2-0.1-0.3c0.4-0.2,0.8-0.3,1.1-0.3c0.6,0,0.9,0.3,0.9,0.9v1.2c0,0.1,0,0.2,0,0.3C129.9,26,129.9,26,130,26.1
			 M129.4,25.5V25c-0.1,0-0.2,0-0.3,0c-0.1,0-0.2,0-0.3,0c-0.2,0-0.4,0.1-0.5,0.1c-0.1,0.1-0.2,0.2-0.2,0.4c0,0.2,0,0.3,0.1,0.4
			c0.1,0.1,0.2,0.1,0.3,0.1c0.1,0,0.3,0,0.4-0.1C129.2,25.8,129.3,25.7,129.4,25.5"/>
		<path class="st7" d="M131.9,23.5c0,0.1,0,0.1,0,0.2c0,0.1,0,0.1,0,0.2l-0.7,0v1.9c0,0.2,0.1,0.2,0.2,0.2h0.4c0,0.1,0,0.1,0,0.2
			c0,0.1,0,0.1,0,0.1c-0.2,0-0.3,0-0.5,0c-0.4,0-0.5-0.2-0.5-0.5v-2l-0.4,0c0-0.1,0-0.1,0-0.2c0-0.1,0-0.1,0-0.2l0.4,0v-0.6
			c0-0.1,0-0.2,0-0.2c0,0,0.1-0.1,0.2-0.1h0.2l0,0v0.8L131.9,23.5z"/>
		<path class="st7" d="M133.1,23.9v2.4c-0.1,0-0.1,0-0.2,0c-0.1,0-0.2,0-0.2,0v-2.2c0-0.1,0-0.2-0.1-0.2c0,0-0.1-0.1-0.2-0.1h-0.1
			c0,0,0-0.1,0-0.2c0-0.1,0-0.1,0-0.2c0.1,0,0.1,0,0.2,0c0,0,0.1,0,0.1,0h0c0.1,0,0.2,0,0.3,0.1C133.1,23.7,133.1,23.8,133.1,23.9
			 M132.6,22.5c0.1,0,0.1-0.1,0.3-0.1c0.1,0,0.2,0,0.2,0.1c0,0,0.1,0.1,0.1,0.2c0,0.1,0,0.2-0.1,0.2c0,0-0.1,0.1-0.2,0.1
			c-0.1,0-0.2,0-0.2,0c-0.1,0-0.1-0.1-0.1-0.2C132.5,22.7,132.5,22.6,132.6,22.5"/>
		<path class="st7" d="M135.8,26c-0.2,0.2-0.5,0.3-0.8,0.3c-0.2,0-0.4,0-0.5-0.1c-0.1-0.1-0.3-0.2-0.4-0.3c-0.1-0.1-0.2-0.3-0.2-0.5
			c-0.1-0.2-0.1-0.4-0.1-0.6c0-0.2,0-0.4,0.1-0.6c0.1-0.2,0.1-0.3,0.2-0.5c0.1-0.1,0.2-0.2,0.4-0.3c0.1-0.1,0.3-0.1,0.5-0.1
			c0.2,0,0.4,0,0.5,0.1c0.1,0.1,0.3,0.2,0.4,0.3c0.1,0.1,0.2,0.3,0.2,0.5c0.1,0.2,0.1,0.4,0.1,0.6C136.2,25.4,136.1,25.8,135.8,26
			 M135.1,26c0.2,0,0.4-0.1,0.5-0.3c0.1-0.2,0.2-0.5,0.2-0.8c0-0.1,0-0.3,0-0.4c0-0.1-0.1-0.3-0.1-0.4c-0.1-0.1-0.1-0.2-0.2-0.2
			c-0.1-0.1-0.2-0.1-0.3-0.1c-0.1,0-0.2,0-0.3,0.1c-0.1,0.1-0.2,0.1-0.2,0.2c-0.1,0.1-0.1,0.2-0.1,0.4c0,0.1,0,0.3,0,0.4
			c0,0.2,0,0.3,0,0.4c0,0.1,0.1,0.3,0.1,0.4c0.1,0.1,0.1,0.2,0.2,0.2C134.8,26,134.9,26,135.1,26"/>
		<path class="st7" d="M139.1,24.3v1.4c0,0.2,0,0.4,0.1,0.5c-0.1,0.1-0.1,0.1-0.3,0.1c-0.1,0-0.2-0.1-0.2-0.3v-1.6
			c0-0.2,0-0.4-0.1-0.5c-0.1-0.1-0.2-0.1-0.3-0.1c-0.1,0-0.3,0-0.5,0.1c-0.2,0.1-0.3,0.2-0.4,0.3v2c-0.1,0-0.1,0-0.2,0
			c-0.1,0-0.2,0-0.2,0v-2.7l0,0h0.2c0.1,0,0.1,0,0.2,0.1c0,0,0,0.1,0,0.2v0.1c0.1-0.1,0.3-0.2,0.4-0.3c0.2-0.1,0.3-0.1,0.5-0.1
			c0.3,0,0.4,0.1,0.5,0.2C139.1,23.9,139.1,24.1,139.1,24.3"/>
		<path class="st7" d="M20.1,59.1L15,33.8c0.8-0.3,1.5-0.5,2.3-0.5c0.7,0,1.3,0.2,1.6,0.5c0.3,0.3,0.6,0.9,0.7,1.8l2.5,13.7
			c0.6,3.4,1,6,1.3,7.8c0,0.3,0.1,0.5,0.4,0.5l4.4-23.3c0.9-0.1,1.8-0.2,2.9-0.2s1.9,0.1,2.7,0.2l4,22.9c0.1,0.3,0.2,0.5,0.4,0.5
			c0.3-1.9,0.7-4.6,1.4-8.3l3.1-15.6c0.5-0.1,1.2-0.2,1.9-0.2s1.4,0.1,2,0.2l0.2,0.3l-5.7,27c-1,0.2-2.1,0.2-3.3,0.2
			c-1.1,0-1.9-0.1-2.3-0.4c-0.4-0.3-0.7-0.8-0.9-1.7l-1.9-10.8c-0.7-3.9-1.2-7.2-1.6-9.9h-0.3c-0.5,3.4-1.1,6.7-1.8,9.9L26.6,61
			c-1.2,0.1-2.2,0.2-3.3,0.2c-1,0-1.8-0.1-2.3-0.4C20.5,60.5,20.2,60,20.1,59.1"/>
		<path class="st7" d="M63.8,61.3c-3.3,0.2-7.5,0.2-9.5,0.2c-1,0-1.9-0.2-2.7-0.5c-0.8-0.3-1.4-0.8-1.9-1.3
			c-0.5-0.5-0.9-1.2-1.2-1.9c-0.3-0.7-0.4-1.5-0.4-2.2c0-2.2,0.7-3.9,2.1-5c1.4-1.1,3.3-1.7,5.6-1.7c0.7,0,1.3,0,2,0.1
			c0.6,0,1.3,0.1,1.9,0.2v-1.6c0-2.4-1.1-3.6-3.3-3.6c-1.5,0-3.6,0.5-6.3,1.6c-0.8-0.7-1.2-1.7-1.2-3c2.7-1.2,5.5-1.8,8.3-1.8
			c2.1,0,3.7,0.6,4.9,1.7c1.2,1.1,1.7,2.8,1.7,5v8.2C63.8,57.4,63.9,60.3,63.8,61.3 M55,58.3c1.7,0,2.6,0.1,4.7-0.2v-6
			c-0.5-0.1-1.1-0.1-1.7-0.1c-0.6,0-1.2,0-1.8,0c-1.2,0-2.2,0.3-2.9,0.9c-0.7,0.6-1,1.4-1,2.4c0,1,0.2,1.7,0.7,2.3
			C53.5,58,54.2,58.3,55,58.3"/>
		<path class="st7" d="M85.3,43.1c0-0.9-0.1-1.7-0.3-2.5c-0.2-0.8-0.5-1.5-1-2.1c-0.5-0.6-1-1.1-1.8-1.4c-0.7-0.4-1.6-0.5-2.7-0.5
			c-2.1,0-3.6,0.9-4.7,2.8c-1.1,1.8-1.6,4.5-1.6,7.9c0,3.4,0.6,6,1.7,7.8c1.2,1.8,2.9,2.7,5.1,2.7c2.2,0,4.6-1,7-3
			c1.1,0.7,1.8,1.6,2.1,2.8c-0.6,0.6-1.3,1.1-2,1.6c-0.8,0.5-1.6,0.9-2.4,1.3c-0.8,0.4-1.7,0.6-2.6,0.8c-0.9,0.2-1.8,0.3-2.6,0.3
			c-2.1,0-3.8-0.4-5.2-1.2c-1.4-0.8-2.5-1.8-3.3-3.1c-0.8-1.3-1.4-2.8-1.8-4.5c-0.4-1.7-0.6-3.5-0.6-5.3c0-2.4,0.3-4.5,0.8-6.3
			c0.6-1.8,1.3-3.3,2.3-4.5c1-1.2,2.1-2.1,3.4-2.7c1.3-0.6,2.7-0.9,4.2-0.9c1.5,0,2.9,0.2,4.1,0.6c1.2,0.4,2.3,1,3.1,1.7
			c0.9,0.7,1.5,1.6,2,2.5c0.5,0.9,0.7,1.9,0.7,3c0,1.6-0.8,2.4-2.4,2.4C86.5,43.3,85.9,43.2,85.3,43.1"/>
		<path class="st7" d="M165.3,33.3l2.1,27.4c-0.6,0.2-1.3,0.2-2.1,0.2c-0.8,0-1.5-0.1-2-0.2l-0.9-14.7c-0.2-2.1-0.3-4.9-0.3-8.1
			h-0.2l-5.5,18.6c-0.9,0.1-1.6,0.2-2.2,0.2c-0.6,0-1.3-0.1-2.1-0.2l-5.5-18.6h-0.2c-0.1,4-0.2,6.8-0.3,8.1l-1,14.7
			c-0.5,0.1-1.2,0.2-2,0.2c-0.8,0-1.5-0.1-2.1-0.2l2.1-27.4c0.6-0.1,1.6-0.2,2.8-0.2c1.2,0,2.2,0.1,2.8,0.2l3.8,12.6
			c0.7,2.2,1.2,4.3,1.6,6.4h0.2c0.2-1.3,0.7-3.4,1.6-6.4l3.8-12.6c0.7-0.1,1.6-0.2,2.8-0.2C163.7,33.2,164.6,33.2,165.3,33.3"/>
		<path class="st7" d="M134.9,44.4v16.4c-0.5,0.1-1.2,0.2-2.1,0.2c-0.9,0-1.6-0.1-2.1-0.2V46.1c0-0.7-0.1-1.3-0.4-1.6
			c-0.3-0.3-0.7-0.5-1.4-0.5h-0.4c-0.1-0.6-0.2-1.1-0.2-1.5c0-0.4,0.1-0.9,0.2-1.5c0.9-0.1,1.7-0.2,2.5-0.2h0.6c1,0,1.8,0.3,2.4,1
			C134.7,42.4,134.9,43.3,134.9,44.4"/>
		<path class="st7" d="M134.2,33.5c0.3,0.2,0.5,0.9,0.5,1.9c0,1-0.2,1.6-0.5,1.8c-0.3,0.3-1,0.4-2,0.4c-1,0-1.8-0.2-2.2-0.5
			c-0.2-0.5-0.4-1.1-0.4-1.8c0-1.1,0.2-1.7,0.6-1.9c0.4-0.2,1.1-0.3,2-0.3C133.2,33.2,133.9,33.3,134.2,33.5"/>
		<path class="st7" d="M125.9,59.4c0,0.5,0,0.9-0.1,1.2c-1.1,0.2-2.2,0.3-3.4,0.3c-2.7,0-4-1.4-4-4.1V31.5l0.3-0.2h1.6
			c0.8,0,1.4,0.2,1.7,0.6c0.3,0.4,0.5,1.1,0.5,2v21.9c0,1.2,0.5,1.8,1.6,1.8h1.5C125.7,58.3,125.9,58.9,125.9,59.4"/>
		<path class="st7" d="M113.7,40.6c0,1.6-0.8,2.4-2.4,2.4c-0.5,0-1.1-0.1-1.8-0.2c0-0.9-0.1-1.7-0.3-2.5c-0.2-0.8-0.5-1.5-1-2.1
			c-0.5-0.6-1-1.1-1.8-1.4c-0.7-0.4-1.6-0.5-2.7-0.5c-2.1,0-3.6,0.9-4.7,2.8c-1.1,1.8-1.6,4.5-1.6,7.9c0,3.4,0.6,6,1.7,7.8
			c1.2,1.8,2.9,2.7,5.1,2.7c2.2,0,4.6-1,7-3c1.1,0.7,1.8,1.6,2.1,2.8c-0.6,0.6-1.3,1.1-2,1.6c-0.8,0.5-1.6,0.9-2.4,1.3
			c-0.8,0.4-1.7,0.6-2.6,0.8c-0.9,0.2-1.8,0.3-2.6,0.3c-2.1,0-3.8-0.4-5.2-1.2c-1.4-0.8-2.5-1.8-3.3-3.1c-0.8-1.3-1.4-2.8-1.8-4.5
			C93.2,50.8,93,49,93,47.2c0-2.4,0.3-4.5,0.8-6.3c0.6-1.8,1.3-3.3,2.3-4.5c1-1.2,2.1-2.1,3.4-2.7c1.3-0.6,2.7-0.9,4.2-0.9
			c1.5,0,2.9,0.2,4.1,0.6c1.2,0.4,2.3,1,3.1,1.7c0.9,0.7,1.5,1.6,2,2.5C113.5,38.6,113.7,39.6,113.7,40.6"/>
	</g>
</g>
<g id="infog">
</g>
<g id="above">
</g>
<g id="notes_laia" class="st799">
</g>
</svg>
