<svg xmlns="http://www.w3.org/2000/svg" viewBox="0 0 45 45"><defs><style>.cls-1{fill:#327ccb;}</style></defs><title>Mesa de trabajo 34</title><g id="elements"><path class="cls-1" d="M36.68,10,35.07,8.4a3.25,3.25,0,0,0-4.49,0L28.5,10.48h0L16.08,22.9a.89.89,0,0,0-.25.5L15,29a.89.89,0,0,0,.25.76.88.88,0,0,0,.63.26H16l5.64-.81a.89.89,0,0,0,.5-.25L34.58,16.59h0l2.08-2.08a3.17,3.17,0,0,0,0-4.49ZM21.12,27.53l-4.17.6.6-4.17L29.13,12.38,32.7,16ZM35.42,13.23,34,14.69l-3.57-3.57,1.46-1.46a1.42,1.42,0,0,1,2,0l1.61,1.61a1.39,1.39,0,0,1,0,2Zm.52,10v7.43A6.85,6.85,0,0,1,29.1,37.5H14.23a6.85,6.85,0,0,1-6.84-6.84V15.79A6.85,6.85,0,0,1,14.23,9h7.43a.89.89,0,1,1,0,1.78H14.23a5.06,5.06,0,0,0-5.05,5.05V30.66a5.06,5.06,0,0,0,5.05,5.05H29.1a5.06,5.06,0,0,0,5.05-5.05V23.23a.89.89,0,0,1,1.78,0Z"/></g></svg>