<svg id="fons" xmlns="http://www.w3.org/2000/svg" viewBox="0 0 45 45"><defs><style>.cls-1{fill:#fff;}</style></defs><title>Mesa de trabajo 34 copia 5</title><path class="cls-1" d="M22.61,12.2l.28,0a5.55,5.55,0,0,1,2,.52,3.37,3.37,0,0,1,1.38,1.18,3.28,3.28,0,0,1,.37,2.58,3.21,3.21,0,0,1-.76,1.27,8.68,8.68,0,0,1-1.29,1.06l-.73.55a1.54,1.54,0,0,0-.47.69l-.17.42a1,1,0,0,1-.9.65,1.28,1.28,0,0,1-.66-.11,1.08,1.08,0,0,1-.6-.8,1.84,1.84,0,0,1,.3-1.37A3.75,3.75,0,0,1,22.2,18c.34-.28.69-.54,1-.82a2.73,2.73,0,0,0,.71-.81,1.5,1.5,0,0,0-.18-1.68,1.41,1.41,0,0,0-.76-.43,2.44,2.44,0,0,0-1.2,0,1.48,1.48,0,0,0-.93.78c-.12.23-.23.46-.34.69a1.69,1.69,0,0,1-.33.47,1.15,1.15,0,0,1-.88.28,1.24,1.24,0,0,1-.56-.15,1,1,0,0,1-.5-.85,2.49,2.49,0,0,1,.53-1.58,4,4,0,0,1,1.57-1.26,4.65,4.65,0,0,1,1.47-.42l.3,0Z"/><path class="cls-1" d="M22.1,25.91l-.23,0a1.43,1.43,0,1,1,.63,0l-.13,0Z"/><path class="cls-1" d="M16.95,30.91c-.72-.18-1.43-.3-2.1-.53a10.19,10.19,0,0,1-7.1-8.32A14.51,14.51,0,0,1,8,15.15a10.23,10.23,0,0,1,8.74-7.48,28.92,28.92,0,0,1,4.12-.14c2,0,4.06-.05,6.09,0a10.19,10.19,0,0,1,9.68,6.34,8.69,8.69,0,0,1,.81,3.5,37.59,37.59,0,0,1-.08,4.43A9.86,9.86,0,0,1,34,28.27a10.42,10.42,0,0,1-7.51,2.66,1.45,1.45,0,0,0-1.24.54c-1.64,1.8-3.31,3.61-5,5.38a1.85,1.85,0,0,1-3-.3,2.36,2.36,0,0,1-.24-1c0-1.43,0-2.85,0-4.28Zm1.87,4.69.32-.34,5.44-5.86a1,1,0,0,1,.85-.37,15.54,15.54,0,0,0,3.34-.17,8.61,8.61,0,0,0,6.91-8.5,20.57,20.57,0,0,0-.18-4.1,8.57,8.57,0,0,0-8.4-6.85H18.27a9.83,9.83,0,0,0-1.92.2,8.58,8.58,0,0,0-6.75,7.1,25.28,25.28,0,0,0-.13,3.48,9.74,9.74,0,0,0,.16,1.89,8.63,8.63,0,0,0,8.32,7h.87Z"/></svg>