<svg xmlns="http://www.w3.org/2000/svg" viewBox="0 0 45 45"><defs><style>.cls-1{fill:#fff;}</style></defs><title>Mesa de trabajo 34 copia 7</title><g id="above"><path class="cls-1" d="M28.51,7.5H20.13a3,3,0,0,0-3,3v24a3,3,0,0,0,3,3h16a3,3,0,0,0,3-3V17.05Zm.62,3.24,7.5,6.76h-6.5a1,1,0,0,1-1-1Zm7,24.76h-16a1,1,0,0,1-1-1v-24a1,1,0,0,1,1-1h7v7a3,3,0,0,0,3,3h7v15A1,1,0,0,1,36.13,35.5Z"/><path class="cls-1" d="M8.8,17.72,5.16,21.36a1,1,0,0,0,1.41,1.41L7.8,21.55v9.7a1,1,0,0,0,2,0v-9.7L11,22.77a1,1,0,0,0,1.41-1.41Z"/></g></svg>