<svg xmlns="http://www.w3.org/2000/svg" viewBox="0 0 45 45"><defs><style>.cls-1{fill:#706f6f;}</style></defs><title>Mesa de trabajo 34 copia 4</title><g id="elements"><path class="cls-1" d="M28.51,7.5H20.13a3,3,0,0,0-3,3v24a3,3,0,0,0,3,3h16a3,3,0,0,0,3-3V17.05Zm.62,3.24,7.5,6.76h-6.5a1,1,0,0,1-1-1Zm7,24.76h-16a1,1,0,0,1-1-1v-24a1,1,0,0,1,1-1h7v7a3,3,0,0,0,3,3h7v15A1,1,0,0,1,36.13,35.5Z"/><path class="cls-1" d="M11,27.61,9.8,28.84v-9.7a1,1,0,0,0-2,0v9.7L6.57,27.61A1,1,0,0,0,5.16,29L8.8,32.67,12.44,29A1,1,0,0,0,11,27.61Z"/></g></svg>