<svg xmlns="http://www.w3.org/2000/svg" viewBox="0 0 45 45"><defs><style>.cls-1{fill:#fff;}</style></defs><title>Mesa de trabajo 34 copia 6</title><g id="above"><path class="cls-1" d="M28,2.64H19.61a3,3,0,0,0-3,3v6.73H9.39a3,3,0,0,0-3,3v24a3,3,0,0,0,3,3h16a3,3,0,0,0,3-3V32.64h7.23a3,3,0,0,0,3-3V12.19Zm.62,3.24,7.5,6.76h-6.5a1,1,0,0,1-1-1ZM18.39,15.61l7.5,6.76h-6.5a1,1,0,0,1-1-1Zm7,24.76h-16a1,1,0,0,1-1-1v-24a1,1,0,0,1,1-1h7v7a3,3,0,0,0,3,3h7v15A1,1,0,0,1,25.39,40.36Zm10.23-9.73H28.39V21.91l-9.77-8.79V5.64a1,1,0,0,1,1-1h7v7a3,3,0,0,0,3,3h7v15A1,1,0,0,1,35.61,30.64Z"/></g></svg>