<svg xmlns="http://www.w3.org/2000/svg" viewBox="0 0 45 45"><defs><style>.cls-1{fill:#b2b2b2;}.cls-2{fill:#706f6f;}</style></defs><title>Mesa de trabajo 34 copia 3</title><g id="elements"><path class="cls-1" d="M33.62,31.81l0,0h0a13.34,13.34,0,0,0,.88-1.19,14.48,14.48,0,0,0,2-4.42l-14-3.65h0l.41.35,10.44,8.77Z"/><path class="cls-2" d="M31.12,9.63A15.18,15.18,0,0,0,22.34,7,15.51,15.51,0,1,0,34.42,32.41a14.41,14.41,0,0,0,.95-1.28,15.51,15.51,0,0,0-4.25-21.5Zm5.41,16.51a14.48,14.48,0,0,1-2,4.43,13.34,13.34,0,0,1-.88,1.19h0l0,0-.27-.18L22.5,22.51h0L22.36,8h.17a14.52,14.52,0,0,1,14,18.15Z"/></g></svg>