<svg xmlns="http://www.w3.org/2000/svg" viewBox="0 0 45 45"><defs><style>.cls-1{fill:#fff;}</style></defs><title>Mesa de trabajo 34 copia 8</title><g id="above"><path class="cls-1" d="M25.53,32.37h0a.73.73,0,0,0,.73-.68L27,21.62a.73.73,0,0,0-1.45-.09L24.86,31.6A.73.73,0,0,0,25.53,32.37Z"/><path class="cls-1" d="M18.37,31.69a.73.73,0,0,0,.73.68h0a.73.73,0,0,0,.68-.77l-.64-10.07a.73.73,0,0,0-1.45.09Z"/><path class="cls-1" d="M32.36,11H27.6V10A2.54,2.54,0,0,0,25.05,7.5H19.63A2.53,2.53,0,0,0,17.1,10v1H12.64A3.12,3.12,0,0,0,9.5,14.16v2.79a.73.73,0,0,0,.71.75h1.52l1.37,16.93a3.11,3.11,0,0,0,1,2.05,3.14,3.14,0,0,0,2.14.82H28.42a3.14,3.14,0,0,0,3.15-2.87L32.94,17.7h1.85a.74.74,0,0,0,.71-.75V14.16A3.12,3.12,0,0,0,32.36,11Zm-13.8-1A1.07,1.07,0,0,1,19.63,9h5.42A1.08,1.08,0,0,1,26.14,10v1H18.55ZM30.12,34.5A1.69,1.69,0,0,1,28.42,36H16.26a1.69,1.69,0,0,1-1.69-1.54L13.2,17.7H31.48ZM34,16.24H11V14.16a1.66,1.66,0,0,1,1.68-1.68H32.36A1.67,1.67,0,0,1,34,14.16v2.09Z"/></g></svg>