<svg id="Ebene_1" data-name="Ebene 1" xmlns="http://www.w3.org/2000/svg" xmlns:xlink="http://www.w3.org/1999/xlink" viewBox="0 0 418.44 456.92"><defs><style>.cls-1{fill:none;}.cls-2{clip-path:url(#clip-path);}.cls-3{clip-path:url(#clip-path-2);}.cls-25,.cls-4,.cls-5{fill:#1d1d1b;}.cls-5{font-size:32.34px;}.cls-25,.cls-5{font-family:PTSans-Regular, PT Sans;}.cls-6{letter-spacing:-0.03em;}.cls-7{letter-spacing:-0.01em;}.cls-8{letter-spacing:-0.01em;}.cls-9{letter-spacing:0.02em;}.cls-10{letter-spacing:-0.08em;}.cls-11{letter-spacing:-0.04em;}.cls-12{letter-spacing:0em;}.cls-13{font-size:43.13px;}.cls-13,.cls-34{fill:#006994;font-family:Signika-Bold, Signika;font-weight:700;}.cls-14{letter-spacing:0.01em;}.cls-15{letter-spacing:0.01em;}.cls-16{letter-spacing:0em;}.cls-17{letter-spacing:0.01em;}.cls-18{letter-spacing:0.01em;}.cls-19{letter-spacing:0em;}.cls-20{letter-spacing:0.01em;}.cls-21{letter-spacing:0.01em;}.cls-22{letter-spacing:0em;}.cls-23{clip-path:url(#clip-path-3);}.cls-24{fill:#e6f5fe;}.cls-25{font-size:31.33px;}.cls-26{letter-spacing:-0.03em;}.cls-27{letter-spacing:-0.01em;}.cls-28{letter-spacing:0em;}.cls-29{letter-spacing:-0.01em;}.cls-30{letter-spacing:-0.01em;}.cls-31{letter-spacing:0.01em;}.cls-32{letter-spacing:-0.08em;}.cls-33{letter-spacing:-0.04em;}.cls-34{font-size:41.77px;}.cls-35{letter-spacing:0.01em;}.cls-36{letter-spacing:0.01em;}.cls-37{letter-spacing:0em;}.cls-38{letter-spacing:0.01em;}.cls-39{letter-spacing:0.01em;}.cls-40{letter-spacing:0.01em;}.cls-41{letter-spacing:0em;}.cls-42{letter-spacing:0em;}.cls-43{fill:#006f9a;}.cls-44{fill:#f4fbfe;}</style><clipPath id="clip-path"><rect class="cls-1" x="-100.95" y="-729.86" width="1388.4" height="508.54"/></clipPath><clipPath id="clip-path-2"><rect class="cls-1" x="738.73" y="-676.86" width="548.72" height="437.03"/></clipPath><clipPath id="clip-path-3"><rect class="cls-1" x="32.93" y="-694.37" width="633.29" height="400.82"/></clipPath></defs><g class="cls-2"><g class="cls-3"><path class="cls-4" d="M-46.21,233.45a5.73,5.73,0,0,0-1.84-.33,3.11,3.11,0,0,0-2.2.76,3.32,3.32,0,0,0-1,1.93v11.32h-2.59V231H-52l.48,2h.13a5,5,0,0,1,1.48-1.7,3.69,3.69,0,0,1,2.18-.6,7.77,7.77,0,0,1,2.1.33ZM-31,245.84a7.44,7.44,0,0,1-2.44,1.22,10.28,10.28,0,0,1-3.12.46,7.84,7.84,0,0,1-3.2-.6A5.71,5.71,0,0,1-42,245.2a7.41,7.41,0,0,1-1.29-2.66,13.43,13.43,0,0,1-.42-3.5q0-4.14,1.84-6.3a6.54,6.54,0,0,1,5.28-2.17,10.2,10.2,0,0,1,2.19.24,4.87,4.87,0,0,1,2,.92A5,5,0,0,1-31,233.66a8.15,8.15,0,0,1,.55,3.28,15.88,15.88,0,0,1-.19,2.36H-41.07a9.57,9.57,0,0,0,.3,2.52,4.75,4.75,0,0,0,.9,1.86,3.9,3.9,0,0,0,1.6,1.17,6.36,6.36,0,0,0,2.41.4,6.55,6.55,0,0,0,2.2-.39A4.68,4.68,0,0,0-32,244Zm-5.56-13a4.5,4.5,0,0,0-3.06,1A5,5,0,0,0-41,237.26h8a5,5,0,0,0-.94-3.44A3.48,3.48,0,0,0-36.6,232.83ZM-14,241.57c0,1.1,0,2.09,0,3a15.34,15.34,0,0,0,.29,2.63h-1.75l-.64-2.29h-.13a5.26,5.26,0,0,1-1.88,1.87,5.42,5.42,0,0,1-2.88.75,5.67,5.67,0,0,1-4.8-2q-1.58-2-1.57-6.37,0-4.14,2-6.29A6.88,6.88,0,0,1-20,230.67a10.41,10.41,0,0,1,1.89.13,8.45,8.45,0,0,1,1.51.42v-6.73H-14Zm-6.54,3.68a3.81,3.81,0,0,0,2.62-.85,4.6,4.6,0,0,0,1.33-2.61v-8a3.67,3.67,0,0,0-1.33-.65,8,8,0,0,0-2-.19,4.35,4.35,0,0,0-3.49,1.47,7.17,7.17,0,0,0-1.27,4.71,13.59,13.59,0,0,0,.21,2.46,5.92,5.92,0,0,0,.7,1.94,3.54,3.54,0,0,0,1.28,1.27A3.65,3.65,0,0,0-20.53,245.25ZM-6.68,231v9.21a14.55,14.55,0,0,0,.14,2.22A4.72,4.72,0,0,0-6,244a2.4,2.4,0,0,0,1,1,3.28,3.28,0,0,0,1.56.32A4.2,4.2,0,0,0-2,245a4.12,4.12,0,0,0,1.21-.76,5.64,5.64,0,0,0,.94-1.12,6.67,6.67,0,0,0,.66-1.34V231H3.44v11.58c0,.77,0,1.58.08,2.41a15.32,15.32,0,0,0,.28,2.18H2l-.65-2.56H1.21a6.53,6.53,0,0,1-2,2.11,5.66,5.66,0,0,1-3.2.84,7.86,7.86,0,0,1-2.28-.31,3.48,3.48,0,0,1-1.65-1.08,5.16,5.16,0,0,1-1-2.09,13.34,13.34,0,0,1-.34-3.32V231Zm26.13,15.1a7,7,0,0,1-2.3,1.09,10.54,10.54,0,0,1-2.78.37,7.5,7.5,0,0,1-3.17-.6,5.41,5.41,0,0,1-2.12-1.72,7.07,7.07,0,0,1-1.19-2.68A15,15,0,0,1,7.51,239a9.61,9.61,0,0,1,1.82-6.29,6.38,6.38,0,0,1,5.2-2.18,12.38,12.38,0,0,1,2.64.24,8.25,8.25,0,0,1,2,.7l-.75,2.23a6.77,6.77,0,0,0-1.65-.66,7.11,7.11,0,0,0-1.94-.25q-4.59,0-4.59,6.21a11.21,11.21,0,0,0,.24,2.35,5.69,5.69,0,0,0,.81,2,4.3,4.3,0,0,0,1.49,1.38,4.63,4.63,0,0,0,2.28.51,5.89,5.89,0,0,0,2.08-.35,6.05,6.05,0,0,0,1.51-.81ZM20.87,231H23.4v-3.21L26,227v4h4.4v2.26H26v9a4.92,4.92,0,0,0,.42,2.38,1.54,1.54,0,0,0,1.43.69,5.26,5.26,0,0,0,1.42-.17c.39-.12.82-.28,1.29-.47l.59,2a10,10,0,0,1-1.91.68,9.34,9.34,0,0,1-2.23.26,3.21,3.21,0,0,1-2.79-1.12,6.62,6.62,0,0,1-.8-3.73v-9.45H20.87ZM34,226a1.82,1.82,0,0,1,.5-1.28,1.7,1.7,0,0,1,1.28-.53,1.87,1.87,0,0,1,1.33.53,1.75,1.75,0,0,1,.55,1.28,1.58,1.58,0,0,1-.55,1.23,2,2,0,0,1-1.33.48,1.78,1.78,0,0,1-1.28-.48A1.64,1.64,0,0,1,34,226Zm.55,4.92h2.59v16.17H34.52ZM41.74,239c0-2.74.6-4.83,1.82-6.29a6.49,6.49,0,0,1,5.26-2.18,7.63,7.63,0,0,1,3.15.6,5.72,5.72,0,0,1,2.22,1.71,7.48,7.48,0,0,1,1.29,2.69A13.36,13.36,0,0,1,55.9,239a9.53,9.53,0,0,1-1.83,6.29,6.44,6.44,0,0,1-5.25,2.19,7.71,7.71,0,0,1-3.16-.6,5.69,5.69,0,0,1-2.21-1.72,7.35,7.35,0,0,1-1.29-2.68A13.44,13.44,0,0,1,41.74,239Zm7.08-6.21q-4.4,0-4.4,6.21a11.31,11.31,0,0,0,.24,2.36,6.29,6.29,0,0,0,.76,2,4.21,4.21,0,0,0,1.36,1.36,3.86,3.86,0,0,0,2,.51q4.4,0,4.4-6.21a10.82,10.82,0,0,0-.25-2.39,6,6,0,0,0-.76-2,3.72,3.72,0,0,0-3.39-1.85Zm21.54,14.3v-9.22a7.8,7.8,0,0,0-.73-3.8A2.8,2.8,0,0,0,67,232.83a4.34,4.34,0,0,0-2.83.92,5,5,0,0,0-1.57,2.32v11.06H60V231h1.81l.48,2h.13a5.9,5.9,0,0,1,2.09-1.7,6.84,6.84,0,0,1,3.12-.66,7.83,7.83,0,0,1,2.33.31A3.39,3.39,0,0,1,71.6,232a5.1,5.1,0,0,1,1,2.09,13.74,13.74,0,0,1,.34,3.31v9.77Zm6.4-1.49a1.86,1.86,0,0,1,.5-1.37,1.82,1.82,0,0,1,1.35-.5,1.9,1.9,0,0,1,1.39.5,1.83,1.83,0,0,1,.52,1.37A1.87,1.87,0,0,1,80,247a1.91,1.91,0,0,1-1.39.52,1.83,1.83,0,0,1-1.35-.52A1.9,1.9,0,0,1,76.76,245.64Z"/><text class="cls-5" transform="translate(-380.23 333.38)">E<tspan class="cls-6" x="17.34" y="0">C</tspan><tspan x="34.93" y="0">AM is a </tspan><tspan class="cls-7" x="143.67" y="0">t</tspan><tspan x="154.28" y="0">ool </tspan><tspan class="cls-8" x="207.03" y="0">t</tspan><tspan x="217.67" y="0">o assess carbon </tspan><tspan class="cls-7" x="441.98" y="0">f</tspan><tspan x="451.94" y="0">ootprin</tspan><tspan class="cls-9" x="552.43" y="0">t</tspan><tspan class="cls-10" x="563.88" y="0">,</tspan><tspan x="567.69" y="0" xml:space="preserve"> energ</tspan><tspan class="cls-11" x="655.25" y="0">y</tspan><tspan class="cls-12" x="669.19" y="0"> </tspan></text><path class="cls-4" d="M-23.89,372.52a2.59,2.59,0,0,0,.38,1.61,1.32,1.32,0,0,0,1.1.49,5.94,5.94,0,0,0,.91-.07,5.16,5.16,0,0,0,1.1-.29l.29,2a5.57,5.57,0,0,1-1.44.42,9.17,9.17,0,0,1-1.6.16,3.47,3.47,0,0,1-2.39-.82,3.55,3.55,0,0,1-.94-2.8V353.85h2.59Zm18.37,2.68A7.26,7.26,0,0,1-8,376.43a10.72,10.72,0,0,1-3.13.45,7.88,7.88,0,0,1-3.2-.6,5.66,5.66,0,0,1-2.23-1.71,7.38,7.38,0,0,1-1.29-2.67,13.35,13.35,0,0,1-.42-3.49q0-4.14,1.84-6.31a6.56,6.56,0,0,1,5.27-2.17,10.31,10.31,0,0,1,2.2.25,4.89,4.89,0,0,1,2,.92A4.8,4.8,0,0,1-5.52,363,8.38,8.38,0,0,1-5,366.31a16,16,0,0,1-.2,2.36H-15.55a10,10,0,0,0,.29,2.52,5.06,5.06,0,0,0,.91,1.86,3.88,3.88,0,0,0,1.6,1.16,6.35,6.35,0,0,0,2.41.41,6.59,6.59,0,0,0,2.2-.39,4.68,4.68,0,0,0,1.65-.91Zm-5.57-13a4.45,4.45,0,0,0-3.05,1,5,5,0,0,0-1.38,3.43h8a5,5,0,0,0-.93-3.45A3.53,3.53,0,0,0-11.09,362.2Zm14.14,7.6.9,3.07H4l.81-3.14,3.62-9.41H11.2L4.31,376.85H3.21l-7-16.53h3Zm22.38,5.4A7.26,7.26,0,0,1,23,376.43a10.6,10.6,0,0,1-3.12.45,7.84,7.84,0,0,1-3.2-.6,5.69,5.69,0,0,1-2.24-1.71,7.38,7.38,0,0,1-1.29-2.67,13.35,13.35,0,0,1-.42-3.49q0-4.14,1.84-6.31a6.57,6.57,0,0,1,5.28-2.17,10.22,10.22,0,0,1,2.19.25,4.63,4.63,0,0,1,3.4,2.84,8.2,8.2,0,0,1,.55,3.29,15.88,15.88,0,0,1-.19,2.36H15.4a9.57,9.57,0,0,0,.3,2.52,4.89,4.89,0,0,0,.9,1.86,3.88,3.88,0,0,0,1.6,1.16,6.35,6.35,0,0,0,2.41.41,6.55,6.55,0,0,0,2.2-.39,4.68,4.68,0,0,0,1.65-.91Zm-5.56-13a4.48,4.48,0,0,0-3.06,1,5,5,0,0,0-1.37,3.43h8a5,5,0,0,0-.94-3.45A3.52,3.52,0,0,0,19.87,362.2Zm13.06,10.32a2.59,2.59,0,0,0,.39,1.61,1.32,1.32,0,0,0,1.1.49,6,6,0,0,0,.91-.07,5.16,5.16,0,0,0,1.1-.29l.29,2a5.7,5.7,0,0,1-1.44.42,9.27,9.27,0,0,1-1.6.16,3.51,3.51,0,0,1-2.4-.82,3.59,3.59,0,0,1-.93-2.8V353.85h2.58Zm13.69-.42a2,2,0,0,0-.59-1.52,4.71,4.71,0,0,0-1.44-.93c-.57-.24-1.19-.48-1.87-.71a8.74,8.74,0,0,1-1.88-.87,4.85,4.85,0,0,1-1.44-1.38,4,4,0,0,1-.58-2.26A4.13,4.13,0,0,1,40.15,361a5.66,5.66,0,0,1,3.68-1.09,10.94,10.94,0,0,1,5,1l-.62,2.13a11.49,11.49,0,0,0-1.79-.63,9.07,9.07,0,0,0-2.25-.27,3.6,3.6,0,0,0-2.09.48,2,2,0,0,0-.66,1.69,1.59,1.59,0,0,0,.58,1.31,6.51,6.51,0,0,0,1.44.84c.57.24,1.2.49,1.88.72a8,8,0,0,1,1.87.94,5.31,5.31,0,0,1,1.44,1.47A4.24,4.24,0,0,1,49.2,372a5.38,5.38,0,0,1-.34,1.94,3.82,3.82,0,0,1-1,1.55,5.13,5.13,0,0,1-1.76,1,7.38,7.38,0,0,1-2.47.37,12.31,12.31,0,0,1-3.14-.35,10.25,10.25,0,0,1-2.17-.84l.78-2.2a9,9,0,0,0,1.94.77,8.35,8.35,0,0,0,2.42.36,4.33,4.33,0,0,0,2.3-.55A2.14,2.14,0,0,0,46.62,372.1ZM52.21,375a1.88,1.88,0,0,1,.5-1.38,1.84,1.84,0,0,1,1.35-.5,1.94,1.94,0,0,1,1.39.5,2.1,2.1,0,0,1,0,2.74,1.9,1.9,0,0,1-1.39.51,1.81,1.81,0,0,1-1.35-.51A1.9,1.9,0,0,1,52.21,375Z"/><path class="cls-4" d="M-33.89,454.67a9.53,9.53,0,0,1,1.83-6.29,6.46,6.46,0,0,1,5.26-2.18,7.8,7.8,0,0,1,3.15.59,5.72,5.72,0,0,1,2.22,1.72,7.43,7.43,0,0,1,1.29,2.68,13.49,13.49,0,0,1,.42,3.48A9.53,9.53,0,0,1-21.55,461a6.44,6.44,0,0,1-5.25,2.18,7.88,7.88,0,0,1-3.16-.59,5.69,5.69,0,0,1-2.21-1.72,7.44,7.44,0,0,1-1.3-2.68A13.49,13.49,0,0,1-33.89,454.67Zm7.09-6.21c-2.94,0-4.4,2.05-4.4,6.21A11.31,11.31,0,0,0-31,457a6.23,6.23,0,0,0,.76,2,4,4,0,0,0,1.36,1.36,3.77,3.77,0,0,0,2,.52q4.39,0,4.4-6.21a10.82,10.82,0,0,0-.25-2.39,6.06,6.06,0,0,0-.76-2A3.93,3.93,0,0,0-24.76,449a4,4,0,0,0-2-.5Zm11.16-1.88h1.78l.48,1.94h.13a5.06,5.06,0,0,1,1.92-1.73,6,6,0,0,1,2.7-.59,5.9,5.9,0,0,1,4.82,1.9q1.59,1.92,1.59,6.25A12,12,0,0,1-2.75,458a8,8,0,0,1-1.51,2.76,6.61,6.61,0,0,1-2.34,1.75,7.43,7.43,0,0,1-3.06.61,9.45,9.45,0,0,1-1.89-.14,7.61,7.61,0,0,1-1.51-.5v6.73h-2.58Zm6.53,1.88a3.74,3.74,0,0,0-2.6.86,4.78,4.78,0,0,0-1.35,2.6v8a4.33,4.33,0,0,0,1.33.7,6.6,6.6,0,0,0,2,.24,4.24,4.24,0,0,0,3.54-1.67,7.76,7.76,0,0,0,1.31-4.9,12,12,0,0,0-.22-2.41,5.37,5.37,0,0,0-.73-1.84,3.48,3.48,0,0,0-1.29-1.18A4.15,4.15,0,0,0-9.11,448.46Zm22.77,13a7.26,7.26,0,0,1-2.44,1.23,10.6,10.6,0,0,1-3.12.45,8.1,8.1,0,0,1-3.21-.59,5.75,5.75,0,0,1-2.23-1.72,7.38,7.38,0,0,1-1.29-2.67A13.35,13.35,0,0,1,1,454.67q0-4.14,1.84-6.31a6.55,6.55,0,0,1,5.27-2.16,10.22,10.22,0,0,1,2.2.24,4.93,4.93,0,0,1,2,.92,5,5,0,0,1,1.42,1.92,8.23,8.23,0,0,1,.55,3.29,15.88,15.88,0,0,1-.19,2.36H3.63a10,10,0,0,0,.29,2.52,4.91,4.91,0,0,0,.91,1.86,3.9,3.9,0,0,0,1.6,1.17,6.36,6.36,0,0,0,2.41.4,6.55,6.55,0,0,0,2.2-.39,4.84,4.84,0,0,0,1.65-.9Zm-5.56-13a4.48,4.48,0,0,0-3.06,1,5,5,0,0,0-1.37,3.43h8a5,5,0,0,0-.94-3.44A3.48,3.48,0,0,0,8.1,448.46Zm17.82.61a6,6,0,0,0-1.85-.32,3.08,3.08,0,0,0-2.19.76,3.33,3.33,0,0,0-1,1.93v11.32H18.29V446.58H20.1l.48,2h.13a5,5,0,0,1,1.47-1.7,3.73,3.73,0,0,1,2.19-.6,8.19,8.19,0,0,1,2.1.32Zm3.1-1.29a9.59,9.59,0,0,1,2.87-1.1,15.71,15.71,0,0,1,3.41-.35,6.78,6.78,0,0,1,2.7.45A3.66,3.66,0,0,1,39.55,448a4,4,0,0,1,.71,1.6,8.59,8.59,0,0,1,.18,1.75c0,1.29,0,2.55-.1,3.78s-.09,2.39-.09,3.49c0,.8,0,1.56.09,2.27a11.32,11.32,0,0,0,.36,2H38.79l-.68-2.26H38a5.29,5.29,0,0,1-.73.89,4.45,4.45,0,0,1-1,.77,6.37,6.37,0,0,1-1.42.57,6.93,6.93,0,0,1-1.85.23,5.45,5.45,0,0,1-1.92-.33,4.31,4.31,0,0,1-2.56-2.36,4.82,4.82,0,0,1-.37-1.91,4.49,4.49,0,0,1,.59-2.38,4.2,4.2,0,0,1,1.63-1.52,8.21,8.21,0,0,1,2.52-.8,19.16,19.16,0,0,1,3.25-.25h.89a6.8,6.8,0,0,1,.89.07,16.35,16.35,0,0,0,.1-1.75,3.51,3.51,0,0,0-.71-2.49,3.68,3.68,0,0,0-2.59-.71,10,10,0,0,0-1.18.08c-.42.06-.85.14-1.3.24a11.58,11.58,0,0,0-1.26.36,7.42,7.42,0,0,0-1.05.48Zm4.6,13a5,5,0,0,0,1.61-.24,4.43,4.43,0,0,0,1.23-.62,3.75,3.75,0,0,0,.86-.82,3.57,3.57,0,0,0,.5-.87v-2.69l-.92-.05H36a15.76,15.76,0,0,0-2,.11,6.45,6.45,0,0,0-1.68.42,3.12,3.12,0,0,0-1.17.84,2.05,2.05,0,0,0-.43,1.34,2.37,2.37,0,0,0,.81,1.86A2.94,2.94,0,0,0,33.62,460.75Zm9.57-14.17h2.52v-3.2l2.59-.74v3.94h4.4v2.27H48.3v9a4.85,4.85,0,0,0,.42,2.37,1.52,1.52,0,0,0,1.42.7,4.93,4.93,0,0,0,1.43-.18,13.12,13.12,0,0,0,1.29-.47l.58,2a10.47,10.47,0,0,1-1.91.68,9.29,9.29,0,0,1-2.23.25A3.22,3.22,0,0,1,46.52,462a6.56,6.56,0,0,1-.81-3.74v-9.44H43.19Zm13.1-4.91a1.82,1.82,0,0,1,.5-1.28,1.65,1.65,0,0,1,1.28-.53,1.79,1.79,0,0,1,1.32.53,1.71,1.71,0,0,1,.55,1.28,1.58,1.58,0,0,1-.55,1.23,1.92,1.92,0,0,1-1.32.48,1.77,1.77,0,0,1-1.28-.48A1.67,1.67,0,0,1,56.29,441.67Zm.55,4.91h2.59v16.18H56.84Zm7.21,8.09a9.53,9.53,0,0,1,1.83-6.29,6.46,6.46,0,0,1,5.26-2.18,7.87,7.87,0,0,1,3.15.59,5.69,5.69,0,0,1,2.21,1.72,7.28,7.28,0,0,1,1.3,2.68,13.49,13.49,0,0,1,.42,3.48A9.53,9.53,0,0,1,76.39,461a6.45,6.45,0,0,1-5.25,2.18,7.88,7.88,0,0,1-3.16-.59,5.69,5.69,0,0,1-2.21-1.72,7.28,7.28,0,0,1-1.3-2.68A13.49,13.49,0,0,1,64.05,454.67Zm7.09-6.21c-2.94,0-4.4,2.05-4.4,6.21A11.31,11.31,0,0,0,67,457a6,6,0,0,0,.76,2,3.93,3.93,0,0,0,1.36,1.36,3.77,3.77,0,0,0,2,.52q4.39,0,4.39-6.21a11.46,11.46,0,0,0-.24-2.39,6.06,6.06,0,0,0-.76-2,3.77,3.77,0,0,0-3.39-1.84Zm21.54,14.3v-9.22a7.91,7.91,0,0,0-.73-3.8,2.82,2.82,0,0,0-2.67-1.28,4.32,4.32,0,0,0-2.83.92,5,5,0,0,0-1.57,2.31v11.07H82.29V446.58h1.82l.48,2h.13a5.82,5.82,0,0,1,2.09-1.7,6.84,6.84,0,0,1,3.12-.66,8.18,8.18,0,0,1,2.33.3,3.53,3.53,0,0,1,1.66,1.09,5.05,5.05,0,0,1,1,2.08,13.39,13.39,0,0,1,.34,3.32v9.77Zm7-15a9.52,9.52,0,0,1,2.86-1.1,15.84,15.84,0,0,1,3.41-.35,6.78,6.78,0,0,1,2.7.45,3.76,3.76,0,0,1,1.56,1.18,4.12,4.12,0,0,1,.71,1.6,8.59,8.59,0,0,1,.18,1.75c0,1.29,0,2.55-.1,3.78s-.1,2.39-.1,3.49c0,.8,0,1.56.1,2.27a10.47,10.47,0,0,0,.35,2h-1.9l-.68-2.26h-.17a5.21,5.21,0,0,1-.72.89,4.67,4.67,0,0,1-1.05.77,6.46,6.46,0,0,1-1.43.57,6.86,6.86,0,0,1-1.84.23,5.55,5.55,0,0,1-1.93-.33,4.33,4.33,0,0,1-2.55-2.36,4.65,4.65,0,0,1-.37-1.91,4.49,4.49,0,0,1,.58-2.38,4.27,4.27,0,0,1,1.63-1.52,8.18,8.18,0,0,1,2.53-.8,19.08,19.08,0,0,1,3.25-.25h.89a6.94,6.94,0,0,1,.89.07c.06-.65.09-1.23.09-1.75a3.51,3.51,0,0,0-.71-2.49,3.66,3.66,0,0,0-2.59-.71,10.17,10.17,0,0,0-1.18.08q-.63.09-1.29.24a11.58,11.58,0,0,0-1.26.36,7.42,7.42,0,0,0-1,.48Zm4.59,13a5.11,5.11,0,0,0,1.62-.24,4.73,4.73,0,0,0,1.23-.62,3.7,3.7,0,0,0,.85-.82,3.63,3.63,0,0,0,.51-.87v-2.69l-.93-.05h-.92a15.76,15.76,0,0,0-2,.11A6.66,6.66,0,0,0,103,456a3.08,3.08,0,0,0-1.16.84,2.06,2.06,0,0,0-.44,1.34,2.37,2.37,0,0,0,.81,1.86A3,3,0,0,0,104.32,460.75Zm14.59-2a2.64,2.64,0,0,0,.39,1.62,1.32,1.32,0,0,0,1.1.48,7.28,7.28,0,0,0,.9-.06,5.24,5.24,0,0,0,1.1-.3l.29,2a5.1,5.1,0,0,1-1.44.42,9.17,9.17,0,0,1-1.6.16,3.47,3.47,0,0,1-2.39-.82,3.55,3.55,0,0,1-.94-2.8v-19.4h2.59Z"/><path class="cls-4" d="M145.14,461.69a7.19,7.19,0,0,1-2.3,1.08,10.14,10.14,0,0,1-2.78.37,7.67,7.67,0,0,1-3.17-.59,5.41,5.41,0,0,1-2.12-1.72,7.14,7.14,0,0,1-1.19-2.68,15,15,0,0,1-.38-3.48,9.59,9.59,0,0,1,1.82-6.29,6.35,6.35,0,0,1,5.2-2.18,12.38,12.38,0,0,1,2.64.24,8.24,8.24,0,0,1,2,.69l-.75,2.24a6.79,6.79,0,0,0-1.65-.67,7.53,7.53,0,0,0-1.94-.24q-4.59,0-4.59,6.21a11.21,11.21,0,0,0,.24,2.35,5.69,5.69,0,0,0,.81,2,4.18,4.18,0,0,0,1.49,1.37,4.52,4.52,0,0,0,2.28.52,5.67,5.67,0,0,0,2.08-.36,5.74,5.74,0,0,0,1.51-.8Zm1.9-7a9.53,9.53,0,0,1,1.83-6.29,6.46,6.46,0,0,1,5.26-2.18,7.83,7.83,0,0,1,3.15.59,5.72,5.72,0,0,1,2.22,1.72,7.43,7.43,0,0,1,1.29,2.68,13.49,13.49,0,0,1,.42,3.48,9.53,9.53,0,0,1-1.83,6.29,6.45,6.45,0,0,1-5.25,2.18,7.88,7.88,0,0,1-3.16-.59,5.69,5.69,0,0,1-2.21-1.72,7.44,7.44,0,0,1-1.3-2.68A13.49,13.49,0,0,1,147,454.67Zm7.09-6.21c-2.94,0-4.4,2.05-4.4,6.21A11.31,11.31,0,0,0,150,457a6.23,6.23,0,0,0,.76,2,4,4,0,0,0,1.36,1.36,3.77,3.77,0,0,0,2,.52q4.4,0,4.4-6.21a10.82,10.82,0,0,0-.25-2.39,6.06,6.06,0,0,0-.76-2,3.93,3.93,0,0,0-1.35-1.34,4,4,0,0,0-2-.5Zm18.27,9.9a2,2,0,0,0-.58-1.52,4.75,4.75,0,0,0-1.44-.92c-.57-.25-1.2-.49-1.88-.72a8.41,8.41,0,0,1-1.87-.87,5,5,0,0,1-1.44-1.37,3.92,3.92,0,0,1-.58-2.27,4.16,4.16,0,0,1,1.32-3.41,5.71,5.71,0,0,1,3.69-1.08,12.17,12.17,0,0,1,2.93.3,11.85,11.85,0,0,1,2,.73l-.61,2.14a9.86,9.86,0,0,0-1.8-.63,8.56,8.56,0,0,0-2.25-.28,3.48,3.48,0,0,0-2.08.49,2,2,0,0,0-.67,1.68,1.6,1.6,0,0,0,.59,1.31,6.07,6.07,0,0,0,1.44.84c.57.25,1.19.49,1.87.73a8,8,0,0,1,1.88.93,5.21,5.21,0,0,1,1.44,1.48,4.18,4.18,0,0,1,.58,2.34,5.38,5.38,0,0,1-.34,1.94,4,4,0,0,1-1.05,1.55,5.07,5.07,0,0,1-1.76,1,7.44,7.44,0,0,1-2.48.37,11.93,11.93,0,0,1-3.14-.35,10.15,10.15,0,0,1-2.16-.84l.77-2.2a9.42,9.42,0,0,0,1.94.77,8.41,8.41,0,0,0,2.43.36,4.35,4.35,0,0,0,2.3-.55A2.12,2.12,0,0,0,172.4,458.36Zm4.37-11.78h2.52v-3.2l2.59-.74v3.94h4.4v2.27h-4.4v9a4.85,4.85,0,0,0,.42,2.37,1.51,1.51,0,0,0,1.42.7,4.93,4.93,0,0,0,1.43-.18c.38-.12.81-.27,1.29-.47l.58,2a10.47,10.47,0,0,1-1.91.68,9.29,9.29,0,0,1-2.23.25A3.22,3.22,0,0,1,180.1,462a6.56,6.56,0,0,1-.81-3.74v-9.44h-2.52ZM197,458.36a2,2,0,0,0-.58-1.52,4.75,4.75,0,0,0-1.44-.92c-.57-.25-1.19-.49-1.87-.72a8.29,8.29,0,0,1-1.88-.87,5,5,0,0,1-1.44-1.37,3.92,3.92,0,0,1-.58-2.27,4.16,4.16,0,0,1,1.32-3.41,5.71,5.71,0,0,1,3.69-1.08,12.11,12.11,0,0,1,2.93.3,11.56,11.56,0,0,1,2.05.73l-.61,2.14a9.86,9.86,0,0,0-1.8-.63,8.54,8.54,0,0,0-2.24-.28,3.52,3.52,0,0,0-2.09.49,1.94,1.94,0,0,0-.66,1.68,1.59,1.59,0,0,0,.58,1.31,6.51,6.51,0,0,0,1.44.84c.57.25,1.19.49,1.87.73a8,8,0,0,1,1.88.93,5.21,5.21,0,0,1,1.44,1.48,4.18,4.18,0,0,1,.58,2.34,5.38,5.38,0,0,1-.34,1.94,3.85,3.85,0,0,1-1,1.55,5,5,0,0,1-1.76,1,7.4,7.4,0,0,1-2.48.37,11.8,11.8,0,0,1-3.13-.35,10,10,0,0,1-2.17-.84l.78-2.2a9,9,0,0,0,1.94.77,8.3,8.3,0,0,0,2.42.36,4.35,4.35,0,0,0,2.3-.55A2.12,2.12,0,0,0,197,458.36Zm5.6,2.91a1.9,1.9,0,0,1,.5-1.38,1.82,1.82,0,0,1,1.34-.5,1.91,1.91,0,0,1,1.39.5,2.06,2.06,0,0,1,0,2.74,1.87,1.87,0,0,1-1.39.51,1.79,1.79,0,0,1-1.34-.51A1.9,1.9,0,0,1,202.58,461.27Z"/><text class="cls-13" transform="translate(-420.98 116.52)"><tspan class="cls-14">W</tspan><tspan class="cls-15" x="39.37" y="0">h</tspan><tspan class="cls-16" x="63.18" y="0">a</tspan><tspan class="cls-14" x="85.43" y="0">t </tspan><tspan x="111.95" y="0">E</tspan><tspan class="cls-14" x="136.66" y="0">CA</tspan><tspan class="cls-17" x="191.3" y="0">M</tspan><tspan class="cls-18" x="227.61" y="0"> </tspan><tspan class="cls-17" x="237.53" y="0">o</tspan><tspan class="cls-18" x="260.43" y="0">f</tspan><tspan class="cls-19" x="276.3" y="0">f</tspan><tspan class="cls-20" x="291.91" y="0">e</tspan><tspan class="cls-21" x="313.73" y="0">r</tspan><tspan class="cls-20" x="331.28" y="0">s</tspan><tspan class="cls-18" x="350.78" y="0"> </tspan><tspan class="cls-16" x="360.69" y="0">wa</tspan><tspan class="cls-22" x="415.68" y="0">t</tspan><tspan class="cls-18" x="431.94" y="0">er a</tspan><tspan class="cls-20" x="503.83" y="0">n</tspan><tspan x="527.8" y="0">d </tspan></text></g><g class="cls-23"><path class="cls-24" d="M-428-4.8s-39.48,0-39.48,39.47V558s0,39.47,39.48,39.47H292.32s39.47,0,39.47-39.47V34.67s0-39.47-39.47-39.47Z"/></g><g class="cls-23"><path class="cls-4" d="M-65,189.49a5.56,5.56,0,0,0-1.78-.31,3,3,0,0,0-2.13.73,3.23,3.23,0,0,0-1,1.87v11H-72.4V187.08h1.76l.47,1.91H-70a4.73,4.73,0,0,1,1.43-1.64,3.55,3.55,0,0,1,2.11-.58,7.61,7.61,0,0,1,2,.31Zm14.7,12a7.12,7.12,0,0,1-2.37,1.19,10.31,10.31,0,0,1-3,.44,7.59,7.59,0,0,1-3.1-.58A5.5,5.5,0,0,1-61,200.88a7,7,0,0,1-1.26-2.59,13,13,0,0,1-.4-3.38q0-4,1.78-6.11a6.33,6.33,0,0,1,5.11-2.1,9.66,9.66,0,0,1,2.13.24,4.6,4.6,0,0,1,1.91.89,4.82,4.82,0,0,1,1.38,1.86,8.1,8.1,0,0,1,.53,3.18,14.9,14.9,0,0,1-.19,2.29H-60a9.54,9.54,0,0,0,.28,2.45,4.74,4.74,0,0,0,.88,1.8,3.72,3.72,0,0,0,1.55,1.12,5.94,5.94,0,0,0,2.33.4,6.38,6.38,0,0,0,2.13-.38,4.49,4.49,0,0,0,1.6-.88ZM-55.7,188.9a4.33,4.33,0,0,0-3,1A4.81,4.81,0,0,0-60,193.19h7.77a4.85,4.85,0,0,0-.91-3.34A3.37,3.37,0,0,0-55.7,188.9Zm21.9,8.45c0,1.07,0,2,0,2.9a14.54,14.54,0,0,0,.28,2.56h-1.69l-.63-2.23h-.12a5.12,5.12,0,0,1-1.82,1.82,5.27,5.27,0,0,1-2.79.72,5.5,5.5,0,0,1-4.65-2q-1.52-2-1.52-6.18,0-4,1.9-6.09a6.68,6.68,0,0,1,5.21-2.08,11,11,0,0,1,1.84.12,10.15,10.15,0,0,1,1.45.41v-6.52h2.51Zm-6.33,3.58a3.72,3.72,0,0,0,2.54-.83,4.51,4.51,0,0,0,1.28-2.53V189.8a3.39,3.39,0,0,0-1.28-.62A7.6,7.6,0,0,0-39.5,189a4.25,4.25,0,0,0-3.39,1.43A7,7,0,0,0-44.11,195a12.62,12.62,0,0,0,.21,2.38,5.48,5.48,0,0,0,.67,1.88A3.35,3.35,0,0,0-42,200.47,3.52,3.52,0,0,0-40.13,200.93Zm13.41-13.85V196a14.85,14.85,0,0,0,.14,2.14,4.43,4.43,0,0,0,.49,1.54,2.25,2.25,0,0,0,.94.92,3.15,3.15,0,0,0,1.5.32,3.93,3.93,0,0,0,1.5-.27,3.92,3.92,0,0,0,1.18-.74,5.32,5.32,0,0,0,.91-1.08,6.55,6.55,0,0,0,.64-1.3V187.08h2.51v11.21c0,.76,0,1.53.07,2.34a15.85,15.85,0,0,0,.27,2.11h-1.72l-.63-2.47h-.16a6.16,6.16,0,0,1-1.94,2,5.42,5.42,0,0,1-3.1.82,7.38,7.38,0,0,1-2.21-.3,3.4,3.4,0,0,1-1.6-1,5,5,0,0,1-1-2,13,13,0,0,1-.33-3.21v-9.46Zm25.31,14.63a6.72,6.72,0,0,1-2.22,1,10,10,0,0,1-2.7.36,7.25,7.25,0,0,1-3.07-.58,5.29,5.29,0,0,1-2-1.66,7.12,7.12,0,0,1-1.16-2.6,14.64,14.64,0,0,1-.36-3.37,9.31,9.31,0,0,1,1.76-6.09,6.18,6.18,0,0,1,5-2.12,11.62,11.62,0,0,1,2.55.24,7.6,7.6,0,0,1,1.9.67l-.72,2.16a6.94,6.94,0,0,0-1.6-.64,7.07,7.07,0,0,0-1.88-.23c-3,0-4.45,2-4.45,6a10.39,10.39,0,0,0,.24,2.27,5.53,5.53,0,0,0,.78,1.91,4.21,4.21,0,0,0,1.44,1.34,4.51,4.51,0,0,0,2.21.5,5.55,5.55,0,0,0,2-.35,5.83,5.83,0,0,0,1.46-.78ZM0,187.08H2.42V184l2.5-.72v3.82H9.18v2.19H4.92V198a4.72,4.72,0,0,0,.41,2.3,1.48,1.48,0,0,0,1.38.68,4.62,4.62,0,0,0,1.38-.18,13.09,13.09,0,0,0,1.25-.45l.56,1.91a9.82,9.82,0,0,1-1.85.66,8.65,8.65,0,0,1-2.16.25A3.1,3.1,0,0,1,3.2,202a6.37,6.37,0,0,1-.78-3.62v-9.15H0Zm12.69-4.76a1.72,1.72,0,0,1,.49-1.24,1.59,1.59,0,0,1,1.23-.52,1.78,1.78,0,0,1,1.29.52,1.68,1.68,0,0,1,.53,1.24,1.54,1.54,0,0,1-.53,1.19,1.92,1.92,0,0,1-1.29.47,1.7,1.7,0,0,1-1.23-.47A1.58,1.58,0,0,1,12.66,182.32Zm.53,4.76H15.7v15.66H13.19Zm7,7.83A9.25,9.25,0,0,1,22,188.82,6.27,6.27,0,0,1,27,186.7a7.59,7.59,0,0,1,3.06.58,5.58,5.58,0,0,1,2.14,1.66,7.07,7.07,0,0,1,1.25,2.6,12.7,12.7,0,0,1,.41,3.37A9.25,9.25,0,0,1,32.13,201,6.27,6.27,0,0,1,27,203.12a7.35,7.35,0,0,1-3.05-.58,5.54,5.54,0,0,1-2.15-1.66,7.23,7.23,0,0,1-1.25-2.6A13.07,13.07,0,0,1,20.18,194.91Zm6.86-6q-4.26,0-4.26,6A10.65,10.65,0,0,0,23,197.2a5.94,5.94,0,0,0,.73,1.91,4.06,4.06,0,0,0,1.32,1.32,3.72,3.72,0,0,0,2,.5q4.26,0,4.26-6a11.55,11.55,0,0,0-.23-2.32,6.29,6.29,0,0,0-.74-1.91A3.65,3.65,0,0,0,27,188.9Zm20.87,13.84v-8.93a7.64,7.64,0,0,0-.71-3.68,2.71,2.71,0,0,0-2.58-1.23,4.12,4.12,0,0,0-2.74.89A4.64,4.64,0,0,0,40.36,192v10.71H37.85V187.08H39.6l.47,1.91h.13a5.51,5.51,0,0,1,2-1.64,6.6,6.6,0,0,1,3-.65,7.68,7.68,0,0,1,2.26.3,3.38,3.38,0,0,1,1.61,1.05,5,5,0,0,1,1,2,13.08,13.08,0,0,1,.33,3.21v9.46Zm6.2-1.44a1.66,1.66,0,0,1,1.79-1.81,1.85,1.85,0,0,1,1.34.48,1.74,1.74,0,0,1,.5,1.33,1.76,1.76,0,0,1-.5,1.32,1.82,1.82,0,0,1-1.34.5,1.76,1.76,0,0,1-1.31-.5A1.83,1.83,0,0,1,54.11,201.3Z"/><text class="cls-25" transform="translate(-388.54 286.29)">E<tspan class="cls-26" x="16.79" y="0">C</tspan><tspan x="33.8" y="0">AM is a </tspan><tspan class="cls-27" x="139.13" y="0">t</tspan><tspan class="cls-28" x="149.41" y="0">ool </tspan><tspan class="cls-29" x="200.5" y="0">t</tspan><tspan x="210.81" y="0">o assess carbon </tspan><tspan class="cls-30" x="428.08" y="0">f</tspan><tspan x="437.73" y="0">ootprin</tspan><tspan class="cls-31" x="535.07" y="0">t</tspan><tspan class="cls-32" x="546.16" y="0">,</tspan><tspan x="549.85" y="0" xml:space="preserve"> energ</tspan><tspan class="cls-33" x="634.66" y="0">y</tspan><tspan x="648.16" y="0"> </tspan></text><path class="cls-4" d="M-43.39,324.2a2.52,2.52,0,0,0,.37,1.56,1.29,1.29,0,0,0,1.07.47,7.1,7.1,0,0,0,.88-.06,4.66,4.66,0,0,0,1.06-.28l.28,2a4.83,4.83,0,0,1-1.39.41,9.59,9.59,0,0,1-1.55.16,3.41,3.41,0,0,1-2.32-.8,3.48,3.48,0,0,1-.91-2.71v-18.8h2.51Zm17.79,2.6A7,7,0,0,1-28,328a10.31,10.31,0,0,1-3,.44,7.81,7.81,0,0,1-3.11-.58,5.65,5.65,0,0,1-2.16-1.66,7.26,7.26,0,0,1-1.25-2.59,13,13,0,0,1-.41-3.38,9.2,9.2,0,0,1,1.79-6.11A6.32,6.32,0,0,1-31,312a9.66,9.66,0,0,1,2.13.24,4.7,4.7,0,0,1,1.92.89A4.71,4.71,0,0,1-25.6,315a7.91,7.91,0,0,1,.54,3.18,16.4,16.4,0,0,1-.19,2.29H-35.31a9.92,9.92,0,0,0,.28,2.44,4.74,4.74,0,0,0,.88,1.8,3.72,3.72,0,0,0,1.55,1.13,6.22,6.22,0,0,0,2.34.39,6.37,6.37,0,0,0,2.13-.37,4.34,4.34,0,0,0,1.59-.88ZM-31,314.2a4.36,4.36,0,0,0-3,1,4.86,4.86,0,0,0-1.34,3.33h7.77a4.8,4.8,0,0,0-.91-3.34A3.35,3.35,0,0,0-31,314.2Zm13.68,7.37.88,3h0l.79-3,3.5-9.11h2.7l-6.67,16h-1.07l-6.8-16h2.88ZM4.39,326.8A7.12,7.12,0,0,1,2,328a10.31,10.31,0,0,1-3,.44,7.72,7.72,0,0,1-3.1-.58,5.61,5.61,0,0,1-2.17-1.66,7.26,7.26,0,0,1-1.25-2.59,13,13,0,0,1-.41-3.38,9.2,9.2,0,0,1,1.79-6.11A6.33,6.33,0,0,1-1,312a9.66,9.66,0,0,1,2.13.24,4.66,4.66,0,0,1,1.91.89A4.82,4.82,0,0,1,4.39,315a8.1,8.1,0,0,1,.53,3.18,15,15,0,0,1-.19,2.29H-5.33A9.44,9.44,0,0,0-5,322.91a4.72,4.72,0,0,0,.87,1.8,3.78,3.78,0,0,0,1.55,1.13,6.22,6.22,0,0,0,2.34.39,6.37,6.37,0,0,0,2.13-.37,4.49,4.49,0,0,0,1.6-.88ZM-1,314.2a4.38,4.38,0,0,0-3,1,4.86,4.86,0,0,0-1.33,3.33H2.48a4.85,4.85,0,0,0-.91-3.34A3.39,3.39,0,0,0-1,314.2Zm12.65,10a2.51,2.51,0,0,0,.38,1.56,1.28,1.28,0,0,0,1.07.47,6.82,6.82,0,0,0,.87-.06,4.72,4.72,0,0,0,1.07-.28l.28,2a4.93,4.93,0,0,1-1.39.41,9.81,9.81,0,0,1-1.55.16,3.39,3.39,0,0,1-2.32-.8,3.45,3.45,0,0,1-.91-2.71v-18.8h2.5Zm13.26-.41a1.9,1.9,0,0,0-.57-1.47,4.83,4.83,0,0,0-1.39-.9,18.88,18.88,0,0,0-1.82-.68,8.6,8.6,0,0,1-1.81-.85,4.67,4.67,0,0,1-1.4-1.33,3.84,3.84,0,0,1-.56-2.19,4,4,0,0,1,1.28-3.31A5.5,5.5,0,0,1,22.21,312,10.68,10.68,0,0,1,27,313l-.6,2.07a10,10,0,0,0-1.74-.61,8.43,8.43,0,0,0-2.17-.27,3.46,3.46,0,0,0-2,.47,1.9,1.9,0,0,0-.65,1.63,1.52,1.52,0,0,0,.57,1.27,6.07,6.07,0,0,0,1.39.82c.55.24,1.16.47,1.82.7a7.75,7.75,0,0,1,1.82.91,5.22,5.22,0,0,1,1.39,1.42,4.1,4.1,0,0,1,.56,2.28,5.35,5.35,0,0,1-.33,1.88,3.73,3.73,0,0,1-1,1.5,4.94,4.94,0,0,1-1.71,1,7.22,7.22,0,0,1-2.4.36,11.6,11.6,0,0,1-3-.35,10,10,0,0,1-2.1-.81l.76-2.13a9.15,9.15,0,0,0,1.88.75,8.15,8.15,0,0,0,2.35.34A4.17,4.17,0,0,0,24,325.7,2.05,2.05,0,0,0,24.91,323.79Zm5.42,2.82a1.81,1.81,0,0,1,.48-1.33,1.75,1.75,0,0,1,1.3-.49,1.82,1.82,0,0,1,1.35.49,1.78,1.78,0,0,1,.5,1.33,1.72,1.72,0,0,1-1.85,1.82,1.76,1.76,0,0,1-1.3-.5A1.85,1.85,0,0,1,30.33,326.61Z"/><path class="cls-4" d="M-53.07,403.77a9.25,9.25,0,0,1,1.77-6.09,6.27,6.27,0,0,1,5.09-2.11,7.43,7.43,0,0,1,3.06.58A5.49,5.49,0,0,1-41,397.81a7.17,7.17,0,0,1,1.26,2.6,13,13,0,0,1,.4,3.36,9.26,9.26,0,0,1-1.77,6.1A6.25,6.25,0,0,1-46.21,412a7.35,7.35,0,0,1-3-.58,5.52,5.52,0,0,1-2.15-1.66,7.15,7.15,0,0,1-1.25-2.6A13,13,0,0,1-53.07,403.77Zm6.86-6q-4.26,0-4.26,6a10.65,10.65,0,0,0,.24,2.29A5.94,5.94,0,0,0-49.5,408a4.06,4.06,0,0,0,1.32,1.32,3.72,3.72,0,0,0,2,.5c2.84,0,4.26-2,4.26-6a11.45,11.45,0,0,0-.23-2.31,6.1,6.1,0,0,0-.74-1.92,3.88,3.88,0,0,0-1.31-1.3,3.87,3.87,0,0,0-2-.48Zm10.81-1.82h1.72l.47,1.88h.13a4.74,4.74,0,0,1,1.86-1.67,5.71,5.71,0,0,1,2.62-.58,5.73,5.73,0,0,1,4.67,1.84c1,1.24,1.53,3.25,1.53,6a11.59,11.59,0,0,1-.51,3.56,7.94,7.94,0,0,1-1.46,2.68,6.53,6.53,0,0,1-2.27,1.69,7.31,7.31,0,0,1-3,.59,9,9,0,0,1-1.84-.14,7,7,0,0,1-1.45-.48v6.51H-35.4Zm6.33,1.82a3.63,3.63,0,0,0-2.52.83,4.58,4.58,0,0,0-1.3,2.52v7.77a4,4,0,0,0,1.28.67,6.22,6.22,0,0,0,1.91.24,4.14,4.14,0,0,0,3.43-1.61A7.56,7.56,0,0,0-25,403.43a11.11,11.11,0,0,0-.22-2.33,5.08,5.08,0,0,0-.7-1.79,3.37,3.37,0,0,0-1.26-1.14A4,4,0,0,0-29.07,397.76ZM-7,410.35a7.12,7.12,0,0,1-2.37,1.19,10,10,0,0,1-3,.44,7.56,7.56,0,0,1-3.1-.58,5.51,5.51,0,0,1-2.17-1.66,7.22,7.22,0,0,1-1.25-2.58,13,13,0,0,1-.41-3.39,9.16,9.16,0,0,1,1.79-6.1,6.33,6.33,0,0,1,5.11-2.1,9.65,9.65,0,0,1,2.13.23,4.93,4.93,0,0,1,1.91.89A4.79,4.79,0,0,1-7,398.56a8,8,0,0,1,.53,3.18A15,15,0,0,1-6.67,404H-16.73a9.49,9.49,0,0,0,.29,2.44,4.72,4.72,0,0,0,.87,1.8A3.88,3.88,0,0,0-14,409.4a6.22,6.22,0,0,0,2.34.39,6.38,6.38,0,0,0,2.13-.38,4.64,4.64,0,0,0,1.6-.87Zm-5.39-12.59a4.31,4.31,0,0,0-3,1,4.84,4.84,0,0,0-1.34,3.32h7.77a4.86,4.86,0,0,0-.9-3.34A3.42,3.42,0,0,0-12.4,397.76Zm17.26.59A5.91,5.91,0,0,0,3.07,398a3,3,0,0,0-2.13.74,3.23,3.23,0,0,0-1,1.86v11h-2.5V395.94H-.78l.47,1.91h.13a4.8,4.8,0,0,1,1.42-1.64,3.59,3.59,0,0,1,2.12-.58,7.6,7.6,0,0,1,2,.31Zm3-1.25A8.93,8.93,0,0,1,10.64,396a15.45,15.45,0,0,1,3.3-.35,6.58,6.58,0,0,1,2.62.44,3.56,3.56,0,0,1,1.5,1.14,3.8,3.8,0,0,1,.69,1.55,8.19,8.19,0,0,1,.18,1.7c0,1.25,0,2.47-.1,3.66s-.09,2.32-.09,3.39q0,1.15.09,2.19a10,10,0,0,0,.35,1.91H17.33l-.66-2.19h-.16a4.9,4.9,0,0,1-.7.86,4.49,4.49,0,0,1-1,.75,6.73,6.73,0,0,1-1.38.55,6.88,6.88,0,0,1-1.78.22,5.44,5.44,0,0,1-1.87-.32,4.23,4.23,0,0,1-1.49-.89,4.32,4.32,0,0,1-1-1.39,4.56,4.56,0,0,1-.36-1.85,4.29,4.29,0,0,1,.56-2.3,4.1,4.1,0,0,1,1.58-1.48,8.11,8.11,0,0,1,2.45-.78,19.09,19.09,0,0,1,3.15-.23h.86a6.33,6.33,0,0,1,.86.06c.06-.63.09-1.19.09-1.69a3.38,3.38,0,0,0-.69-2.42,3.51,3.51,0,0,0-2.5-.69,7.93,7.93,0,0,0-1.15.09,12.19,12.19,0,0,0-1.25.22,10.28,10.28,0,0,0-1.22.36,5.38,5.38,0,0,0-1,.46Zm4.45,12.56a4.74,4.74,0,0,0,1.56-.23,4.57,4.57,0,0,0,1.19-.6,3.7,3.7,0,0,0,.83-.79,4,4,0,0,0,.49-.85v-2.6l-.89,0h-.9a14.55,14.55,0,0,0-1.89.11,5.81,5.81,0,0,0-1.63.4,2.83,2.83,0,0,0-1.13.82,2,2,0,0,0-.42,1.3,2.32,2.32,0,0,0,.78,1.8A2.88,2.88,0,0,0,12.32,409.66Zm9.27-13.72H24v-3.1l2.51-.72v3.82H30.8v2.2H26.54v8.67a4.65,4.65,0,0,0,.41,2.31,1.47,1.47,0,0,0,1.37.67,4.9,4.9,0,0,0,1.38-.17c.38-.12.8-.27,1.26-.46l.56,1.91a8.6,8.6,0,0,1-1.85.66,8.77,8.77,0,0,1-2.16.25,3.1,3.1,0,0,1-2.69-1.08,6.26,6.26,0,0,1-.79-3.62v-9.14H21.59Zm12.69-4.76a1.77,1.77,0,0,1,.48-1.24,1.65,1.65,0,0,1,1.24-.51,1.81,1.81,0,0,1,1.29.51,1.7,1.7,0,0,1,.53,1.24,1.53,1.53,0,0,1-.53,1.19,1.92,1.92,0,0,1-1.29.47,1.74,1.74,0,0,1-1.24-.47A1.59,1.59,0,0,1,34.28,391.18Zm.53,4.76h2.51v15.67H34.81Zm7,7.83a9.25,9.25,0,0,1,1.77-6.09,6.25,6.25,0,0,1,5.09-2.11,7.35,7.35,0,0,1,3.05.58,5.52,5.52,0,0,1,2.15,1.66,7.15,7.15,0,0,1,1.25,2.6,13,13,0,0,1,.41,3.36,9.26,9.26,0,0,1-1.77,6.1A6.27,6.27,0,0,1,48.66,412a7.43,7.43,0,0,1-3.06-.58,5.49,5.49,0,0,1-2.14-1.66,7.17,7.17,0,0,1-1.26-2.6A13,13,0,0,1,41.8,403.77Zm6.86-6q-4.26,0-4.26,6a11.33,11.33,0,0,0,.23,2.29,6,6,0,0,0,.74,1.91,3.94,3.94,0,0,0,1.31,1.32,3.76,3.76,0,0,0,2,.5c2.84,0,4.26-2,4.26-6a10.77,10.77,0,0,0-.24-2.31,6.09,6.09,0,0,0-.73-1.92,4,4,0,0,0-1.32-1.3,3.81,3.81,0,0,0-2-.48Zm20.86,13.85v-8.93a7.6,7.6,0,0,0-.7-3.68,2.71,2.71,0,0,0-2.59-1.24,4.2,4.2,0,0,0-2.74.89A4.76,4.76,0,0,0,62,400.89v10.72h-2.5V395.94h1.75l.47,1.91h.13a5.62,5.62,0,0,1,2-1.64,6.57,6.57,0,0,1,3-.64,8.05,8.05,0,0,1,2.26.29,3.43,3.43,0,0,1,1.61,1.05,5,5,0,0,1,1,2,13.11,13.11,0,0,1,.33,3.22v9.46Zm6.83-14.51A9.09,9.09,0,0,1,79.13,396a15.38,15.38,0,0,1,3.3-.35,6.58,6.58,0,0,1,2.62.44,3.63,3.63,0,0,1,1.5,1.14,3.94,3.94,0,0,1,.69,1.55,8.91,8.91,0,0,1,.17,1.7q0,1.88-.09,3.66c-.06,1.19-.1,2.32-.1,3.39,0,.77,0,1.5.1,2.19a10.83,10.83,0,0,0,.34,1.91H85.81l-.65-2.19H85a5,5,0,0,1-.71.86,4.65,4.65,0,0,1-1,.75,6.73,6.73,0,0,1-1.38.55,6.9,6.9,0,0,1-1.79.22,5.34,5.34,0,0,1-1.86-.32,4.14,4.14,0,0,1-1.49-.89,4.2,4.2,0,0,1-1-1.39,4.56,4.56,0,0,1-.36-1.85,4.29,4.29,0,0,1,.57-2.3,4,4,0,0,1,1.58-1.48,8,8,0,0,1,2.44-.78,19.09,19.09,0,0,1,3.15-.23H84a6.33,6.33,0,0,1,.86.06A15.32,15.32,0,0,0,85,401a3.38,3.38,0,0,0-.69-2.42,3.54,3.54,0,0,0-2.51-.69,7.91,7.91,0,0,0-1.14.09,11.31,11.31,0,0,0-1.25.22,11,11,0,0,0-1.23.36,5.57,5.57,0,0,0-1,.46Zm4.45,12.56a4.56,4.56,0,0,0,2.76-.83,3.92,3.92,0,0,0,.83-.79,3.54,3.54,0,0,0,.48-.85v-2.6l-.89,0h-.89a14.81,14.81,0,0,0-1.9.11,5.9,5.9,0,0,0-1.63.4,2.79,2.79,0,0,0-1.12.82,1.94,1.94,0,0,0-.43,1.3,2.29,2.29,0,0,0,.79,1.8A2.87,2.87,0,0,0,80.8,409.66Zm14.13-1.91a2.55,2.55,0,0,0,.38,1.57,1.28,1.28,0,0,0,1.06.47,7,7,0,0,0,.88-.06,5.24,5.24,0,0,0,1.06-.28l.29,2a5.38,5.38,0,0,1-1.4.41,9.46,9.46,0,0,1-1.55.15,3.36,3.36,0,0,1-2.32-.8,3.47,3.47,0,0,1-.91-2.71V389.68h2.51Z"/><path class="cls-4" d="M120.34,410.57a6.91,6.91,0,0,1-2.22,1.05,10,10,0,0,1-2.7.36,7.25,7.25,0,0,1-3.07-.58,5.14,5.14,0,0,1-2-1.66,7,7,0,0,1-1.16-2.6,14.57,14.57,0,0,1-.36-3.37,9.31,9.31,0,0,1,1.75-6.09,6.18,6.18,0,0,1,5-2.11,11.68,11.68,0,0,1,2.55.23,8.18,8.18,0,0,1,1.9.67l-.72,2.17a7.15,7.15,0,0,0-1.6-.65,7.56,7.56,0,0,0-1.88-.23q-4.45,0-4.45,6a11.15,11.15,0,0,0,.23,2.28,5.62,5.62,0,0,0,.79,1.91,4.1,4.1,0,0,0,1.44,1.33,4.49,4.49,0,0,0,2.21.5,5.6,5.6,0,0,0,2-.34,6,6,0,0,0,1.46-.79Zm1.84-6.8a9.2,9.2,0,0,1,1.78-6.09,6.24,6.24,0,0,1,5.09-2.11,7.38,7.38,0,0,1,3,.58,5.52,5.52,0,0,1,2.15,1.66,7.15,7.15,0,0,1,1.25,2.6,13,13,0,0,1,.41,3.36,9.26,9.26,0,0,1-1.77,6.1,6.27,6.27,0,0,1-5.09,2.11,7.43,7.43,0,0,1-3.06-.58,5.42,5.42,0,0,1-2.14-1.66,7,7,0,0,1-1.26-2.6A13,13,0,0,1,122.18,403.77Zm6.87-6q-4.26,0-4.26,6a10.65,10.65,0,0,0,.23,2.29,6,6,0,0,0,.74,1.91,3.94,3.94,0,0,0,1.31,1.32,3.76,3.76,0,0,0,2,.5c2.84,0,4.26-2,4.26-6a10.77,10.77,0,0,0-.24-2.31,6.09,6.09,0,0,0-.73-1.92,4,4,0,0,0-1.32-1.3,3.81,3.81,0,0,0-2-.48Zm17.7,9.59a1.94,1.94,0,0,0-.57-1.48,4.81,4.81,0,0,0-1.39-.89c-.55-.24-1.16-.47-1.82-.69a8.9,8.9,0,0,1-1.82-.84,4.79,4.79,0,0,1-1.39-1.34,3.74,3.74,0,0,1-.56-2.19,4,4,0,0,1,1.28-3.3,5.5,5.5,0,0,1,3.57-1.05,11.93,11.93,0,0,1,2.84.29,11.46,11.46,0,0,1,2,.71l-.6,2.07a9.21,9.21,0,0,0-1.74-.61,8.43,8.43,0,0,0-2.17-.27,3.46,3.46,0,0,0-2,.47,1.89,1.89,0,0,0-.65,1.63,1.55,1.55,0,0,0,.57,1.27,6.06,6.06,0,0,0,1.39.81c.55.24,1.16.48,1.82.71a7.75,7.75,0,0,1,1.82.91,5.08,5.08,0,0,1,1.39,1.42,4.06,4.06,0,0,1,.56,2.27,5.27,5.27,0,0,1-.33,1.88,3.7,3.7,0,0,1-1,1.51,5.08,5.08,0,0,1-1.71,1,7.22,7.22,0,0,1-2.4.36,11.64,11.64,0,0,1-3-.34,9.48,9.48,0,0,1-2.1-.82l.76-2.13a9.11,9.11,0,0,0,1.88.76,8.15,8.15,0,0,0,2.35.34,4.29,4.29,0,0,0,2.22-.53A2.06,2.06,0,0,0,146.75,407.35ZM151,395.94h2.44v-3.1l2.51-.72v3.82h4.26v2.2h-4.26v8.67a4.79,4.79,0,0,0,.4,2.31,1.49,1.49,0,0,0,1.38.67,4.9,4.9,0,0,0,1.38-.17c.38-.12.79-.27,1.25-.46l.57,1.91a9.12,9.12,0,0,1-4,.91,3.12,3.12,0,0,1-2.7-1.08,6.35,6.35,0,0,1-.78-3.62v-9.14H151Zm19.58,11.41a1.94,1.94,0,0,0-.57-1.48,4.81,4.81,0,0,0-1.39-.89c-.55-.24-1.16-.47-1.82-.69a8.58,8.58,0,0,1-1.81-.84,4.71,4.71,0,0,1-1.4-1.34,3.82,3.82,0,0,1-.56-2.19,4,4,0,0,1,1.28-3.3,5.5,5.5,0,0,1,3.57-1.05,11.93,11.93,0,0,1,2.84.29,11.46,11.46,0,0,1,2,.71l-.6,2.07a9.21,9.21,0,0,0-1.74-.61,8.38,8.38,0,0,0-2.17-.27,3.46,3.46,0,0,0-2,.47,1.89,1.89,0,0,0-.65,1.63,1.55,1.55,0,0,0,.57,1.27,6.06,6.06,0,0,0,1.39.81c.55.24,1.16.48,1.82.71a7.75,7.75,0,0,1,1.82.91A5.08,5.08,0,0,1,172.5,405a4.06,4.06,0,0,1,.56,2.27,5.5,5.5,0,0,1-.32,1.88,3.82,3.82,0,0,1-1,1.51,5.08,5.08,0,0,1-1.71,1,7.22,7.22,0,0,1-2.4.36,11.64,11.64,0,0,1-3-.34,9.48,9.48,0,0,1-2.1-.82l.76-2.13a9.11,9.11,0,0,0,1.88.76,8.15,8.15,0,0,0,2.35.34,4.27,4.27,0,0,0,2.22-.53A2,2,0,0,0,170.56,407.35Zm5.42,2.82a1.83,1.83,0,0,1,.48-1.34,1.78,1.78,0,0,1,1.3-.48,1.86,1.86,0,0,1,1.35.48,1.8,1.8,0,0,1,.5,1.34,1.72,1.72,0,0,1-1.85,1.81,1.72,1.72,0,0,1-1.3-.5A1.81,1.81,0,0,1,176,410.17Z"/><text class="cls-34" transform="translate(-428.01 76.23)"><tspan class="cls-35">W</tspan><tspan class="cls-36" x="38.1" y="0">h</tspan><tspan class="cls-37" x="61.2" y="0">a</tspan><tspan class="cls-36" x="82.75" y="0">t </tspan><tspan x="108.44" y="0">E</tspan><tspan class="cls-38" x="132.38" y="0">C</tspan><tspan class="cls-39" x="158.19" y="0">AM </tspan><tspan class="cls-35" x="230.08" y="0">o</tspan><tspan class="cls-40" x="252.26" y="0">f</tspan><tspan class="cls-41" x="267.63" y="0">f</tspan><tspan class="cls-35" x="282.75" y="0">e</tspan><tspan class="cls-39" x="303.89" y="0">rs </tspan><tspan class="cls-41" x="349.42" y="0">w</tspan><tspan class="cls-42" x="381.17" y="0">at</tspan><tspan class="cls-35" x="418.51" y="0">e</tspan><tspan class="cls-39" x="439.65" y="0">r a</tspan><tspan class="cls-35" x="488.1" y="0">n</tspan><tspan x="511.33" y="0">d </tspan></text><path class="cls-24" d="M450.2-4.8s-39.47,0-39.47,39.47V558s0,39.47,39.47,39.47h720.33s39.47,0,39.47-39.47V34.67s0-39.47-39.47-39.47Z"/></g></g><ellipse class="cls-43" cx="209.22" cy="178.98" rx="163.77" ry="178.98"/><ellipse class="cls-44" cx="209.22" cy="178.98" rx="112.69" ry="123.15"/><rect class="cls-43" y="172.2" width="418.44" height="284.72" rx="2.81"/></svg>