<svg id="Ebene_1" data-name="Ebene 1" xmlns="http://www.w3.org/2000/svg" viewBox="0 0 431.17 447.63"><defs><style>.cls-1{fill:#006f9a;}.cls-2{fill:#f7f7f7;}</style></defs><rect class="cls-1" x="1.5" y="276.26" width="235.18" height="104.55" rx="2.46" transform="translate(-197.43 180.44) rotate(-45)"/><circle class="cls-2" cx="65.08" cy="380.58" r="11.9"/><path class="cls-1" d="M389.32,29.14C382.9,22.55,360.54,1.22,327.26.05c-20.24-.71-35,6.18-47.67,12.53C268,18.39,228.37,37.32,215.41,78.83c-3.69,11.83-3.88,21.18-4.14,34.16-.34,17.26-.84,42,13.46,66.25,9.13,15.52,20.6,24.4,28,30S277,227.52,302.37,232c28.67,5.1,51.26-3.13,62.11-7.24,16.47-6.24,41.08-15.54,55.9-41.41,17-29.64,9.38-60.59,7.24-68.32l-77.69,48.43-45.49-22.55q1.2-25.71,2.41-51.42Z"/><path class="cls-1" d="M276.76,245.15,189.2,332.37,116,259.12l85.32-86a75.43,75.43,0,0,0,3.11,13.13c11.18,33.57,42.76,48.76,49.89,51.95A98.52,98.52,0,0,0,276.76,245.15Z"/></svg>